<?xml version="1.0" encoding="UTF-8" standalone="no"?>
<!-- Created with Inkscape (http://www.inkscape.org/) -->

<svg
   version="1.1"
   id="svg2"
   xml:space="preserve"
   width="184.69333"
   height="61.279999"
   viewBox="0 0 184.69333 61.279999"
   sodipodi:docname="3dnews_logo_color.eps"
   xmlns:inkscape="http://www.inkscape.org/namespaces/inkscape"
   xmlns:sodipodi="http://sodipodi.sourceforge.net/DTD/sodipodi-0.dtd"
   xmlns="http://www.w3.org/2000/svg"
   xmlns:svg="http://www.w3.org/2000/svg"><defs
     id="defs6" /><sodipodi:namedview
     id="namedview4"
     pagecolor="#ffffff"
     bordercolor="#666666"
     borderopacity="1.0"
     inkscape:pageshadow="2"
     inkscape:pageopacity="0.0"
     inkscape:pagecheckerboard="0" /><g
     id="g8"
     inkscape:groupmode="layer"
     inkscape:label="ink_ext_XXXXXX"
     transform="matrix(1.3333333,0,0,-1.3333333,0,61.28)"><g fill="#FFFFFF" stroke="none"
       id="g10"
       transform="scale(0.1)"><path
         d="m 720.488,265.195 78.352,-102.98 h 4.258 v 102.98 H 833.84 V 136.66 h -52.793 l -77.231,102.969 h -4.253 V 136.66 h -30.747 v 128.535 h 51.672"
         style="fill-opacity:1;fill-rule:nonzero;stroke:none"
         id="path12" /><path
         d="M 848.84,265.195 H 980.145 V 240.938 H 879.582 v -28.153 h 97.422 V 190.371 H 879.582 V 160.918 H 980.145 V 136.66 H 848.84 v 128.535"
         style="fill-opacity:1;fill-rule:nonzero;stroke:none"
         id="path14" /><path
         d="m 1111.09,224.082 -30.92,-87.422 h -45.2 l -49.997,128.535 h 31.847 l 40.19,-102.98 h 1.67 l 36.3,102.98 h 32.04 l 36.67,-102.98 h 2.22 l 39.28,102.98 h 31.85 L 1187.22,136.66 h -45.2 l -30.93,87.422"
         style="fill-opacity:1;fill-rule:nonzero;stroke:none"
         id="path16" /><path
         d="m 1385.21,228.887 h -30.75 c 0,7.968 -2.78,12.051 -15.74,12.051 h -51.68 c -8.71,0 -14.82,-3.524 -14.82,-13.34 0,-11.672 6.3,-13.145 14.82,-13.145 h 56.11 c 28.35,0 42.06,-2.969 42.06,-38.711 0,-27.226 -11.86,-39.082 -42.23,-39.082 h -62.05 c -32.79,0 -42.6,11.672 -42.6,36.485 h 30.74 c 0,-6.29 6.49,-12.227 15.2,-12.227 h 51.48 c 13.52,0 18.71,4.453 18.71,14.824 0,9.258 -2.05,14.442 -19.64,14.442 h -45.55 c -35.01,0 -47.79,6.113 -47.79,38.703 0,25.937 13.33,36.308 47.59,36.308 h 52.24 c 31.11,0 43.9,-11.484 43.9,-36.308"
         style="fill-opacity:1;fill-rule:nonzero;stroke:none"
         id="path18" /><path
         d="M 364.23,327.598 H 151.328 l -10.117,-57.539 h 69.004 c 48.301,0 65.312,-5.977 65.312,-26.68 0,-40.481 -26.679,-46.465 -55.652,-46.465 h -97.062 c -35.4185,0 -46.4653,1.844 -46.4653,30.371 H 2.29688 C 0.917969,218.535 0,211.18 0,203.816 0,158.281 29.8945,136.66 93.8281,136.66 H 222.637 c 61.64,0 114.082,18.399 127.422,94.297 0.918,5.977 1.367,11.035 1.367,16.102 0,38.644 -28.516,52.902 -41.387,56.574 21.199,2.5 42.598,-3.438 54.191,23.965"
         style="fill-opacity:1;fill-rule:nonzero;stroke:none"
         id="path20" /><path
         d="m 157.313,395.449 h 215.734 c 0,49.668 -43.242,64.121 -93.828,64.121 h -128.34 c -86.9415,0 -117.7657,-57.031 -125.1173,-98.886 h 71.7578 c 5.0585,27.597 29.8945,34.765 59.7935,34.765"
         style="fill-opacity:1;fill-rule:nonzero;stroke:none"
         id="path22" /><path
         d="m 671.125,356.973 c 0,-5.106 -0.918,-12.539 -1.836,-16.727 l -9.809,-56.34 h 76.379 l 10.246,57.735 c 2.301,13.945 3.68,26.953 3.68,38.105 0,57.176 -31.277,79.492 -96.594,79.492 H 406.633 L 394.98,396.289 h 214.5 c 46.465,0 61.645,-14.219 61.645,-39.316"
         style="fill-opacity:1;fill-rule:nonzero;stroke:none"
         id="path24" /><path
         d="M 646.047,228.418 C 635.84,209.297 616.516,200.801 575.449,200.801 H 437.91 l 22.336,126.933 H 383.848 L 350.508,136.66 h 247.019 c 18.418,0 34.426,1.895 48.52,5.625 v 86.133"
         style="fill-opacity:1;fill-rule:nonzero;stroke:none"
         id="path26" /><path
         d="m 31.2773,42.4219 8.7735,49.5508 h 35.4297 c 11.9687,0 15.8867,-3.3204 15.8867,-9.7266 0,-1.3008 -0.2422,-3.2031 -0.4766,-4.2578 L 87.1016,56.418 C 85.3203,46.582 81.4063,42.4219 66.7109,42.4219 Z M 23.2227,108.32 8.76172,26.0742 H 72.4023 c 21.211,0 30.5777,9.1211 34.3677,30.461 l 3.914,21.8046 c 0.586,3.5547 0.949,6.875 0.949,9.7149 0,14.5823 -8.059,20.2653 -24.8947,20.2653 H 23.2227"
         style="fill-opacity:1;fill-rule:nonzero;stroke:none"
         id="path28" /><path
         d="m 149.551,51.4336 h 20.262 c 7.238,0 8.539,-1.8906 8.539,-4.8516 0,-6.5234 -3.555,-8.3007 -10.786,-8.3007 h -20.261 c -7.117,0 -8.418,1.8945 -8.418,4.3867 0,7.2343 3.789,8.7656 10.664,8.7656 z m -6.512,16.2422 0.352,1.8945 c 0.476,2.2461 1.777,2.8438 8.054,2.8438 h 20.86 c 7.468,0 9.843,-1.3008 9.843,-5.4532 0,-0.9453 -1.191,-6.6406 -1.543,-9.0117 -1.425,3.8008 -4.148,5.6914 -9.96,5.6914 h -23.821 c -18.367,0 -24.644,-5.8086 -26.426,-15.5234 l -1.187,-7.1133 c -0.117,-0.5937 -0.234,-2.4883 -0.234,-3.0742 0,-8.0664 6.523,-11.8555 17.187,-11.8555 h 26.309 c 7.109,0 9.597,2.2461 13.632,6.6406 l -1.191,-6.6406 h 19.676 l 6.758,37.9297 c 0.234,1.5352 0.468,3.5547 0.468,4.6094 0,9.1328 -5.808,16.0078 -21.687,16.0078 h -29.035 c -18.489,0 -25.008,-7.3555 -26.785,-16.9453 h 18.73"
         style="fill-opacity:1;fill-rule:nonzero;stroke:none"
         id="path30" /><path
         d="m 227.297,26.0742 h -19.668 l 10.301,58.5469 h 19.675 z m 14.461,82.2458 -2.852,-16.3473 h -19.668 l 2.844,16.3473 h 19.676"
         style="fill-opacity:1;fill-rule:nonzero;stroke:none"
         id="path32" /><path
         d="m 262.02,26.0742 h -19.676 l 14.465,82.2458 h 19.668 L 262.02,26.0742"
         style="fill-opacity:1;fill-rule:nonzero;stroke:none"
         id="path34" /><path
         d="m 306.223,84.6211 8.894,-42.1992 h 2.246 l 27.024,42.1992 h 18.965 L 325.422,26.1914 C 311.438,4.51172 307.645,1.07422 289.277,1.07422 h -2.722 l 2.371,13.50778 h 2.722 c 6.633,0 9.602,1.2969 15.997,11.4922 h -5.211 l -14.582,58.5469 h 18.371"
         style="fill-opacity:1;fill-rule:nonzero;stroke:none"
         id="path36" /><path
         d="m 421.184,42.4219 8.765,49.5508 h 35.442 c 11.964,0 15.879,-3.3204 15.879,-9.7266 0,-1.3008 -0.235,-3.2031 -0.477,-4.2578 L 477.004,56.418 C 475.227,46.582 471.309,42.4219 456.621,42.4219 Z M 413.125,108.32 398.664,26.0742 h 63.641 c 21.211,0 30.578,9.1211 34.375,30.461 l 3.906,21.8046 c 0.598,3.5547 0.945,6.875 0.945,9.7149 0,14.5823 -8.054,20.2653 -24.883,20.2653 h -63.523"
         style="fill-opacity:1;fill-rule:nonzero;stroke:none"
         id="path38" /><path
         d="m 525.715,26.0742 h -19.68 l 10.313,58.5469 h 19.675 z M 540.168,108.32 537.324,91.9727 H 517.645 L 520.5,108.32 h 19.668"
         style="fill-opacity:1;fill-rule:nonzero;stroke:none"
         id="path40" /><path
         d="m 584.609,71.1133 h 13.274 c 8.648,0 11.738,-3.3203 11.738,-8.7695 0,-0.2344 -0.117,-1.7774 -0.246,-2.5 l -1.648,-9.2383 c -1.196,-7.2266 -5.696,-11.0157 -15.414,-11.0157 h -13.27 c -8.418,0 -11.738,4.8516 -11.738,9.1211 0,1.8946 1.066,7.5782 1.777,11.2579 1.191,6.164 7.109,11.1445 15.527,11.1445 z m 29.036,13.5078 -1.301,-7.3555 c -0.364,0.8399 -3.321,7.3555 -15.41,7.3555 h -17.891 c -15.176,0 -26.902,-7.8242 -29.395,-22.043 l -2.605,-15.0586 c -0.234,-1.3007 -0.355,-2.5976 -0.355,-3.9062 0,-9.7188 6.75,-17.5391 21.21,-17.5391 h 19.082 c 8.411,0 15.403,4.5039 17.895,8.5352 l -2.246,-12.2071 c -0.949,-5.5664 -5.461,-8.8867 -11.496,-8.8867 h -20.156 c -5.215,0 -7.227,2.2461 -7.227,6.875 h -19.785 c -0.242,-1.3086 -0.36,-2.5 -0.36,-3.6718 C 543.605,6.64063 551.543,0 563.281,0 h 28.321 c 18.019,0 28.332,8.53516 30.937,23.3477 l 10.781,61.2734 h -19.675"
         style="fill-opacity:1;fill-rule:nonzero;stroke:none"
         id="path42" /><path
         d="m 652.754,26.0742 h -19.68 l 10.317,58.5469 h 19.675 z m 14.465,82.2458 -2.856,-16.3473 h -19.668 l 2.844,16.3473 h 19.68"
         style="fill-opacity:1;fill-rule:nonzero;stroke:none"
         id="path44" /><path
         d="m 702.883,95.8789 -2.012,-11.2578 h 36.734 l -2.371,-13.5078 h -36.738 l -3.672,-20.625 c -0.234,-1.543 -0.351,-2.6094 -0.351,-3.5547 0,-5.0977 2.961,-7.3438 7.824,-7.3438 h 8.172 c 5.695,0 8.535,4.4922 9.597,10.4297 h 19.68 C 737.488,37.6953 732.156,26.0742 707.031,26.0742 H 694.59 c -13.274,0 -20.266,6.4063 -20.266,16.9531 0,1.5313 0.117,3.0743 0.473,4.8516 l 4.031,23.2344 h -7.109 l 2.363,13.5078 h 7.109 l 2.024,11.2578 h 19.668"
         style="fill-opacity:1;fill-rule:nonzero;stroke:none"
         id="path46" /><path
         d="m 780.871,51.4336 h 20.262 c 7.226,0 8.535,-1.8906 8.535,-4.8516 0,-6.5234 -3.555,-8.3007 -10.789,-8.3007 h -20.266 c -7.109,0 -8.418,1.8945 -8.418,4.3867 0,7.2343 3.801,8.7656 10.676,8.7656 z m -6.523,16.2422 0.359,1.8945 c 0.469,2.2461 1.777,2.8438 8.059,2.8438 h 20.859 c 7.461,0 9.832,-1.3008 9.832,-5.4532 0,-0.9453 -1.184,-6.6406 -1.543,-9.0117 -1.414,3.8008 -4.148,5.6914 -9.949,5.6914 h -23.82 c -18.379,0 -24.661,-5.8086 -26.434,-15.5234 l -1.184,-7.1133 c -0.117,-0.5937 -0.234,-2.4883 -0.234,-3.0742 0,-8.0664 6.516,-11.8555 17.18,-11.8555 h 26.304 c 7.121,0 9.602,2.2461 13.637,6.6406 l -1.184,-6.6406 h 19.668 l 6.758,37.9297 c 0.235,1.5352 0.469,3.5547 0.469,4.6094 0,9.1328 -5.801,16.0078 -21.68,16.0078 h -29.043 c -18.484,0 -25,-7.3555 -26.777,-16.9453 h 18.723"
         style="fill-opacity:1;fill-rule:nonzero;stroke:none"
         id="path48" /><path
         d="m 858.02,26.0742 h -19.68 l 14.465,82.2458 h 19.668 L 858.02,26.0742"
         style="fill-opacity:1;fill-rule:nonzero;stroke:none"
         id="path50" /><path
         d="m 936.113,42.4219 8.77,49.5508 h 35.437 c 11.977,0 15.879,-3.3204 15.879,-9.7266 0,-1.3008 -0.23,-3.2031 -0.469,-4.2578 L 991.934,56.418 C 990.156,46.582 986.25,42.4219 971.555,42.4219 Z M 928.059,108.32 913.605,26.0742 h 63.629 c 21.223,0 30.576,9.1211 34.376,30.461 l 3.91,21.8046 c 0.59,3.5547 0.94,6.875 0.94,9.7149 0,14.5823 -8.05,20.2653 -24.878,20.2653 h -63.523"
         style="fill-opacity:1;fill-rule:nonzero;stroke:none"
         id="path52" /><path
         d="m 1040.64,26.0742 h -19.67 l 10.31,58.5469 h 19.68 z m 14.47,82.2458 -2.85,-16.3473 h -19.67 l 2.84,16.3473 h 19.68"
         style="fill-opacity:1;fill-rule:nonzero;stroke:none"
         id="path54" /><path
         d="m 1099.54,71.1133 h 13.28 c 8.64,0 11.73,-3.3203 11.73,-8.7695 0,-0.2344 -0.12,-1.7774 -0.23,-2.5 l -1.66,-9.2383 c -1.2,-7.2266 -5.7,-11.0157 -15.41,-11.0157 h -13.27 c -8.42,0 -11.73,4.8516 -11.73,9.1211 0,1.8946 1.06,7.5782 1.77,11.2579 1.19,6.164 7.11,11.1445 15.52,11.1445 z m 29.05,13.5078 -1.32,-7.3555 c -0.34,0.8399 -3.31,7.3555 -15.41,7.3555 h -17.88 c -15.17,0 -26.91,-7.8242 -29.4,-22.043 l -2.61,-15.0586 c -0.23,-1.3007 -0.35,-2.5976 -0.35,-3.9062 0,-9.7188 6.76,-17.5391 21.21,-17.5391 h 19.08 c 8.42,0 15.41,4.5039 17.9,8.5352 l -2.25,-12.2071 c -0.95,-5.5664 -5.45,-8.8867 -11.5,-8.8867 h -20.14 c -5.22,0 -7.24,2.2461 -7.24,6.875 h -19.79 c -0.24,-1.3086 -0.35,-2.5 -0.35,-3.6718 C 1058.54,6.64063 1066.48,0 1078.21,0 h 28.32 c 18.02,0 28.33,8.53516 30.94,23.3477 l 10.78,61.2734 h -19.66"
         style="fill-opacity:1;fill-rule:nonzero;stroke:none"
         id="path56" /><path
         d="m 1208.57,61.9805 h -39.11 c 0.95,5.6953 4.15,10.6758 11.86,10.6758 h 18.13 c 7.11,0 9.36,-3.4375 9.36,-7.9493 0,-0.3515 -0.12,-1.7773 -0.24,-2.7265 z m 16.83,-10.9063 c 2.14,11.8555 2.37,13.75 2.37,15.6446 0,9.7265 -5.21,18.1445 -21.44,18.1445 h -27.97 c -17.55,0 -26.55,-11.2695 -28.33,-21.582 l -2.61,-14.8047 c -0.35,-1.7774 -0.47,-3.4375 -0.47,-4.9805 0,-10.1953 6.4,-17.4219 20.62,-17.4219 h 28.8 c 19.79,0 26.19,8.8867 28.08,19.1992 h -18.84 c -0.82,-4.6289 -3.55,-6.9921 -8.3,-6.9921 h -22.75 c -6.28,0 -7.82,3.3203 -7.82,7.1093 0,1.0742 0.12,2.2461 0.71,5.6836 h 57.95"
         style="fill-opacity:1;fill-rule:nonzero;stroke:none"
         id="path58" /><path
         d="m 1232.04,39.707 c 0,1.543 0.12,3.3203 0.48,5.0977 h 16.46 c 0,-4.8633 1.2,-6.5234 6.53,-6.5234 h 24.18 c 6.04,0 8.88,2.246 8.88,5.6835 0,2.0196 -1.19,5.0977 -7.35,5.0977 h -28.08 c -11.15,0 -16.83,4.1484 -16.83,12.4414 0,1.1914 0.12,2.5 0.95,7.3516 1.66,9.1328 7.94,16.0078 25.84,16.0078 h 26.3 c 15.29,0 21.33,-3.5547 21.33,-12.9297 0,-1.6602 -0.23,-3.5547 -0.59,-5.5664 h -17.66 c 0,5.4492 -2.36,6.2891 -9,6.2891 h -22.29 c -5.56,0 -8.29,-2.3829 -8.29,-5.9375 0,-1.5352 0.24,-4.1407 6.05,-4.1407 h 26.66 c 15.52,0 21.57,-4.0312 21.57,-11.6211 0,-1.0547 -0.12,-2.1289 -0.95,-7.1093 -2.13,-11.7266 -11.37,-17.7735 -26.79,-17.7735 h -27.96 c -13.63,0 -19.44,4.3867 -19.44,13.6328"
         style="fill-opacity:1;fill-rule:nonzero;stroke:none"
         id="path60" /><path
         d="m 1347.95,95.8789 -2.01,-11.2578 h 36.74 l -2.38,-13.5078 h -36.74 l -3.67,-20.625 c -0.24,-1.543 -0.36,-2.6094 -0.36,-3.5547 0,-5.0977 2.97,-7.3438 7.83,-7.3438 h 8.18 c 5.68,0 8.52,4.4922 9.6,10.4297 h 19.66 c -2.24,-12.3242 -7.58,-23.9453 -32.7,-23.9453 h -12.45 c -13.27,0 -20.26,6.4063 -20.26,16.9531 0,1.5313 0.11,3.0743 0.47,4.8516 l 4.03,23.2344 h -7.11 l 2.37,13.5078 h 7.11 l 2.01,11.2578 h 19.68"
         style="fill-opacity:1;fill-rule:nonzero;stroke:none"
         id="path62" /></g></g></svg>
