<svg version="1.2" xmlns="http://www.w3.org/2000/svg" viewBox="0 0 311 162" width="311" height="162">
	<g fill="#FFFFFF" stroke="none">
		<path id="&lt;Compound Path&gt;" fill-rule="evenodd" class="s0" d="m62.6 49.5h11.2v69.5h-11.1v-7.3c-5.6 5.7-13.2 8.9-22.4 8.9-18.9 0-33.8-15.5-33.8-36.4 0-20.8 14.9-36.3 33.8-36.3 9.1 0 16.6 3 22.3 8.7zm1.1 34.7c0-14.5-9.6-24.7-22.8-24.7-13.2 0-22.8 10.2-22.8 24.7 0 14.6 9.6 24.8 22.8 24.8 13.2 0 22.8-10.2 22.8-24.8z"/>
		<path id="&lt;Compound Path&gt;" fill-rule="evenodd" class="s0" d="m90.6 84.2v-18.5c0-25.7 8.2-39.8 34-46.6l24.5-6.4v11.9l-23.9 6.5c-17.4 4.7-22.6 13.4-23 28.6 6.3-8.1 16.7-11.3 24.7-11.3 20.5 0 32.9 15.5 32.9 35.8 0 20.6-15 36.4-34.6 36.4-19.5 0-34.6-15.8-34.6-36.4zm57.4 0.2c0-14.5-9.4-24.6-22.6-24.6-13.2 0-22.9 10.1-22.9 24.6 0 14.4 9.5 24.6 22.7 24.6 13.3 0 22.8-10.2 22.8-24.6z"/>
		<path id="&lt;Path&gt;" class="s0" d="m197.8 81.2l29.4-31.7h-15l-27.3 29.7v-29.7h-11.3v69.5h11.3v-35.4l28.8 35.4h14.8z"/>
		<path id="&lt;Compound Path&gt;" fill-rule="evenodd" class="s0" d="m304.6 84.2c0 20.9-14.9 36.4-33.8 36.4-8.9 0-16.3-3.1-22-8.4v42h-11.2v-104.7h10.7v7.3c5.7-5.7 13.3-8.9 22.5-8.9 18.9 0 33.8 15.5 33.8 36.3zm-11.7 0c0-14.5-9.5-24.7-22.7-24.7-13.3 0-22.8 10.2-22.8 24.7 0 14.6 9.5 24.8 22.8 24.8 13.2 0 22.7-10.2 22.7-24.8z"/>
		<path id="&lt;Compound Path&gt;" fill-rule="evenodd" class="s0" d="m288.2 666.4h3.7v23.3h-3.6v-2.5c-1.9 1.9-4.4 3-7.5 3-6.3 0-11.3-5.2-11.3-12.2 0-7 5-12.2 11.3-12.2 3 0 5.5 1 7.4 2.9zm0.4 11.7c0-4.9-3.2-8.3-7.6-8.3-4.4 0-7.6 3.4-7.6 8.3 0 4.9 3.2 8.3 7.6 8.3 4.4 0 7.6-3.4 7.6-8.3z"/>
		<path id="&lt;Compound Path&gt;" fill-rule="evenodd" class="s0" d="m297.5 678v-6.2c0-8.6 2.8-13.3 11.4-15.6l8.1-2.2v4l-7.9 2.2c-5.8 1.6-7.6 4.5-7.7 9.6 2.1-2.7 5.6-3.8 8.2-3.8 6.9 0 11 5.2 11 12 0 6.9-5 12.2-11.5 12.2-6.5 0-11.6-5.3-11.6-12.2zm19.2 0.1c0-4.9-3.2-8.3-7.6-8.3-4.4 0-7.6 3.4-7.6 8.3 0 4.8 3.2 8.2 7.6 8.2 4.4 0 7.6-3.4 7.6-8.2z"/>
	</g>
</svg>