<?xml version="1.0" encoding="utf-8"?>
<!-- Generator: Adobe Illustrator 24.1.2, SVG Export Plug-In . SVG Version: 6.00 Build 0)  -->
<svg version="1.1" id="Слой_1" xmlns="http://www.w3.org/2000/svg" xmlns:xlink="http://www.w3.org/1999/xlink" x="0px" y="0px"
	 viewBox="0 0 103 103" style="enable-background:new 0 0 103 103;" xml:space="preserve">
<g fill="#FFFFFF" stroke="none">
	<path d="M3.4,89.8c15.3-4.1,30.6-8.3,45.9-12.3c1.7-0.4,3.7-0.2,5.4,0.3c14.9,3.9,29.8,8,45.6,12.3c-2,0.6-3.1,1.1-4.3,1.4
		c-10.1,2.1-20.2,3.8-30.2,6.3c-14.1,3.5-27.6,0.3-41.3-2.5c-7.1-1.5-14.1-2.9-21.2-4.4C3.3,90.4,3.4,90.1,3.4,89.8z"/>
	<path d="M3,85.6c6-1.6,10.9-2.8,15.7-4.4c1.3-0.4,2.5-2.1,3.2-3.4c9-15.7,18-31.4,26.9-47.2c0.8-1.4,1.6-3.1,1.6-4.6
		c0.2-7.1,0.1-14.3-1-21.9C34.2,31,18.9,57.8,3,85.6z"/>
	<path d="M100.6,85.6c-6-1.6-11-2.8-15.8-4.4c-1.3-0.4-2.5-2.1-3.3-3.4c-9.1-15.7-18.2-31.4-27.1-47.2c-0.8-1.4-1.6-3.1-1.6-4.6
		c-0.2-7.1-0.1-14.3,1-21.9C69.2,31,84.6,57.8,100.6,85.6z"/>
	<path d="M59.3,63.1c-5.5,0-10.7,0-16,0c2.3-4.1,4.9-8.8,7.9-14.2C54.2,54.3,56.9,59,59.3,63.1z"/>
</g>
</svg>
