<?xml version="1.0" encoding="utf-8"?>
<!-- Generator: Adobe Illustrator 24.1.2, SVG Export Plug-In . SVG Version: 6.00 Build 0)  -->
<svg version="1.1" id="Слой_1" xmlns="http://www.w3.org/2000/svg" xmlns:xlink="http://www.w3.org/1999/xlink" x="0px" y="0px"
	 viewBox="0 0 448 448" style="enable-background:new 0 0 448 448;" xml:space="preserve">

<g>
	<g fill="#FFFFFF" stroke="none">
		<path d="M434.5,448c-140.3,0-280.6,0-421,0c0-149.3,0-298.5,0-448c140.3,0,280.6,0,421,0
			C434.5,149.3,434.5,298.6,434.5,448z M35.6,304.3c2.2,0.1,4.3,0.3,6.5,0.3c35.5,0,71,0.1,106.5,0c7.1,0,14.3-0.6,21.4-1.7
			c13.4-2.1,25.8-6.9,35.4-17c11.6-12.3,14.8-27.4,12.8-43.6c-2.2-18.1-11.5-28.2-29.2-32.3c-6.9-1.6-14.1-2.5-21.2-2.6
			c-19.5-0.4-39-0.4-58.5-0.3c-3.9,0-5.3-1-5.2-5c0.3-7.5,0.1-15,0.1-22.5c0-1.8,0.2-3.5,0.4-5.3c20.5,0,40.4,0,61,0
			c0,5.9,0.2,11.6-0.1,17.2c-0.2,3.9,1.2,5.3,5.1,5.2c10.8-0.2,21.7-0.2,32.5,0c4,0.1,5.5-1,5.5-5.3c-0.2-16-0.1-32-0.1-48
			c0-1.7-0.2-3.5-0.3-5.2c-57.9,0-115.2,0-172.4,0c0,12.5,0,24.5,0,37c8.7,0,17,0,25.5,0c0.2,1.3,0.5,2.3,0.5,3.2
			c0,28.2,0,56.4,0.1,84.5c0,3-1,4.1-4,4.1c-7.3-0.2-14.6-0.1-22.2-0.1C35.6,279.6,35.6,291.7,35.6,304.3z M415.6,221.7
			c-0.1-18.3-4.8-36.6-13.1-49.6c-17.8-27.7-44.1-38.6-76.1-37.8c-17.9,0.4-34.4,5.3-49,15.9c-34.9,25.4-41.6,80.2-22.6,114.9
			c18.2,33.4,54.5,47.1,89.6,41.4C387.8,299.4,415.7,265.6,415.6,221.7z M249.6,292.3c0-7.6-5.5-13.3-13.1-13.4
			c-7.3-0.1-13.4,5.8-13.5,13.1c-0.1,7.4,6.2,13.8,13.5,13.8S249.5,299.8,249.6,292.3z"/>
		<path d="M104.4,267.9c0-11.1,0-21.6,0-32.8c5.7,0,11.2-0.1,16.6,0c9.6,0.2,19.3,0.1,28.9,0.9
			c11.2,0.8,16.5,5.7,16.4,14.2c-0.1,9.8-6.8,17.2-17.3,17.6C134.4,268.2,119.8,267.9,104.4,267.9z"/>
		<path d="M290.4,221.2c1-10,2.5-19.5,7-28.2c7.9-15.2,21-20.4,37.4-19c14,1.2,25.7,10.9,30.3,25.3
			c4.7,14.7,4.5,29.5-0.2,44.1c-4.8,15-16.9,24.1-32.2,24.6c-18.8,0.5-31.3-6.7-37-22.6C293,237.7,292.1,229.3,290.4,221.2z"/>
	</g>
</g>
</svg>
