<?xml version="1.0" encoding="utf-8"?>
<!-- Generator: Adobe Illustrator 22.0.1, SVG Export Plug-In . SVG Version: 6.00 Build 0)  -->
<svg version="1.1" id="Слой_1" xmlns="http://www.w3.org/2000/svg" xmlns:xlink="http://www.w3.org/1999/xlink" x="0px" y="0px"
	 viewBox="0 0 1024 406.9" style="enable-background:new 0 0 1024 406.9;" xml:space="preserve">
<style type="text/css">
	.st0{fill:#FFFFFF;}
</style>
<g>
	<path class="st0" d="M160,14.8c1,0.6,2.1,0.5,3.1,0.6c5.1,0.4,10.1,1.1,15.1,2.2c14,3.1,26.9,8.9,38.8,16.9
		c13.4,8.9,24.7,20,34.5,32.7c0.2,0.3,0.4,0.6,0.4,1.1c-0.7-0.7-1.4-1.3-2.1-2c-10-9.7-21.2-17.6-34-23.2
		c-8.8-3.9-18.1-6.5-27.7-7.6c-17.4-2-34,0.8-49.9,8c-12.8,5.8-24,13.9-33.9,23.7C93.2,78.4,84.2,91.1,76.7,105
		c-8.5,16-14.4,32.9-18.3,50.5c-1.7,7.7-3,15.5-3.8,23.3c-1.1,10.2-1.5,20.5-1.2,30.7c0.1,4,0.4,8,0.7,12c0,0.5,0.1,1,0.4,1.4
		c0.1-0.7,0.1-1.4,0.2-2.1c0-1.8,0-3.6,0-5.4c0.1-35.9,22-67.6,54.4-81c7.5-3.1,15.2-5.1,23.3-6.1c4.2-0.5,8.3-0.6,12.5-0.6
		c34.1,0,68.1,0,102.2,0c1,0,2.1,0.1,3.3-0.3c-0.1-0.4-0.1-0.7-0.3-1c-9.4-14.6-21.1-26.8-36.7-34.9c-7.9-4.1-16.2-6.7-25.1-7.6
		c-12.5-1.3-24.5,0.8-36,6c-8.4,3.8-15.8,9-22.5,15.3c-0.6,0.5-1.2,1.1-1.9,1.4c0.2-0.3,0.4-0.6,0.7-0.9c7-8.8,15-16.5,24.4-22.7
		c9.4-6.2,19.6-10.6,30.8-12.6c6.7-1.2,13.5-1.5,20.3-0.9c14.9,1.4,28.3,6.8,40.4,15.5c10.9,7.8,19.9,17.6,27.4,28.7
		c2.5,3.7,4.6,7.6,6.9,11.3c0.3,0.5,0.6,1,0.8,1.5c0.3,0.7,0.9,0.9,1.6,0.9c1.1,0,2.1,0,3.2,0c76.8,0,153.7,0,230.5,0
		c75.5,0,151.1,0,226.6,0c1.6,0,3.1,0,4.7,0.1c6.9,0.7,12.4,6.5,12.8,13.5c0,0.7,0,1.5,0,2.2c0,36,0,72.1,0,108.1c0,1.5,0,3-0.4,4.4
		c-1.5,6.7-7,11.3-13.9,11.6c-1.2,0.1-2.5,0-3.7,0c-149.7,0-299.3,0-449,0c-1.2,0-2.5,0-3.5,0c-1,0.6-1.1,1.5-1.4,2.3
		c-3.3,8.6-7.3,16.9-12.1,24.7c-7,11.4-15.3,21.5-25.7,30c-9.4,7.7-19.8,13.4-31.5,16.8c-9.2,2.6-18.6,3.4-28,2.5
		c-13.4-1.3-25.6-6-36.9-13.4c-9.1-6-17-13.5-23.8-21.9c-0.2-0.2-0.4-0.5-0.6-1c0.8,0,1.1,0.5,1.5,0.9c3.3,3.1,6.8,5.9,10.6,8.4
		c8.5,5.8,17.8,9.9,27.9,11.8c6.2,1.2,12.4,1.5,18.6,0.9c13.6-1.2,25.7-6.2,36.7-14.2c9.7-7,17.6-15.7,24.3-25.6
		c4.2-6.2,7.8-12.8,10.8-19.6c0.3-0.6,0.5-1.2,0.7-1.8c0-0.1,0-0.3-0.1-0.5c-0.2-0.1-0.4-0.2-0.6-0.2c-65.1,0-130.2,0-195.3,0
		c-0.2,0-0.4,0.2-0.7,0.2c-0.3,1,0.2,1.8,0.5,2.6c3.4,10.5,7.5,20.7,12.6,30.4c7,13.3,15.4,25.6,25.9,36.4
		c9.8,10.1,20.8,18.6,33.4,24.8c9.1,4.5,18.7,7.6,28.8,9c18.6,2.7,36.5-0.2,53.5-8c12-5.5,22.5-13.1,32-22.3
		c0.6-0.6,1.2-1.1,2.1-2.1c-0.2,0.7-0.3,0.9-0.4,1c-11.2,14.5-24.3,26.9-40.1,36.3c-10.5,6.3-21.7,10.8-33.7,13.4
		c-3.9,0.8-7.7,1.5-11.7,1.8c-0.7,0.1-1.4,0.3-2.1,0.5c-5.6,0-11.2,0-16.7,0c-0.7-0.2-1.4-0.4-2.1-0.5c-2.8-0.4-5.7-0.7-8.5-1.2
		c-12.2-2.3-23.7-6.6-34.4-12.8c-13.8-7.8-25.6-18-36-29.9c-12-13.3-21.5-28.8-29-45.6c-6.9-15.4-11.9-31.4-15.2-48
		c-2-10.1-3.5-20.2-4.1-30.5c-0.2-3.1-0.4-6.2-0.6-9.3c-0.1-1.3-0.2-2.6-0.9-3.8c0-4.1,0-8.2,0-12.3c0.9-1.6,0.9-3.5,1-5.3
		c0.3-8.7,1.2-17.3,2.5-25.9c1.9-13.2,4.9-26.1,9-38.7c6.1-18.7,14.4-36.3,25.5-52.5c9.5-13.8,20.6-26.1,34-36.2
		c11.3-8.6,23.7-15.2,37.4-19.3c7.5-2.3,15.1-3.6,22.9-4.2c1-0.1,2.1-0.4,3.1-0.5C154.4,14.8,157.2,14.8,160,14.8z M190.3,77.1
		c-0.4-0.1-0.8-0.1-1.1-0.2c0,0.1,0,0.2,0,0.2C189.5,77.2,189.9,77.1,190.3,77.1c0.1,0.4,0.4,0.6,0.9,0.7c2.1,0.5,4.2,1,6.2,1.5
		c9.8,2.6,19.1,6.4,27.9,11.5c12.7,7.4,23.2,17.1,31.7,29c4.7,6.6,9,13.5,12.8,20.7c5.2,10,10.4,20.1,15.4,30.2
		c6.6,13.3,12.5,26.9,17.9,40.8c0.5,1.2,0.9,2.4,0.9,3.8c0,3.9,0.2,7.9,0.2,11.8c0.1,6,0.1,12,0.2,18c0,0.8-0.2,1.7,0.4,2.3
		c2,0.3,11.3,0.4,17,0.2c0.5,0,0.9-0.1,1.4-0.2c0.5-1,0.4-2,0.4-3c0-8.9,0-17.9,0-26.8c0-1.6,0.4-3,1.1-4.4
		c7.7-14.1,15.3-28.3,23-42.4c3.4-6.3,6.9-12.7,10.3-19.1c0.4-0.8,1-1.5,0.9-2.4c-2.2-0.4-16.8-0.3-18.9,0.1
		c-1.4,2.4-2.8,4.9-4.2,7.4c-1.5,2.6-2.9,5.1-4.4,7.7c-1.4,2.5-2.9,5-4.3,7.5c-1.5,2.6-2.9,5.1-4.4,7.7c-1.4,2.5-2.8,5-4.3,7.5
		s-2.8,5.2-4.4,7.5c-0.2-0.1-0.3-0.1-0.4-0.1c-0.5-0.8-0.9-1.5-1.4-2.3c-9.5-17.8-20-34.9-31.6-51.3c-6-8.6-12.1-17.2-18.6-25.4
		c-3.6-4.6-7.4-9-11.7-12.9C233.3,87,213,79.2,190.3,77.1z M555.5,149.4c-0.5-0.1-0.8-0.1-1.1-0.1c-5.2,0-10.3,0-15.5,0
		c-0.5,0-0.9,0.2-1.5,0.3c0,1.1,0,2.2,0,3.3c0,20.2,0,40.4,0,60.6c0,0.4,0,0.8,0,1.2s0.2,1-0.4,1.4c-0.5-0.6-1-1.2-1.5-1.9
		c-5.6-7.5-11.2-15-16.8-22.5c-10-13.3-19.9-26.7-29.9-40c-0.6-0.8-1.2-1.8-2.1-2.4c-5.6,0-11.2,0-16.7,0c-0.3,0-0.6,0.2-1,0.4
		c0,1.1,0,2.1,0,3.2c0,30.5,0,60.9,0,91.4c0,0.7,0,1.3,0,2c0,0.5,0.1,0.9,0.2,1.4c0.4,0.1,0.8,0.2,1.1,0.2c5.4,0,10.8,0,16.3,0
		c0.3,0,0.6-0.2,0.9-0.3c0.4-1.1,0.3-2.2,0.3-3.2c0-19.9,0-39.9,0-59.8c0-0.8,0-1.6,0-2.5c0-0.2,0.2-0.4,0.3-0.7
		c0.9,0.5,1.3,1.4,1.8,2.1c11.5,15.3,22.9,30.6,34.3,46c4.3,5.7,8.6,11.4,12.8,17.2c0.7,0.9,1.4,1.4,2.6,1.4c4.9-0.1,9.8,0,14.8,0
		c0.5,0,0.9-0.2,1.4-0.3c0.1-0.5,0.2-0.9,0.2-1.3c0-32,0-64,0-96C555.8,150,555.6,149.8,555.5,149.4z M141.8,195.7
		c1.1-0.5,1.9-0.8,2.6-1.1c6.9-3,11.2-8.1,12.8-15.4c0.5-2.4,0.6-4.9,0.4-7.3c-0.3-5-2.2-9.4-5.7-13c-2.1-2.2-4.5-3.9-7.1-5.2
		c-4.3-2.2-8.9-3.3-13.6-3.9c-3.8-0.5-7.7-0.5-11.6-0.4c-2.2,0.1-4.5,0.1-6.6,0.6c-15.4,3.1-25.9,12.1-31.1,27
		c-1.6,4.4-2,8.9-1.9,13.6c0,18.1,0,36.1,0,54.2c0,0.6,0,1.2,0,1.7s0.2,0.9,0.3,1.5c0.8,0.1,1.4,0.1,2.1,0.1c14.8,0,29.5,0,44.3,0
		c4.1,0,8.2-0.5,12.2-1.5c4.8-1.1,9.2-3,13.1-6c4.5-3.4,7.5-7.7,8.8-13.2c0.7-3,0.9-6,0.7-9c-0.4-5.4-2.2-10.2-5.8-14.4
		c-3.1-3.5-6.9-5.8-11.3-7.2C143.7,196.3,143,196,141.8,195.7z M241.4,215.2c0.9-0.5,1.7-0.9,2.5-1.3c7.8-4.2,12.9-10.5,15.3-19
		c1.8-6.5,2-13.1,0.8-19.7c-1.8-9.4-6.9-16.3-15.3-20.9c-3.1-1.7-6.4-2.8-9.9-3.6c-4.3-1-8.7-1.5-13.2-1.5c-8.5,0-16.9,0-25.4,0
		c-4.7,0-9.4,0-14,0c-0.8,0-1.6-0.2-2.5,0.5c0,0.8-0.1,1.7-0.1,2.6c0,30.9,0,61.7,0,92.6c0,0.5,0,1,0,1.5c0.1,0.5,0.2,0.9,0.3,1.3
		c0.4,0.1,0.6,0.2,0.9,0.2c5.5,0,11,0,16.5,0c0.4,0,0.8-0.2,1.3-0.3c0-0.9,0.1-1.7,0.1-2.5c0-2.9,0-5.7,0-8.6c0-5.1,0-10.2,0-15.3
		c0-0.7-0.2-1.5,0.5-2.2c8.2,0,16.6,0,25,0c0.5,0.8,0.9,1.6,1.4,2.3c4.7,8.1,9.4,16.1,14.2,24.2c0.4,0.8,0.9,1.5,1.4,2.2
		c0.8,0,1.4,0.1,2.1,0.1c6.2,0,12.5-0.1,18.7-0.1c0.1,0,0.2,0,0.2-0.1c0.1-0.1,0.1-0.1,0.2-0.4c-0.1-0.8-0.8-1.5-1.2-2.2
		c-6.1-9.2-12.2-18.3-18.2-27.5C242.4,216.9,242,216.1,241.4,215.2z M716,191.1c0.2-0.4,0.2-0.5,0.3-0.6c12-13.3,24-26.5,36.1-39.8
		c0.1-0.1,0.2-0.2,0.3-0.4c0.1-0.1,0.2-0.3,0.3-0.4c0-0.1,0.1-0.2,0.1-0.2c0-0.1,0-0.1-0.1-0.4c-0.7-0.3-1.5-0.2-2.3-0.2
		c-5.6,0-11.2,0-16.7,0c-3,0-2.4-0.3-4.4,2c-8.9,9.9-17.8,19.7-26.8,29.6c-4.7,5.2-9.4,10.3-14.1,15.5c-0.3,0.4-0.6,1.1-1.5,0.7
		c0-0.8,0-1.7,0-2.6c0-13.7,0-27.4,0-41.1c0-0.7,0-1.5,0-2.2c0-0.5-0.2-1.1-0.3-1.6c-0.5-0.1-0.8-0.2-1.1-0.2c-5.4,0-10.8,0-16.3,0
		c-0.5,0-0.9,0.2-1.5,0.4c0,1.1,0,2,0,3c0,30.5,0,61.1,0,91.6c0,0.7,0,1.3,0,2c0,0.5,0.2,0.9,0.3,1.4c0.5,0.1,0.9,0.2,1.3,0.2
		c5.5,0,11,0,16.5,0c0.2,0,0.5-0.1,0.7-0.2c0.6-0.8,0.4-1.8,0.4-2.7c0-6.8,0-13.6,0-20.4c0-1.3,0.3-2.3,1.2-3.3
		c4.3-4.7,8.6-9.5,12.9-14.2c0.3-0.3,0.7-0.6,1.2-1c0.8,1,1.5,2,2.1,2.9c9,12.3,18.1,24.6,27.1,36.9c0.5,0.7,1.1,1.4,1.7,2.1
		c6.8,0,13.4,0,20.1,0c0.6,0,1.1,0,1.7-0.1c0.1,0,0.2,0,0.2-0.1c0.1,0,0.1-0.1,0.2-0.4c-0.2-0.9-0.9-1.6-1.4-2.4
		c-12.2-17.2-24.4-34.4-36.5-51.6C717,192.6,716.5,191.8,716,191.1z M456.8,247.8c0-1.4-0.6-2.2-1-3.1c-7.5-17.4-15-34.8-22.6-52.2
		c-5.9-13.5-11.7-27.1-17.6-40.6c-0.4-0.9-0.6-1.9-1.4-2.6c-6.4,0-12.8,0-19.1,0c-0.9,0.9-1.2,2.1-1.7,3.1
		c-11.1,25.2-22.1,50.5-33.2,75.7c-2.5,5.7-5,11.4-7.5,17.1c-0.3,0.7-0.9,1.4-0.5,2.4c2.1,0.4,4.2,0.1,6.3,0.2c2.1,0,4.3,0,6.4,0
		s4.2,0.1,6.4-0.1c0.4-0.8,0.7-1.6,1.1-2.3c2.3-5.4,4.5-10.7,6.8-16.1c0.3-0.7,0.5-1.6,1.2-2.1c2.8-0.3,45.6-0.2,47.7,0.1
		c0.3,0.7,0.6,1.4,1,2.1c2.3,5.4,4.5,10.7,6.8,16.1c0.3,0.7,0.5,1.6,1.4,2.3C443.5,247.8,450.1,247.9,456.8,247.8z M571.1,233.1
		c0.2,0.3,0.4,0.5,0.5,0.7c0.5,0.4,1,0.9,1.5,1.3c9.5,7.3,20.1,12,32,13.4c7.1,0.9,14.1,0.6,21-1.1c5.3-1.3,10.2-3.5,14.5-7
		c4.1-3.4,7-7.6,8.5-12.7c1.3-4.2,1.4-8.4,0.9-12.7c-0.6-5.1-2.7-9.6-6.4-13.3c-2.8-2.8-6-5.1-9.7-6.6c-4.5-2-9.2-3.5-13.9-5
		c-3.9-1.2-7.8-2.5-11.7-3.9c-2.1-0.7-4.1-1.7-5.9-3.1c-1-0.8-2.1-1.7-2.9-2.7c-3.6-4.4-2.3-10.5,2.6-13.2c0.9-0.5,1.8-0.9,2.7-1.1
		c1.8-0.4,3.7-0.8,5.6-0.9c3.6-0.3,7.2,0.3,10.7,1.2c6.3,1.5,12.2,3.9,17.8,7c0.8,0.4,1.6,0.8,2.3,1.2c1.2-1.6,7-14.1,7.6-16.3
		c-0.1-0.1-0.2-0.3-0.3-0.4c-0.6-0.4-1.2-0.8-1.9-1.2c-8.2-4.7-16.9-7.5-26.2-8.6c-6.8-0.8-13.6-0.5-20.3,1.1c-4.7,1.1-9,3-12.9,5.8
		c-5.2,3.8-8.6,8.7-10.1,15c-1,4.3-0.9,8.6,0.1,12.9c0.8,3.8,2.6,7.1,5.2,9.9c2.9,3.1,6.3,5.5,10.2,7.2c5.6,2.4,11.4,4.2,17.2,5.9
		c3.4,1,6.7,2.2,10,3.4c2.5,0.9,4.7,2.3,6.6,4.2c1.3,1.3,2.3,2.8,2.6,4.6c0.7,4.2,0,7.9-4.6,10.8c-2.3,1.5-5,2.2-7.7,2.5
		c-4.9,0.5-9.7,0.1-14.4-1.2c-8.1-2.3-15.4-6.1-21.8-11.6c-0.6-0.5-1.1-1.2-1.9-1.4C577.8,218.8,571.9,230.6,571.1,233.1z"/>
	<path class="st0" d="M1007.8,236.4c-0.2,0.3-0.4,0.6-0.4,0.9c-0.6,3.3-2.7,5.6-5.3,7.4c-2,1.4-4.3,2.3-6.8,2.8
		c-9.7,1.8-18.4-0.6-26-6.7c-0.1-0.1-0.2-0.3-0.3-0.4c0.4-1.6,2-5.2,3.6-7.6c0.6,0.4,1.2,0.8,1.7,1.2c3.1,2.4,6.5,4.1,10.3,5.1
		c2.7,0.7,5.5,1,8.3,0.3c1-0.3,2-0.7,2.9-1.3c2.7-1.8,3-5.4,0.7-7.7c-0.9-1-2-1.7-3.3-2.1c-1.9-0.7-3.7-1.3-5.6-1.9
		c-2.7-0.9-5.4-1.9-8.1-2.9c-1.8-0.7-3.3-1.8-4.6-3.2c-2.6-2.6-3.5-5.9-3.2-9.5c0.3-4.5,2.5-7.9,6.3-10.2c2.3-1.4,4.9-2.3,7.6-2.6
		c7-0.9,13.7,0.3,20,3.7c0.6,0.3,1.1,0.7,1.6,1c-0.3,1.9-2.2,6.1-3.6,7.9c-0.7-0.3-1.4-0.7-2.1-1.1c-2.7-1.4-5.6-2.4-8.5-3.1
		c-1.9-0.4-3.8-0.5-5.6-0.3c-1,0.1-2.1,0.4-3,0.9c-2.8,1.4-3.4,4.6-1.3,7c0.9,1.1,2.1,1.9,3.4,2.4c1.5,0.6,3.1,1.1,4.6,1.7
		c2.9,1,5.8,1.9,8.6,3c1.9,0.7,3.5,1.8,4.9,3.2s2.6,2.9,2.9,5c0,0.2,0.3,0.3,0.5,0.5C1007.8,232.2,1007.8,234.3,1007.8,236.4z"/>
	<path class="st0" d="M892,198.7c3.2,0,6.2,0,9.2,0c0.8,0.6,0.8,1.6,1.1,2.4c2.7,8.9,5.3,17.8,7.9,26.6c0.7,2.5,1.5,5,2.3,7.5
		c0.1,0.5,0.3,0.9,0.5,1.3c0.8-0.1,0.8-0.6,0.9-1.1c1.6-5.4,3.2-10.8,4.8-16.3c1.8-6.1,3.6-12.1,5.4-18.2c0.2-0.8,0.5-1.5,0.7-2.2
		c2.1-0.3,6.7-0.3,9.1,0c3.8,12.6,7.5,25.4,11.4,38.2c0.8-0.5,0.8-1.1,1-1.7c2.4-8.3,4.9-16.7,7.3-25c1-3.3,1.9-6.6,2.9-9.9
		c0.2-0.5,0.4-1.1,0.6-1.6c2.1-0.4,7.1-0.4,9.1,0c0,0.2,0.1,0.5,0,0.7c-5.4,15.9-10.8,31.8-16.1,47.7c-1.9,0.5-6.4,0.5-9.6,0.2
		c-0.2-0.6-0.5-1.3-0.7-1.9c-3.2-10.7-6.5-21.4-9.7-32c-0.2-0.8-0.5-1.5-0.8-2.3c-0.8,0.2-0.8,0.8-1,1.3c-2,6.3-3.9,12.7-5.9,19
		c-1.4,4.7-2.9,9.4-4.4,14.1c-0.2,0.6-0.4,1.2-0.7,1.9c-3.1,0.1-6.1,0.1-9.2,0c-0.3-0.7-0.6-1.3-0.8-1.9
		C901.6,229.1,892.4,201.1,892,198.7z"/>
	<path class="st0" d="M838.5,247.5c-2.8,0.3-5.5,0.1-8.3,0.1c-0.5-0.7-1.1-1.3-1.6-2.1c-7.2-9.7-14.4-19.3-21.7-29
		c-0.5-0.7-1-1.5-1.7-2c-0.7,0.4-0.5,1.1-0.5,1.6c0,3.9,0,7.7,0,11.6c0,5.7,0,11.3,0,17c0,0.8,0,1.6,0,2.3c-1,0.9-2,0.5-3,0.6
		s-2,0-3,0s-2,0.2-2.9-0.3c-0.1-0.4-0.2-0.7-0.2-1c0-15.7,0-31.5,0-47.3c0.4-0.1,0.7-0.4,0.9-0.4c2.5,0,5.1,0,7.7,0
		c0.6,0.8,1.2,1.5,1.8,2.3c7.3,9.7,14.5,19.4,21.8,29.2c0.5,0.6,0.8,1.4,1.8,1.7c0.3-1,0.2-1.9,0.2-2.7c0-9.2,0-18.4,0-27.6
		c0-0.9-0.1-1.8,0.3-2.8c2.8-0.2,5.5-0.2,8.1,0c0.2,0.2,0.3,0.3,0.3,0.3c0,0.1,0.1,0.2,0.1,0.2c0,0.6,0.1,1.1,0.1,1.7
		c0,15.3,0,30.5,0,45.8C838.7,246.9,838.6,247.1,838.5,247.5z"/>
	<path class="st0" d="M884.1,219.4c0,2.5,0.2,4.9-0.1,7.5c-2.6,0.2-5.2,0.1-7.7,0.1c-2.6,0-5.3,0-7.9,0c-2.5,0-5.1,0-7.6,0
		c-0.2,0.4-0.4,0.6-0.4,0.8c0,3.8,0,7.5,0,11.3c0.8,0.8,1.8,0.5,2.7,0.5c7.1,0,14.1,0,21.2,0c0.7,0,1.5,0,2.2,0
		c0.3,0,0.6,0.1,0.9,0.2c0.5,2,0.5,5.6,0,7.7c-0.3,0.1-0.7,0.2-1.1,0.2c-5.5,0.2-32.7,0.1-34.9-0.2c-0.1-0.4-0.2-0.9-0.2-1.3
		c0-0.6,0-1.1,0-1.7c0-14.1,0-28.2,0-42.4c0-1,0-2,0-2.8c1-0.8,1.9-0.5,2.8-0.5c7.4,0,14.8,0,22.2,0c2.8,0,5.6,0,8.4,0
		c0.7,0,1.4,0.1,2.1,0.1c0.5,1.9,0.5,5.6,0,7.7c-0.8,0.4-1.7,0.2-2.6,0.2c-6.9,0-13.8,0-20.7,0c-0.9,0-1.8,0.1-2.7,0.1
		c-0.4,1.4-0.2,2.7-0.3,4c0,1.3,0,2.6,0,3.9c0,1.3-0.1,2.6,0.2,3.9c0.9,0.4,1.8,0.3,2.7,0.3c6,0,12,0,18,0
		C882.1,218.9,883,218.8,884.1,219.4z"/>
	<path class="st0" d="M293.3,310.7c-1.6,0.2-2.9,0.3-4.3,0c-0.7-2.2-3.9-23-3.9-25.6c1.3-0.4,2.7-0.2,4.2-0.1
		c0.7,3.4,0.8,6.7,1.3,10c0.4,3.2,0.7,6.4,1.1,9.6c1.1,0,1.1-0.8,1.3-1.2c1.6-3.7,3.1-7.4,4.6-11.1c0.7-1.8,1.5-3.6,2.3-5.5
		c0.3-0.6,0.5-1.2,0.8-1.8c1.4-0.3,2.6-0.3,4.1,0c0.7,3.3,0.8,6.7,1.3,10s0.6,6.6,1.4,9.9c1.8-3.2,3-6.6,4.4-9.9s2.8-6.6,4.1-10
		c1.4-0.2,2.6-0.2,3.7-0.1c0.6,0.8,0,1.3-0.2,1.9c-2.3,5.2-4.7,10.5-7.1,15.7c-0.9,2.1-1.9,4.2-2.8,6.3c-0.3,0.7-0.7,1.3-1,2
		c-1.5,0-2.8,0-4.4,0c-0.7-3.2-0.8-6.4-1.2-9.5c-0.4-3.1-0.6-6.2-1.1-9.2c-0.9,0-1,0.7-1.2,1.2c-2.1,5-4.2,10-6.3,14.9
		C294.1,308.9,293.7,309.7,293.3,310.7z"/>
	<path class="st0" d="M783.3,238.7c-0.2,1.2-0.3,2.4-0.7,3.6c-1.3,4.2-4.8,6.5-9.3,6.5c-4,0-7.6-3-8.7-7.1c-0.4-1.6-0.5-3.2-0.2-4.9
		c0.9-5,5-8.4,9.9-8c5.2,0.4,8.8,4.1,8.9,9.3C783.2,238.3,783.2,238.4,783.3,238.7C783.2,238.6,783.3,238.6,783.3,238.7z"/>
	<path class="st0" d="M573.9,310.6c-1.7,0.4-3,0.2-4.5,0.2c-1.2-2.4-1.7-5-2.9-7.4c-2.1-0.3-4.1-0.2-6.2-0.1c-1,2.3-0.9,4.8-1.7,7.2
		c-1.2,0.5-2.5,0.3-3.9,0.1c0.1-0.8,0-1.5,0.2-2.2c1.3-7.1,2.6-14.2,3.9-21.3c0.1-0.7,0.4-1.4,0.6-2.2c0.6-0.1,1-0.1,1.5-0.1
		c2.7,0,5.4,0,8.1,0c1.1,0,2.3,0.2,3.4,0.5c2.4,0.7,3.9,2.2,4.5,4.7c1,4.3-0.8,9-4.5,11.4c-0.5,0.3-1,0.6-1.5,1
		c0.1,0.5,0.2,1,0.4,1.4c0.6,1.6,1.3,3.2,2,4.8C573.4,309.2,573.6,309.8,573.9,310.6z M561.2,298.7c1.4,0.4,5.4,0.5,6.8,0.2
		c0.3-0.1,0.6-0.2,1-0.3c2.4-0.7,3.6-2.4,3.9-4.8c0.3-2.9-1.1-4.6-4-4.8c-1.6-0.1-3.1,0-4.7,0c-0.5,0-0.9,0.1-1.3,0.2
		C562,291.8,561.1,296.8,561.2,298.7z"/>
	<path class="st0" d="M409.9,284.9c1,0,1.8,0,2.6,0c0.3,0,0.6,0.1,1,0.1c0.5,0.9,0.1,1.8,0,2.7c-0.3,2.1-0.8,4.2-1.2,6.3
		c-0.1,0.6-0.1,1.1-0.2,1.8c2,0.6,3.9,0.3,5.9,0.3s3.9,0.2,6-0.2c1.1-3.5,1.3-7.3,2.3-10.9c1.3-0.4,2.6-0.3,3.8-0.1
		c0.1,0.3,0.2,0.4,0.2,0.5c-1.5,8.3-2.9,16.6-4.4,24.9c-1.8,0.6-2.2,0.7-4.2,0.1c0.2-3.3,1.3-6.5,1.5-9.8c-1.9-0.5-8.9-0.5-11.8-0.2
		c-0.4,0.7-0.5,1.6-0.7,2.5c-0.4,2-0.7,4-1.1,6.1c-0.1,0.5-0.3,1.1-0.5,1.7c-1.3,0-2.5,0-3.8,0c-0.2-1,0-1.8,0.2-2.7
		c1.3-7.2,2.6-14.4,3.9-21.5C409.5,286.1,409.7,285.6,409.9,284.9z"/>
	<path class="st0" d="M327.2,310.6c1.5-8.6,3-17,4.6-25.5c1.5-0.4,2.9-0.2,4.2-0.2c1.4,0,2.8,0,4.2,0c1.4,0,2.8,0,4.2,0
		c1.4,0,2.8-0.2,4.1,0.2c0.3,1.3,0,2.5-0.4,3.7c-0.6,0.1-1.2,0.2-1.7,0.2c-2.8,0-5.6,0-8.4,0c-0.8,0-1.6,0.1-2.4,0.1
		c-0.8,1.9-1.3,4.3-1.2,6.3c0.6,0.5,1.4,0.3,2.1,0.3c2.3,0,4.6,0,6.9,0c0.6,0,1.3,0.1,2,0.2c0.1,1.4-0.3,2.5-0.6,3.8
		c-0.6,0.1-1.2,0.2-1.7,0.2c-2.4,0-4.8,0-7.1,0c-0.8,0-1.6,0.1-2.4,0.1c-0.9,2.2-1.3,4.8-1.1,6.7c2.1,0.3,4.2,0.1,6.3,0.2
		c2,0.1,4.1-0.2,6.2,0.2c0.2,1.4-0.1,2.5-0.5,3.6c-2,0.4-10.5,0.5-15.8,0.3C328.3,310.9,327.8,310.7,327.2,310.6z"/>
	<path class="st0" d="M512.1,306.6c2.4,0.5,4.5,0.2,6.6,0.3c2,0.1,4.1-0.1,6.1,0.1c0.3,1.4-0.2,2.4-0.4,3.6
		c-0.5,0.1-0.9,0.3-1.4,0.3c-4.8,0-9.7,0-14.5,0c-0.5,0-0.9-0.1-1.4-0.2c0.1-2.1,3.8-22.9,4.6-25.5c1.8-0.5,3.7-0.2,5.5-0.2
		c1.8-0.1,3.6,0,5.4,0c1.9,0,3.7,0,5.6,0c0.3,2,0.3,2-0.5,4c-2,0.2-4,0.1-6.1,0.1c-2,0-4.1,0-6,0c-1,1.7-1.5,4.3-1.3,6.6
		c1.8,0.2,3.7,0.1,5.6,0.1c1.8,0,3.6-0.1,5.4,0.1c0,1.5-0.3,2.6-0.6,3.9c-3.8,0.4-7.5,0-11.3,0.2C512.4,302,512.3,304.2,512.1,306.6
		z"/>
	<path class="st0" d="M605.1,299.7c-1.9,0.4-3.8,0.1-5.6,0.2c-1.9,0.1-3.7-0.1-5.7,0.1c-0.7,2.1-0.9,4.2-1.2,6.5
		c0.6,0.1,1.2,0.3,1.7,0.3c2.9,0,5.7,0,8.6,0c0.8,0,1.6,0.1,2.6,0.1c0.1,1.3-0.2,2.5-0.5,3.7c-0.4,0.1-0.7,0.2-1,0.2
		c-5.2,0-10.3,0-15.5,0c-0.2,0-0.4-0.2-0.7-0.3c0-0.4-0.1-0.8,0-1.2c1.5-8.1,2.9-16.1,4.4-24.2c2-0.5,3.9-0.2,5.7-0.3
		c1.8-0.1,3.6,0,5.4,0c1.9,0,3.8,0,5.6,0c0.3,1.7,0.3,1.7-0.5,4c-4.1,0.3-8.3-0.1-12.5,0.2c-0.7,2.1-1,4.2-1.2,6.3
		c1.9,0.6,3.7,0.2,5.4,0.3c1.8,0.1,3.6-0.1,5.5,0.1C606,297.3,605.6,298.5,605.1,299.7z"/>
	<path class="st0" d="M480.9,303.4c-0.9,2.4-0.8,4.9-1.7,7.3c-0.7,0-1.3,0.1-2,0.1c-0.6,0-1.1-0.1-1.7-0.1c-0.4-0.8-0.2-1.6,0-2.3
		c1.3-7.1,2.6-14.2,3.9-21.3c0.1-0.7,0.4-1.4,0.5-2.2c0.5-0.1,0.9-0.2,1.3-0.2c2.8,0,5.6,0,8.4,0c1.1,0,2.1,0.2,3.1,0.5
		c2.3,0.6,3.8,2.1,4.4,4.5c1.5,5.9-2.2,11.9-8.2,13c-1.1,0.2-2.3,0.3-3.4,0.3c-1.1,0.1-2.1,0-3.2,0
		C481.8,303.3,481.4,303.4,480.9,303.4z M481.9,298.7c2,0.4,5.5,0.4,7.1,0c2.6-0.7,4-2.5,4.2-5.1c0.2-2.8-1.1-4.4-3.9-4.6
		c-1.5-0.1-2.9-0.1-4.4,0c-0.5,0-0.9,0.2-1.5,0.3c-0.5,3-1.1,5.8-1.6,8.7C481.7,298.3,481.8,298.5,481.9,298.7z"/>
	<path class="st0" d="M393.7,287.4c-0.6,1.2-1.2,2.4-1.9,3.7c-0.7-0.3-1.3-0.6-1.8-0.8c-1.5-0.7-3-1.3-4.7-1.3
		c-0.9,0-1.8,0.1-2.6,0.4c-1.9,0.8-2.2,3.1-0.8,4.4c0.5,0.5,1.2,0.8,1.9,1.1c1,0.4,2,0.7,3,1.1c0.9,0.4,1.8,0.7,2.7,1.2
		c2,1.2,3,2.9,3,5.3c0,3.8-2,6.9-5.7,8.1c-5,1.6-9.4,0.5-13.1-3.1c-0.1-0.1-0.1-0.3-0.2-0.5c0.5-1.2,1.1-2.5,2-3.6
		c0.7,0.6,1.4,1.1,2,1.5c1.9,1.3,3.9,2.2,6.2,2c0.9-0.1,1.8-0.3,2.5-0.8c1.8-1,2.1-3.6,0.2-4.9c-0.7-0.5-1.6-0.9-2.4-1.2
		c-1.2-0.5-2.5-0.9-3.7-1.4c-3.7-1.5-5.1-4.3-3.6-8.9c0.5-1.7,1.7-2.9,3.2-3.9C384.1,283.4,391,284.5,393.7,287.4z"/>
	<path class="st0" d="M452.6,284.9c1.5,0,2.8,0,4.2,0c0.2,0.4,0.5,0.9,0.6,1.3c1.8,7.6,3.7,15.1,5.5,22.7c0.1,0.5,0.2,1.1,0.3,1.7
		c-1.5,0.4-2.8,0.3-4.3,0.1c-0.5-1.7-0.9-3.4-1.4-5c-2-0.4-9.1-0.4-11.9-0.1c-0.5,0.8-1,1.7-1.5,2.6s-0.9,1.7-1.4,2.6
		c-1.3,0-2.5,0-3.7,0c-0.4-0.9,0.2-1.5,0.5-2c3-5.5,6-10.9,8.9-16.4c1-1.9,2-3.7,3.1-5.6C451.9,286.2,452.2,285.6,452.6,284.9z
		 M453.9,290.4c-1.1,1.5-4.8,8.1-5.6,10.2c0,0.1,0.1,0.3,0.1,0.4c2.3,0.5,6.2,0.4,7.9-0.1C456.2,298.8,454.8,292.6,453.9,290.4z"/>
	<path class="st0" d="M634.1,285c2.2,8.3,4,16.5,6.1,24.7c0.1,0.3,0,0.6,0,1c-1.4,0.4-2.7,0.3-3.9,0.1c-0.9-0.8-0.7-1.9-1.1-2.8
		c-0.3-0.8-0.2-1.8-1-2.6c-3.7,0-7.4,0-11.3,0c-1.3,1.6-1.9,3.6-3.1,5.3c-1.3,0.3-2.6,0.3-3.9,0c0-0.3,0-0.6,0.1-0.8
		c4.5-8.3,9-16.6,13.5-24.9C631,284.7,632.4,284.9,634.1,285z M631,290.2c-0.5,0.5-0.7,0.7-0.8,0.9c-1.6,3-3.2,5.9-4.7,8.9
		c-0.2,0.3-0.1,0.7-0.2,1.1c2.5,0.4,6.2,0.3,8-0.1c0-0.4,0.1-0.8,0-1.2C632.6,296.8,632.1,293.6,631,290.2z"/>
	<path class="st0" d="M749.4,284.8c-0.5,1-0.8,1.5-1.1,2.1c-2.8,4.4-5.6,8.9-8.5,13.2c-1,1.5-1.6,3-1.8,4.7
		c-0.2,1.9-0.5,3.7-0.8,5.5c-1.6,0.6-1.6,0.6-4,0.3c0-0.5-0.1-1.1-0.1-1.6c0.2-1.5,0.4-3.1,0.7-4.6c0.3-1.3,0.2-2.6-0.3-3.8
		c-1.7-4.6-3.3-9.3-4.9-13.9c-0.2-0.5-0.3-0.9-0.4-1.4c1.4-0.6,1.4-0.6,4-0.3c0.2,0.5,0.5,1.1,0.8,1.7c1.1,2.9,2.2,5.8,3.3,8.8
		c0.2,0.5,0.5,1,0.8,1.6c1.8-2,2.9-4.1,4.3-6.1c1.4-1.9,2.6-3.9,3.9-5.9C746.5,284.7,747.7,284.9,749.4,284.8z"/>
	<path class="st0" d="M706.4,289.1c-2.6,0-4.8-0.1-7-0.1c-0.1-1.7-0.1-2.2,0.6-4.1c1.5-0.2,3-0.1,4.5-0.1c1.6,0,3.1,0,4.7,0
		c1.6,0,3.1,0,4.7,0c1.5,0.1,3.1-0.2,4.6,0.3c0.2,1.3,0.1,2.5-0.5,3.8c-2.3,0.5-4.7,0-7.1,0.4c-0.2,0.8-0.5,1.5-0.6,2.3
		c-1,5.6-2.1,11.3-3.1,16.9c-0.1,0.7-0.3,1.4-0.5,2.2c-1.3,0.4-2.6,0.3-4.1,0.1c0.4-3.7,1.2-7.1,1.8-10.7
		C705.1,296.5,705.8,293,706.4,289.1z"/>
	<path class="st0" d="M657.6,306.4c3.2,0.6,6.4-0.1,9.5,0.4c0.1,0.2,0.2,0.4,0.2,0.5c-0.2,1.1-0.3,2.1-0.5,3.2
		c-0.4,0.1-0.8,0.3-1.2,0.3c-4,0-8,0-12.1,0c-0.3,0-0.6-0.1-1.1-0.2c0.2-2.9,0.9-5.7,1.4-8.5c0.5-2.9,1-5.8,1.6-8.7
		c0.6-2.8,0.9-5.7,1.7-8.4c1.3-0.3,2.5-0.2,3.8-0.1c0,0.7,0.1,1.4,0,2c-1,5.6-2,11.1-3.1,16.7C657.6,304.5,657.3,305.4,657.6,306.4z
		"/>
	<path class="st0" d="M679.2,310.8c0-0.5,0-0.8,0-1.1c1.4-8,2.9-15.9,4.3-23.9c0-0.2,0.2-0.4,0.4-0.7c1.2-0.3,2.3-0.2,3.5-0.1
		c0.6,0.8,0.3,1.6,0.2,2.2c-1.3,7.4-2.7,14.8-4,22.2c-0.1,0.4-0.3,0.8-0.4,1.2C681.8,311.1,680.5,310.9,679.2,310.8z"/>
	<path class="st0" d="M190.3,77.1c-0.4,0-0.8,0.1-1.2,0.1c0-0.1,0-0.2,0-0.2C189.5,77,189.9,77.1,190.3,77.1L190.3,77.1z"/>
	<path class="st0" d="M99.3,231c-0.3-2.2-0.3-23.1,0-25.3c0.4-0.1,0.9-0.2,1.3-0.2c8,0,16.1,0,24.1,0c2.8,0,5.6,0.4,8.2,1.4
		c1.4,0.6,2.9,1.3,4.1,2.1c6.4,4.3,5.8,13.8,0.8,18c-1.6,1.3-3.4,2.3-5.4,2.9c-2.8,1-5.8,1.3-8.7,1.3c-7.5,0.1-15.1,0-22.6,0
		C100.6,231.3,99.9,231.1,99.3,231z"/>
	<path class="st0" d="M99.3,189.3c-0.4-2.5-0.3-21.1,0-23.1c0.7-0.6,1.5-0.4,2.3-0.4c3.4,0,6.9,0,10.3,0s6.9,0,10.3,0
		c2.4,0,4.8,0.1,7.1,0.7c0.2,0.1,0.5,0.1,0.7,0.2c8.1,2.6,9.1,9.2,7.6,14.3c-0.6,2.3-2,4.1-4,5.5c-1.9,1.4-4.1,2.2-6.3,2.5
		c-1.6,0.3-3.3,0.4-4.9,0.4c-7.1,0-14.1,0-21.2,0C100.8,189.4,100.1,189.3,99.3,189.3z"/>
	<path class="st0" d="M198.9,166.2c0.5-0.1,1.1-0.2,1.6-0.2c7.4,0,14.8,0,22.2,0c3.1,0,6,0.5,8.9,1.5c6.6,2.3,10.1,6.9,10.7,13.9
		c0.2,2.7,0.1,5.4-0.5,8.1c-1.2,4.6-3.9,7.9-8.1,10c-2.9,1.4-6,2.1-9.2,2.4c-2,0.1-3.9,0.1-5.9,0.1c-5.7,0-11.3,0-17,0
		c-0.9,0-1.8,0.2-2.6-0.3c-0.1-0.3-0.2-0.5-0.2-0.8c0-11.3,0-22.7,0-34C198.7,166.8,198.8,166.5,198.9,166.2z"/>
	<path class="st0" d="M404.2,170.5c0.1,0.1,0.3,0.2,0.4,0.3c5.4,12.9,10.7,25.9,16.1,38.8c0.1,0.2,0.1,0.5,0.1,0.7
		c-0.2,0.1-0.3,0.3-0.4,0.3c-10.7,0-21.5,0-32.2,0c-0.2,0-0.4-0.1-0.6-0.2c-0.3-0.6,0-1,0.2-1.4
		C393.2,195.3,403.1,172.1,404.2,170.5z"/>
</g>
</svg>
