<svg width="36" height="36" fill="none" xmlns="http://www.w3.org/2000/svg"><mask id="a" style="mask-type:alpha" maskUnits="userSpaceOnUse" x="0" y="0" width="36" height="36"><path d="M18.379 35.563c9.677 0 17.523-7.845 17.523-17.523S28.056.517 18.379.517C8.7.517.855 8.362.855 18.04S8.701 35.563 18.38 35.563z" fill="#fff"/></mask><g mask="url(#a)"><path d="M18.379 35.563c9.677 0 17.523-7.845 17.523-17.523S28.056.517 18.379.517C8.7.517.855 8.362.855 18.04S8.701 35.563 18.38 35.563z" fill="#434343"/><path fill-rule="evenodd" clip-rule="evenodd" d="M27.816 4.944c-.305.141-3.95-.131-5.273 2.842-1.324 2.974.342 4.73 0 5.437-.343.706-.54 2.318.54 3.545 1.08 1.227 1.41 1.785 1.837 2.245.003.672.003 1.825 0 3.459-5.093 1.887-8.188 3.817-9.287 5.79-1.648 2.96-1.732 7.609.288 8.774 1.347.776 5.312.385 11.895-1.174.203-20.706.203-31.012 0-30.918z" fill="#DBDBDB"/><path fill-rule="evenodd" clip-rule="evenodd" d="M27.857 4.944c.305.141 3.95-.131 5.274 2.842 1.324 2.974-.343 4.73 0 5.437.342.706.54 2.318-.54 3.545-1.081 1.227-1.41 1.785-1.837 2.245-.004.672-.004 1.825 0 3.458 6.256 2.223 9.384 4.34 9.384 6.352 3.738 2.113 3.738 3.547 0 4.302-3.737.755-7.83.755-12.28 0-.204-17.669-.204-28.275 0-28.181z" fill="#DBDBDB"/><path d="M1.572 17.402h14.406m-5.083-5.361l5.365 5.366-5.366 5.365" stroke="#DBDBDB" stroke-width="1.3" stroke-linecap="round"/></g></svg>