<?xml version="1.0" encoding="utf-8"?>
<!-- Generator: Adobe Illustrator 22.0.1, SVG Export Plug-In . SVG Version: 6.00 Build 0)  -->
<svg version="1.1" id="Слой_1" xmlns="http://www.w3.org/2000/svg" xmlns:xlink="http://www.w3.org/1999/xlink" x="0px" y="0px"
	 viewBox="0 0 727 206.5" style="enable-background:new 0 0 727 206.5;" xml:space="preserve">
<style type="text/css">
	.st0{fill:#FFFFFF;}
</style>
<g>
	<path class="st0" d="M308.9,10.9c0,1.1,0.1,2.1,0.1,3.2c0,59.5,0,118.9,0,178.4c0,1.1-0.1,2.1-0.1,3.2c-98.6,0-197.3,0-296,0
		c0-61.5,0-123.1,0-184.7C111.6,10.9,210.2,10.9,308.9,10.9z M174.5,101.2c0.2,0,0.3,0,0.5,0c0.1,0.7,0.2,1.3,0.2,2
		c0,10.1,0,20.3,0,30.4c0,2,0.5,2.5,2.5,2.5c5.3,0,10.6,0,15.9,0c2.4,0,3.2-0.7,3.2-3.2c0-21,0-42,0-63c0-2.3-0.8-3.1-3.1-3.1
		c-5.5,0-10.9,0-16.4,0c-1.4,0-2.5,0.5-3.2,1.7c-3,4.8-6.1,9.6-9.1,14.4c-1.5,2.3-3,4.6-4.7,7.1c-1.4-2.2-2.7-4.1-3.9-6
		c-3.2-5.2-6.3-10.4-9.6-15.6c-0.7-1.1-1.7-1.6-3.1-1.6c-5.7,0.1-11.4,0-17.1,0c-2.2,0-2.6,0.4-2.6,2.6c0,21.4,0,42.7,0,64.1
		c0,2.2,0.3,2.6,2.5,2.6c5.1,0,10.2,0,15.4,0c3.4,0,3.9-0.4,3.9-3.9c0-9.7,0-19.3,0-29c0-0.6,0.2-1.2,0.2-1.8
		c0.2-0.1,0.3-0.2,0.5-0.2c0.2,0.3,0.3,0.6,0.5,0.9c2,3.3,4.1,6.7,6.1,10.1c0.8,1.3,1.7,2,3.2,2c2.5,0,4.9,0,7.4,0.1
		c2.2,0,3.6-0.8,4.7-2.9C170.3,107.9,172.5,104.6,174.5,101.2z M228.3,86.9c0-0.2,0.1-0.5,0.1-0.7c0.7-0.3,1.4-0.7,2.2-0.8
		c6.7-1.6,13,0.6,19.3,2.3c2.6,0.7,5,2,7.4,3c2.2,0.9,3.2,0.2,3.2-2.1c0-5,0-10,0-15c0-1.5-0.6-2.6-2-3.1c-2.1-0.8-4.1-1.7-6.2-2.2
		c-3.5-0.9-7-2-10.6-2.2c-5.1-0.4-10.3-0.3-15.5,0.7c-3.9,0.7-7.7,1.6-11.1,3.5c-4.5,2.5-7.4,6.3-9.1,11.4
		c-1.5,4.5-1.2,8.9,0.5,13.1c1.4,3.6,4,6.3,7.2,8.6c4.9,3.5,10.5,5.1,15.9,7c3.5,1.2,6.9,2.4,10.4,3.7c0.5,0.2,1.3,1,1.2,1.4
		c-0.1,0.6-0.8,1.4-1.4,1.5c-2.5,0.5-5,1.2-7.5,0.9c-4-0.4-8-1-11.8-2.2c-4.2-1.4-8.3-3.5-12.3-5.5c-2.6-1.3-3.3-1-3.4,1.9
		c-0.1,5,0,10,0,15c0,0.8,0.2,1.5,0.4,2.2c0.1,0.4,0.4,0.9,0.8,1.1c4.2,2.3,8.5,4.3,13.1,5.3c6.3,1.3,12.8,1.9,19.3,1.6
		c4.6-0.2,9-1.2,13-3.2c5.7-2.8,10.3-6.7,12.3-13.2c1.6-5,1.3-9.7-0.6-14.3c-1.4-3.5-4.4-5.8-7.3-8c-4.5-3.4-9.9-4.8-15.1-6.6
		c-3.2-1.1-6.5-1.9-9.7-3C230.2,88.4,229.3,87.5,228.3,86.9z M114.1,79.3C114.1,79.3,114.1,79.3,114.1,79.3c0-2.8,0-5.5,0-8.3
		c0-1.3-0.4-2-1.6-2.5c-4.3-1.8-8.9-2.5-13.5-2.7c-4.3-0.2-8.6-0.1-13,0.8c-3.6,0.7-6.9,2-10,3.4c-3.2,1.4-6,3.8-8.8,6.1
		c-4.4,3.7-7.1,8.7-8.9,14.1c-1.5,4.5-1.6,9.1-1.6,13.7c0,5.5,1.9,10.5,4.4,15.3c2.2,4.1,5.4,7.3,9.2,10.1c4.4,3.3,9.3,5.6,14.7,6.8
		c3.7,0.8,7.5,1.1,11.3,1.1c5.6,0.1,11.2-0.4,16.6-2.6c2-0.8,2.6-2,2.6-3.8c0.1-2.8,0.1-5.6,0-8.5c0-2.6,0-5.3-0.2-7.9
		c-0.1-1.7-0.8-2-2.4-1.2c-1.1,0.5-2.2,1.2-3.3,1.6c-3,1.2-6.1,1.8-9.4,2c-5.6,0.4-10.8-0.4-15.1-4.1c-1.5-1.3-3.2-2.9-3.9-4.7
		c-1.4-3.8-2.1-7.9-0.3-11.9c2.3-5.2,6-8.8,11.6-9.8c2.8-0.5,5.7-0.1,8.6,0c1.1,0,2.2,0.3,3.3,0.6c2.4,0.8,4.8,1.7,7.3,2.5
		c1.9,0.6,2.5,0.2,2.6-1.8C114.1,84.8,114.1,82,114.1,79.3z"/>
	<path class="st0" d="M354.7,91.2c7.9-6.2,15.3-7.1,22.4,0.6c1.6-1.2,3-2.7,4.7-3.6c5.1-2.5,10.3-2.5,15.2,0.4
		c2.5,1.4,4.1,3.8,4.6,6.6c0.4,2.4,0.8,4.8,0.9,7.2c0.1,6.9,0,13.9,0.1,20.8c0,1.7-0.6,2.2-2.2,2.2c-2.9-0.1-5.9-0.1-8.8,0
		c-1.5,0-1.9-0.5-1.9-1.9c0.1-6.9-0.1-13.9,0.1-20.8c0.1-3-2.2-5.5-4.1-5.9c-2.7-0.5-5.3,1.1-6.2,3.9c-0.4,1.2-0.7,2.5-0.7,3.7
		c-0.1,6.3-0.1,12.6,0,18.9c0,1.6-0.5,2.2-2.1,2.1c-2.8-0.1-5.6,0-8.5,0c-2.3,0-2.3,0-2.3-2.2c0-6.9,0-13.8,0-20.7
		c0-1.1,0-2.3-0.4-3.3c-1-2.2-2.8-2.9-5.6-2.5c-1.7,0.3-4,2.4-4.2,4.1c-0.2,2.3-0.3,4.6-0.3,6.9c0,5.2-0.1,10.5,0,15.7
		c0,1.5-0.5,2-2,2c-3.1-0.1-6.2-0.1-9.4,0c-1.5,0-1.9-0.6-1.9-2c0-11.3,0.1-22.6,0-33.9c0-1.6,0.6-2,2.1-2c2.9,0.1,5.8,0.1,8.7,0
		c1.6-0.1,2,0.6,1.9,2C354.5,90,354.6,90.6,354.7,91.2z"/>
	<path class="st0" d="M485.6,90.7c0.2-0.1,0.3-0.2,0.3-0.3c0.8-2.9,0.8-2.9,3.9-2.9c2.4,0,4.7,0,7.1,0c1.2,0,1.8,0.3,1.8,1.7
		c-0.1,11.5,0.2,23.1-0.2,34.6c-0.2,6.4-3.3,11.7-9.7,14.2c-1.8,0.7-3.7,1-5.6,1.1c-2.8,0.2-5.7,0.2-8.5,0
		c-5.1-0.3-9.6-1.9-12.4-6.5c-1-1.5-1.4-3.4-1.9-5.2c-0.1-0.2,0.8-1.1,1.2-1.1c3.5-0.1,6.9-0.1,10.4,0c0.6,0,1.4,0.9,1.7,1.5
		c0.9,2,2.5,3,4.6,3c1.5,0,3.1-0.1,4.4-0.7c1.2-0.6,2.7-1.9,2.9-3.2c0.5-2.3,0.1-4.7,0.1-7.3c-0.4,0.2-0.8,0.4-1,0.6
		c-2.5,2.3-5.4,3.2-8.8,3.3c-4.8,0.1-8.8-1.1-12.1-4.6c-2.1-2.2-3.2-4.8-4-7.7c-0.9-3-1-5.9-0.7-8.9c0.6-6.3,3.3-11.6,9.2-14.6
		c4.1-2.1,12.8-2.6,16.6,2.4C485,90.6,485.4,90.6,485.6,90.7z M471.4,105.3c0.4,1.7,0.8,3.4,1.3,5c0.8,2.3,2.6,3.6,4.9,4
		c2.9,0.5,5.5-0.4,7.1-3.1c1.7-2.8,1.5-5.8,1-8.9c-0.8-6-6.8-7.1-10.6-5C472.2,99,471.6,102,471.4,105.3z"/>
	<path class="st0" d="M545.7,109.3c0,3.5-0.1,6.9,0,10.4c0,1.2,0.4,2.4,0.7,3.6c0.5,1.6,0.2,2.2-1.5,2.2c-3.1,0-6.2,0-9.4,0
		c-1.1,0-1.8-0.2-1.9-1.5c-0.1-1.2-0.8-1.5-1.8-0.7c-4.5,3.5-9.8,3.7-14.9,3c-3.8-0.5-7.7-2.8-9.2-8.2c-1.2-4.1-0.3-7.4,2.3-10.5
		c1.6-1.9,3.9-2.8,6.3-3.2c4.8-1,9.7-1.8,14.6-2.8c0.8-0.2,1.9-1,2-1.6c0.2-1.1,0-2.6-0.6-3.4c-1.9-2.2-7.6-2-9.7,0.1
		c-0.2,0.2-0.5,0.4-0.5,0.7c-0.2,2.6-2,2.4-3.8,2.4c-2.5-0.1-4.9,0-7.4,0c-1.8,0-2.1-0.7-1.4-2.4c0.5-1.2,0.8-2.4,1.4-3.5
		c1.7-3.4,4.8-5,8.3-6.1c4.6-1.5,9.2-1,13.8-0.7c4.5,0.3,9,1.7,11.4,6c0.9,1.7,1.3,3.8,1.4,5.7C545.8,102.1,545.6,105.7,545.7,109.3
		C545.7,109.3,545.7,109.3,545.7,109.3z M532.4,108.3c-3.2,0.8-6.3,1.5-9.4,2.4c-1.5,0.4-2.3,1.6-2.3,3.4c0,1.6,0.2,3.2,1.9,3.8
		c2.3,0.9,6.3,0.7,8.4-1.4C532.8,114.7,533.5,111.2,532.4,108.3z"/>
	<path class="st0" d="M450.7,125.3c-0.4,0-1.2,0.1-1.9,0.1c-2.4,0-4.7,0-7.1,0c-3.2,0-3.2,0-4.4-2.8c-0.3,0.2-0.7,0.3-1,0.5
		c-3.1,2.1-6.4,3.4-10.2,3.2c-2.8-0.1-5.7,0.1-8.2-1.3c-3.8-2.2-6-5.2-6.1-9.9c-0.1-4.2,1.3-7.5,4.9-9.4c2.5-1.3,5.4-1.8,8.2-2.5
		c3.6-0.8,7.2-1.2,10.8-2c0.8-0.2,1.8-1.4,1.9-2.2c0.1-0.9-0.4-2.2-1.2-2.9c-0.7-0.7-2-1.1-3-1.1c-1.9,0-4-0.8-5.6,0.8
		c-0.8,0.8-1.3,1.8-2.1,2.7c-0.4,0.5-1,1-1.5,1c-3,0.1-6,0-9,0.1c-1.2,0-1.5-0.5-1.5-1.6c0.1-2.5,1.1-4.5,2.7-6.3
		c2.9-3.3,6.8-4.7,11.1-5c3.1-0.2,6.3-0.2,9.4,0c4,0.3,7.7,1.5,10.6,4.5c1.5,1.5,2.2,3.2,2.2,5.3c0,5.1-0.1,10.2,0.1,15.4
		C449.9,116.2,450.3,120.6,450.7,125.3z M437.5,108c-0.9,0.4-1.5,0.6-2.1,0.8c-2.6,0.6-5.3,1.2-7.9,1.9c-1.7,0.5-2.4,2-2.7,3.6
		c-0.2,1.2,1.2,3.5,2.4,3.8c3,0.7,5.8,0.7,8.2-1.6C437.8,114,437.9,111.2,437.5,108z"/>
	<path class="st0" d="M637.3,91.4c1.2-0.8,2.1-1.5,3-2.2c3.9-3.2,8.6-3.2,13.1-2.4c4.2,0.8,7.7,3.2,8.7,7.9c0.4,1.6,0.8,3.3,0.8,5
		c0.1,7.9,0,15.8,0.1,23.6c0,1.6-0.3,2.2-2.1,2.1c-2.9-0.1-5.9-0.1-8.8,0c-1.5,0-2.1-0.4-2-2c0.1-6.9,0-13.8,0.1-20.6
		c0-3.3-1.2-4.7-4.1-5.8c-2.9-1.1-7.6,1.5-8,4.5c-0.3,2-0.3,4.1-0.3,6.1c0,5.2-0.1,10.5,0,15.7c0,1.4-0.4,2.1-1.9,2
		c-3.2-0.1-6.4-0.1-9.5,0c-1.4,0-1.8-0.6-1.8-1.9c0-11.2,0-22.5,0-33.7c0-1.7,0.5-2.3,2.2-2.3c2.7,0.1,5.4,0.1,8.1,0
		c1.6-0.1,2.5,0.4,2.2,2.2C637.1,90.2,637.2,90.7,637.3,91.4z"/>
	<path class="st0" d="M713.8,109.6c-0.7,0-1.3,0.1-2,0.1c-7.8,0-15.5,0-23.3,0c-2.6,0-3.3,1.2-2.1,3.6c2.4,5,10.3,6.6,14,1.4
		c0.5-0.7,1.6-1.2,2.5-1.2c2.8-0.1,5.6-0.1,8.5-0.1c1.6,0,1.8,0.5,1.3,1.9c-1.8,4.5-5.1,7.8-9.6,9.5c-2,0.8-4.2,1.3-6.3,1.4
		c-3.4,0.2-6.9,0.4-10.3-0.8c-5-1.8-8.9-4.7-11.4-9.5c-2.2-4.3-2.3-9-1.6-13.4c1.1-6.5,4.8-11.4,11.1-14.2c4.3-2,8.8-2.2,13.3-1.5
		c6.8,1.1,11.9,4.9,14.3,11.7C713.3,102,714.7,105.5,713.8,109.6z M693.5,102.4c1.8,0,3.5,0,5.3,0c2.1,0,2.7-0.8,1.6-2.7
		c-0.8-1.3-1.8-2.9-3.2-3.5c-1.7-0.8-3.5-1.4-5.8-0.7c-2.6,0.9-4.1,2.4-5.1,4.6c-0.7,1.4-0.1,2.2,1.4,2.2
		C689.7,102.4,691.6,102.4,693.5,102.4z"/>
	<path class="st0" d="M571.1,115.2c1,0.1,1.6,0.2,2.1,0.2c5.2,0,10.4,0.1,15.5,0c1.7,0,2.3,0.6,2.2,2.3c-0.1,2.1-0.1,4.1,0,6.2
		c0,1.2-0.3,1.7-1.6,1.7c-11.3,0-22.6,0-33.9,0c-1.1,0-1.5-0.4-1.5-1.5c0-2.5-0.1-4.9,0.1-7.4c0-0.7,0.5-1.5,1.1-2.1
		c5.1-5.1,10.2-10.1,15.3-15.1c0.5-0.5,0.8-1,1.5-1.9c-1-0.1-1.6-0.1-2.1-0.1c-4.1,0-8.1,0-12.2,0c-2,0-2.3-0.4-2.4-2.4
		c0-1.6,0-3.3,0-4.9c0-2.5,0-2.5,2.4-2.5c9,0,18,0,27,0c4.4,0,4.2,0,4.5,4.5c0.3,3.7-0.9,6.4-3.7,8.9c-4.5,4-8.7,8.5-13,12.7
		C572.2,114,571.8,114.4,571.1,115.2z"/>
	<path class="st0" d="M613,106.6c0,5.6,0,11.2,0,16.8c0,1.5-0.4,2.1-2,2.1c-3.1-0.1-6.1-0.1-9.2,0c-1.3,0-1.8-0.4-1.8-1.7
		c0-11.5,0-23,0-34.6c0-1.2,0.4-1.7,1.7-1.6c3.1,0.1,6.2,0.1,9.3,0c1.5,0,1.9,0.5,1.9,2C613,95.2,613,100.9,613,106.6z"/>
	<path class="st0" d="M606.4,82.6c-1.5,0-3,0-4.6,0c-1,0-1.6-0.3-1.6-1.4c0-2.4-0.1-4.8,0.1-7.2c0-0.4,0.8-1.2,1.2-1.2
		c3.4-0.1,6.8,0,10.2,0c1,0,1.4,0.4,1.4,1.4c0,2.2,0,4.5,0,6.7c0,1.2-0.6,1.7-1.7,1.7C609.7,82.6,608,82.6,606.4,82.6
		C606.4,82.6,606.4,82.6,606.4,82.6z"/>
</g>
</svg>
