<svg width="1398" height="365" viewBox="0 0 1398 365" fill="none" xmlns="http://www.w3.org/2000/svg">
<path d="M665.743 208.163V126.479L700.251 208.163H729.59L764.098 126.479V208.163H794.438V83.6357H751.762L714.921 169.822L678.246 83.6357H635.403V208.163H665.743Z" fill="#FFFFFF"/>
<path d="M858.852 210.331C874.856 210.331 888.025 206.163 898.194 197.661C908.363 189.159 913.531 177.323 913.531 162.153C913.531 147.15 908.363 135.314 898.194 126.812C888.025 118.31 874.856 113.976 858.852 113.976C842.682 113.976 829.346 118.31 819.177 126.812C809.008 135.314 804.007 147.15 804.007 162.153C804.007 177.323 809.008 189.159 819.177 197.661C829.346 206.163 842.682 210.331 858.852 210.331ZM858.686 185.658C844.682 185.658 834.847 176.656 834.847 162.153C834.847 147.983 844.682 138.648 858.686 138.648C872.855 138.648 882.524 147.983 882.524 162.153C882.524 176.656 872.855 185.658 858.686 185.658Z" fill="#FFFFFF"/>
<path d="M967.462 210.331C981.799 210.331 993.468 207.497 1002.64 201.829C1011.81 196.161 1016.47 188.492 1016.47 178.657C1016.47 170.155 1013.14 163.487 1006.47 158.652C999.97 153.818 992.135 151.151 982.966 150.984L957.627 150.151C949.792 149.984 946.458 148.484 946.458 143.649C946.458 137.814 952.626 134.98 964.962 134.98C977.131 134.98 983.466 138.148 984.299 144.649H1014.97C1014.14 134.48 1008.97 126.979 999.47 121.811C989.967 116.643 978.465 113.976 964.962 113.976C950.959 113.976 939.456 116.81 930.621 122.478C921.786 128.146 917.451 135.814 917.451 145.65C917.451 153.485 920.619 159.819 926.953 164.654C933.455 169.488 941.29 171.989 950.459 172.155L975.798 172.989C983.633 173.156 987.634 175.156 987.634 180.657C987.634 186.492 980.965 189.326 967.462 189.326C955.293 189.326 946.291 185.158 945.624 178.49H915.117C915.784 188.993 920.952 196.828 930.454 202.329C940.123 207.663 952.459 210.331 967.462 210.331Z" fill="#FFFFFF"/>
<path d="M1073.79 210.331C1087.79 210.331 1099.46 206.997 1108.97 200.495C1118.47 193.994 1124.3 184.825 1126.47 172.989H1094.63C1091.13 181.491 1084.13 185.658 1073.79 185.658C1060.29 185.658 1050.12 176.656 1050.12 162.153C1050.12 147.65 1059.95 138.648 1073.79 138.648C1084.13 138.648 1091.13 142.816 1094.63 151.317H1126.47C1122.3 127.479 1101.96 113.976 1073.79 113.976C1057.79 113.976 1044.62 118.31 1034.45 126.812C1024.28 135.314 1019.28 147.15 1019.28 162.153C1019.28 177.157 1024.28 188.993 1034.45 197.494C1044.62 205.996 1057.79 210.331 1073.79 210.331Z" fill="#FFFFFF"/>
<path d="M1183.8 210.331C1199.8 210.331 1212.97 206.163 1223.14 197.661C1233.31 189.159 1238.48 177.323 1238.48 162.153C1238.48 147.15 1233.31 135.314 1223.14 126.812C1212.97 118.31 1199.8 113.976 1183.8 113.976C1167.63 113.976 1154.29 118.31 1144.13 126.812C1133.96 135.314 1128.96 147.15 1128.96 162.153C1128.96 177.323 1133.96 189.159 1144.13 197.661C1154.29 206.163 1167.63 210.331 1183.8 210.331ZM1183.63 185.658C1169.63 185.658 1159.8 176.656 1159.8 162.153C1159.8 147.983 1169.63 138.648 1183.63 138.648C1197.8 138.648 1207.47 147.983 1207.47 162.153C1207.47 176.656 1197.8 185.658 1183.63 185.658Z" fill="#FFFFFF"/>
<path d="M1297.83 208.163L1315 154.485L1332 208.163H1363.34L1397.68 116.143H1365.51L1347.34 176.99L1327.5 116.143H1302.5L1283.32 176.99L1264.49 116.143H1232.31L1266.49 208.163H1297.83Z" fill="#FFFFFF"/>
<path fill-rule="evenodd" clip-rule="evenodd" d="M150.146 40.0072L166.585 7.71185L151.435 0L136.095 30.1352C130.498 26.663 124.764 23.6158 118.967 20.9865C92.8506 9.14071 65.2322 5.69305 43.127 10.3983C21.0543 15.0967 2.62786 28.6392 0.291439 51.6976C-1.63927 70.752 6.12012 86.1028 20.6765 97.5266C34.7754 108.591 55.2111 116.02 79.5254 120.848C82.6207 121.462 85.7936 122.037 89.0411 122.574L43.2154 212.6L54.5442 224.082L150.51 176.846L193.134 208.224L206.603 202.474C210.238 174.51 209.026 149.753 204.221 128.085C218.434 127.65 233.097 126.911 248.108 125.898C238.562 136.455 233.329 149.171 231.052 161.117C229.054 171.603 229.251 181.773 230.856 189.884C231.656 193.923 232.86 197.732 234.517 200.907C236.027 203.802 238.604 207.498 242.843 209.226C247.379 211.076 251.951 210.195 255.288 209.016C258.767 207.786 262.246 205.762 265.489 203.517C272.009 199.003 278.97 192.61 285.187 186.348C286.673 184.851 288.132 183.346 289.55 181.855C289.676 185.626 290.074 189.217 290.763 192.412C291.408 195.399 292.394 198.468 293.942 201.154C295.475 203.814 297.954 206.755 301.822 208.229C305.91 209.787 310.011 209.13 313.455 207.474C316.25 206.129 318.836 204.046 321.252 201.543L321.255 201.546L321.326 201.466C321.716 201.06 322.101 200.644 322.482 200.218L328.147 193.881L328.124 193.86C334.992 185.941 345.772 171.582 355.208 158.69C355.19 163.569 355.41 168.344 355.822 172.809C356.577 180.988 358.031 188.758 360.192 194.724C361.256 197.662 362.669 200.67 364.622 203.099C366.517 205.458 369.942 208.465 374.943 208.429C377.481 208.41 379.774 207.621 381.494 206.857C383.318 206.048 385.156 204.967 386.941 203.772C390.513 201.381 394.525 198.09 398.748 194.265C406.296 187.429 415.078 178.372 424.113 168.353C424.229 168.895 424.346 169.433 424.462 169.966C426.438 179.034 428.372 186.929 430.185 192.808C431.083 195.721 432.025 198.384 433.019 200.528C433.513 201.592 434.12 202.749 434.867 203.816C435.5 204.717 436.81 206.41 438.984 207.516C442.41 209.258 445.782 208.693 447.747 208.113C449.833 207.498 451.779 206.449 453.433 205.4C456.782 203.277 460.492 200.14 464.229 196.629C471.785 189.529 480.682 179.717 489.071 169.96C493.533 164.771 497.898 159.542 501.904 154.659C501.314 160.693 500.88 166.806 500.711 172.557C500.464 180.949 500.749 189.301 502.263 195.613C502.996 198.67 504.248 202.289 506.721 205.114C508.047 206.628 509.846 208.051 512.185 208.875C514.56 209.711 516.971 209.743 519.19 209.248C527.023 207.499 534.468 201.923 540.857 195.829C547.478 189.513 554.031 181.588 560.024 173.574C561.506 171.592 562.967 169.587 564.397 167.581C562.222 179.55 559.703 193.397 557.027 208.091C532.458 219.415 513.874 228.011 500.366 234.275C489.938 239.11 482.534 242.556 477.736 244.793C475.337 245.912 473.589 246.729 472.44 247.266C471.866 247.535 471.441 247.734 471.159 247.866L470.74 248.063L470.738 248.063L465.85 255.757C465.85 255.757 465.85 255.762 465.85 255.767L465.85 255.777L465.85 255.803L465.85 255.872L465.851 255.961L465.853 256.075C465.856 256.24 465.861 256.463 465.87 256.741C465.889 257.298 465.926 258.077 465.996 259.059C466.136 261.022 466.411 263.799 466.949 267.228C468.026 274.081 470.164 283.581 474.416 294.411C482.948 316.144 499.958 343.119 533.617 364.661L546.548 359.098C550.566 338.078 561.078 280.673 570.575 228.575C571.11 225.642 571.641 222.725 572.168 219.832C583.481 214.622 595.959 208.88 609.679 202.575L617.403 199.025L610.304 183.578L602.58 187.128C593.099 191.485 584.21 195.574 575.888 199.404C578.61 184.453 581.099 170.758 583.138 159.532C584.795 150.415 586.154 142.927 587.099 137.718L588.574 129.587L588.575 129.581L588.576 129.579L573.084 123.432C571.929 125.21 570.548 127.396 568.972 129.888L568.967 129.897C563.385 138.729 555.374 151.407 546.41 163.393C540.682 171.053 534.772 178.139 529.123 183.528C525.027 187.434 521.536 189.989 518.739 191.416C517.815 187.378 517.47 180.988 517.704 173.058C518.172 157.157 520.855 137.869 523.039 126.585L507.952 119.794L507.784 120.012C507.671 120.159 507.5 120.38 507.277 120.668C506.831 121.245 506.172 122.095 505.328 123.176C503.64 125.339 501.214 128.428 498.269 132.12C492.374 139.511 484.427 149.285 476.181 158.877C467.893 168.516 459.469 177.774 452.588 184.24C450.403 186.293 448.491 187.952 446.879 189.214C446.734 188.771 446.585 188.3 446.43 187.799C444.831 182.611 443.016 175.269 441.072 166.347C440.117 161.961 439.139 157.238 438.15 152.262C455.095 132.23 471.64 110.5 481.566 94.6902L482.834 89.4107C481.449 73.9767 471.301 52.5199 458.003 35.2532C451.242 26.474 443.329 18.3238 434.74 12.3152C426.206 6.34521 416.417 2.08885 406.112 2.16374L397.76 11.8692L397.76 11.8717L397.837 12.4042C397.887 12.7549 397.962 13.2744 398.06 13.9516C398.257 15.3058 398.546 17.2908 398.917 19.8179C399.66 24.8718 400.732 32.0949 402.051 40.7781C404.689 58.1403 408.314 81.3587 412.265 104.753C414.728 119.341 417.324 134.04 419.892 147.452C418.176 149.433 416.462 151.39 414.754 153.315C404.753 164.591 395.172 174.567 387.336 181.665C383.4 185.23 380.08 187.908 377.485 189.645C377.193 189.84 376.919 190.018 376.661 190.18C376.507 189.814 376.344 189.401 376.176 188.936C374.691 184.835 373.432 178.635 372.75 171.247C371.371 156.312 372.562 139.061 376.903 128.067L362.048 120.051L361.659 120.601C361.403 120.964 361.024 121.5 360.537 122.188C359.562 123.564 358.153 125.549 356.42 127.978C352.951 132.838 348.189 139.471 343.008 146.571C332.531 160.929 320.696 176.701 314.27 183.869L308.89 189.871C308.53 190.238 308.201 190.552 307.904 190.819C307.727 190.264 307.548 189.603 307.381 188.827C305.605 180.597 306.582 167.023 309.799 157.929L295.167 149.771C295.163 149.767 295.163 149.767 295.163 149.767L295.162 149.768L295.141 149.794L295.06 149.894C294.987 149.984 294.876 150.121 294.728 150.302C294.432 150.665 293.992 151.202 293.423 151.888C292.284 153.26 290.635 155.222 288.611 157.564C284.552 162.258 279.033 168.418 273.123 174.371C267.151 180.386 261.051 185.913 255.813 189.54C253.176 191.365 251.101 192.465 249.623 192.987L249.569 193.006C248.876 191.665 248.114 189.519 247.533 186.583C246.366 180.691 246.147 172.723 247.752 164.3C250.77 148.464 259.94 132.017 280.234 124.092L305.094 137.868L313.334 122.998L285.119 107.363L278.434 106.484L269.964 107.193C245.448 109.247 221.85 110.619 199.568 111.21C189.306 80.3505 171.3 56.7609 150.146 40.0072ZM111.945 36.4684C117.484 38.9805 122.983 41.9343 128.353 45.3449L97.153 106.638C92.1951 105.904 87.4191 105.083 82.836 104.173C59.578 99.5554 42.1967 92.8055 31.1719 84.1533C20.6046 75.8601 15.9338 65.9555 17.2048 53.4114C18.5173 40.4581 28.6798 30.8544 46.6663 27.0258C64.6205 23.2041 88.5317 25.8487 111.945 36.4684ZM69.9517 197.55L106.855 125.053C130.659 127.8 157.655 128.841 186.855 128.465C190.96 145.26 192.67 164.291 191.2 185.69L156.429 160.094L147.636 159.313L69.9517 197.55ZM115.105 108.845C135.117 110.849 157.487 111.692 181.65 111.516C172.717 87.6296 158.578 69.1266 142.26 55.4995L115.105 108.845ZM418.859 38.2252C417.862 31.6671 417.008 25.9458 416.33 21.3695C419.107 22.5304 422.004 24.1529 424.995 26.2451C431.794 31.0012 438.505 37.7966 444.534 45.6259C455.849 60.3184 463.616 77.0995 465.538 88.207C457.82 100.126 446.417 115.384 434.041 130.592C432.35 121.296 430.662 111.606 429.027 101.923C425.098 78.6531 421.488 55.5342 418.859 38.2252ZM507.517 249.697C518.951 244.396 534.028 237.419 553.303 228.528C545.497 271.34 537.123 317.088 532.284 342.996C509.017 325.194 496.752 304.786 490.241 288.199C486.512 278.701 484.661 270.428 483.743 264.589C483.533 263.251 483.372 262.043 483.249 260.98L484.921 260.201C489.707 257.969 497.1 254.528 507.517 249.697Z" fill="#FFFFFF"/>
<path d="M379.591 76.5504L363.677 101.501L377.886 110.581L393.8 85.6312L379.591 76.5504Z" fill="#FFFFFF"/>
</svg>
