<?xml version="1.0" encoding="utf-8"?>
<!-- Generator: Adobe Illustrator 22.0.1, SVG Export Plug-In . SVG Version: 6.00 Build 0)  -->
<svg version="1.1" id="Слой_1" xmlns="http://www.w3.org/2000/svg" xmlns:xlink="http://www.w3.org/1999/xlink" x="0px" y="0px"
	 viewBox="0 0 907.1 340.2" style="enable-background:new 0 0 907.1 340.2;" xml:space="preserve">
<style type="text/css">
	.st0{fill:#FFFFFF;}
</style>
<g>
	<path class="st0" d="M229.8,155.9h-34.7c-6.1,0-11-4.9-11-11V25.2c0-6.1,4.9-11,11-11h102.4c0,0,134-0.3,141.5,130.1
		c0.4,6.3-4.7,11.6-11,11.6h-34.9c-5.8,0-10.5-4.4-11-10.2c-6.5-74.9-84.6-74.9-84.6-74.9h-56.7v74
		C240.8,151,235.9,155.9,229.8,155.9"/>
	<path class="st0" d="M286.1,184.3c6.3,0,11.4,5.1,11.4,11.4v33.9c0,6.3-5.1,11.4-11.4,11.4h-45.3v28.3h56.7c0,0,78.1,0,84.6-74.9
		c0.5-5.7,5.2-10.2,11-10.2H428c6.3,0,11.4,5.3,11,11.6C431.5,326.3,297.5,326,297.5,326H195.2c-6.1,0-11-4.9-11-11V195.3
		c0-6.1,4.9-11,11-11H286.1z"/>
	<path class="st0" d="M677,155.9h34.7c6.1,0,11-4.9,11-11V25.2c0-6.1-4.9-11-11-11H609.3c0,0-134-0.3-141.5,130.1
		c-0.4,6.3,4.7,11.6,11,11.6h34.9c5.8,0,10.5-4.4,11-10.2c6.5-74.9,84.6-74.9,84.6-74.9H666v74C666,151,670.9,155.9,677,155.9"/>
	<path class="st0" d="M620.6,184.3c-6.3,0-11.4,5.1-11.4,11.4v33.9c0,6.3,5.1,11.4,11.4,11.4H666v28.3h-56.7c0,0-78.1,0-84.6-74.9
		c-0.5-5.7-5.2-10.2-11-10.2h-34.9c-6.3,0-11.4,5.3-11,11.6C475.3,326.3,609.3,326,609.3,326h102.4c6.1,0,11-4.9,11-11V195.3
		c0-6.1-4.9-11-11-11H620.6z"/>
	<path class="st0" d="M796.7,155.9h-34.5c-6.1,0-11.1-5-11.1-11.1V25.3c0-6.1,5-11.1,11.1-11.1h34.5c6.1,0,11.1,5,11.1,11.1v119.6
		C807.8,150.9,802.8,155.9,796.7,155.9"/>
	<path class="st0" d="M770,326c-10.3,0-18.7-7.9-18.7-18.2v-38.5v-73.9c0-6.2,5-11.2,11.2-11.2h34.4c6.2,0,11.2,5,11.2,11.2v73.9
		h73.9c6.2,0,11.2,5,11.2,11.2v34.3c0,6.2-5,11.2-11.2,11.2H770z"/>
	<path class="st0" d="M144.6,70.9h-34.3c-6.2,0-11.2-5-11.2-11.2V25.3c0-6.2,5-11.2,11.2-11.2h34.3c6.2,0,11.2,5,11.2,11.2v34.3
		C155.8,65.9,150.8,70.9,144.6,70.9"/>
	<path class="st0" d="M144.6,155.9h-34.3c-6.2,0-11.2-5-11.2-11.2v-34.3c0-6.2,5-11.2,11.2-11.2h34.3c6.2,0,11.2,5,11.2,11.2v34.3
		C155.8,150.9,150.8,155.9,144.6,155.9"/>
	<path class="st0" d="M144.6,240.9h-34.3c-6.2,0-11.2-5-11.2-11.2v-34.3c0-6.2,5-11.2,11.2-11.2h34.3c6.2,0,11.2,5,11.2,11.2v34.3
		C155.8,235.9,150.8,240.9,144.6,240.9"/>
	<path class="st0" d="M144.6,326h-34.3c-6.2,0-11.2-5-11.2-11.2v-34.3c0-6.2,5-11.2,11.2-11.2h34.3c6.2,0,11.2,5,11.2,11.2v34.3
		C155.8,321,150.8,326,144.6,326"/>
	<path class="st0" d="M59.6,326H25.2c-6.2,0-11.2-5-11.2-11.2v-34.3c0-6.2,5-11.2,11.2-11.2h34.3c6.2,0,11.2,5,11.2,11.2v34.3
		C70.8,321,65.7,326,59.6,326"/>
</g>
</svg>
