<?xml version="1.0" encoding="utf-8"?>
<!-- Generator: Adobe Illustrator 24.1.2, SVG Export Plug-In . SVG Version: 6.00 Build 0)  -->
<svg version="1.1" id="Слой_1" xmlns="http://www.w3.org/2000/svg" xmlns:xlink="http://www.w3.org/1999/xlink" x="0px" y="0px"
	 viewBox="0 0 135 135" style="enable-background:new 0 0 135 135;" xml:space="preserve">

<g>
	<g fill="#FFFFFF" stroke="none">
		<path class="st0" d="M67.6,2.8C102.8,3.7,132.1,29.7,132,68c-0.1,36.4-28.6,64.1-64.4,64.2C29.4,132.3,2.8,101.6,3,67.3
			C3.3,31.5,31.9,2.8,67.6,2.8z M93.8,45.3l-2.6-0.1c0,0-7.5-0.1-11.6-0.1c0,15.2,0,29.8,0,44.7c3.5,0,6.7,0,10.6,0
			c0-6.3,0-16.2,0-22.3c0.2,0,0.7,3.9,0.7,3.9l2.6,18.5h7.1l0.9-5.4l2.3-15.2c0,0,0.3-1.7,0.6-1.7c0,6.8,0.1,15.3,0.1,22.2
			c3.8,0,7.2,0,10.4,0c0-15,0-29.4,0-44.4c-3.5,0-9.7,0-9.7,0H101l-1.1,4.9c0,0-1.4,7.5-2.1,11.4 M19.8,45.4c0,14.9,0,29.5,0,44.2
			c6.8,0,13.3,0.5,19.7-0.3c2.3-0.3,5.7-3.7,5.9-6c0.9-9.6,1-19.3,0.9-28.9c0-4.9-3.9-8.6-9.1-8.9C31.5,45.2,25.9,45.4,19.8,45.4z
			 M49.5,73c0,2.1,0,3.8,0,5.4c0,5.1,2,9,7.1,10.9C62.2,91.4,71,90,74,86.5c4.3-4.9,2.9-17.4-2.6-21.2C68.8,63.5,66,62,63.5,60
			c-2.7-2.1-3.2-5.4-0.2-7.2c1.4,1.4,1.1,4,0.8,6.3c3.8,0,7.4,0,12.2,0c-0.7-4.2-1.7-8.2-3.9-10.6C68,43.8,61.9,44,56.1,45.7
			c-4.2,1.2-6.4,4.5-6.9,8.9c-0.7,6,0.9,10.9,6.4,14.1c2,1.2,4.1,2.3,5.9,3.7C65,75,67,81.6,62.1,83.1c-1.4-0.8-1.7-4.8-1.7-4.8
			S60.2,74.8,60,73C56.6,73,53.4,73,49.5,73z"/>
		<path class="st0" d="M31.9,53.3c3.4,4,3.4,25.2,0,28.8C31.9,72.3,31.9,63.1,31.9,53.3z"/>
	</g>
</g>
<path class="st0" d="M64.2,55.8"/>
</svg>
