<?xml version="1.0" encoding="utf-8"?>
<!-- Generator: Adobe Illustrator 22.0.1, SVG Export Plug-In . SVG Version: 6.00 Build 0)  -->
<svg version="1.1" id="Layer_1" xmlns="http://www.w3.org/2000/svg" xmlns:xlink="http://www.w3.org/1999/xlink" x="0px" y="0px"
	 viewBox="0 0 509 153" style="enable-background:new 0 0 509 153;" xml:space="preserve">
<style type="text/css">
	.st0{fill:#FFFFFF;}
</style>
<path class="st0" d="M6,8.7v77.1h57.9l1.8-18.9H30.2V56.4h31.2V37.5H30.2v-9.8h33.4v-19H6z"/>
<path class="st0" d="M71.5,36.1v20.5h38.7V36.1H71.5z"/>
<path class="st0" d="M179,8.7v77.1h57.9l1.8-18.9h-35.5V56.4h31.2V37.5h-31.2v-9.8h33.4v-19H179z"/>
<path class="st0" d="M117.9,8.7v77.1h23.6V62.7h6.5c6.1,0,11.2-0.6,15.3-2.1c4.1-1.4,7.4-3.3,9.8-5.7c2.4-2.4,4-5.3,5.1-8.6
	c1.1-3.2,1.6-6.8,1.6-10.7c0-3.7-0.5-7.2-1.5-10.5c-1.1-3.2-2.8-6.2-5.2-8.5c-2.4-2.4-5.6-4.3-9.8-5.7c-4.1-1.4-9.3-2.2-15.4-2.2
	C147.9,8.7,117.9,8.7,117.9,8.7z M141.5,43.7v-16h6.6c3.6,0,6.1,0.8,7.5,2.1c1.3,1.3,2.1,3.3,2.1,5.9c0,2.7-0.8,4.8-2.1,6
	c-1.3,1.3-3.8,1.9-7.5,1.9L141.5,43.7L141.5,43.7z"/>
<path class="st0" d="M359.1,8.7v77.1H417l1.8-18.9h-35.5V56.4h31.2V37.5h-31.2v-9.8h33.4v-19H359.1z"/>
<path class="st0" d="M479.6,34c0-3.5-0.5-6.7-1.6-9.8c-1.1-3-2.8-5.7-5.2-8c-2.5-2.3-5.7-4.1-9.8-5.4c-4-1.3-9-2.1-14.8-2.1H415
	v77.1h23.1V61.1h8.7l12.4,24.7h25.1l-16-29.6c3.6-2.3,6.4-5.3,8.3-9C478.5,43.6,479.6,39.2,479.6,34z M438.1,43.3V26.9h8.2
	c3.7,0,6.3,0.8,7.8,2.1c1.5,1.4,2.4,3.5,2.4,6.2c0,2.8-0.9,4.9-2.4,6.2c-1.5,1.4-4.1,2.1-7.8,2.1h-8.2V43.3z"/>
<path class="st0" d="M481.4,62.6v23.2H503V62.6H481.4z"/>
<path class="st0" d="M6,114.1v30.1h237.2l3.8-30.1H6z"/>
<path class="st0" d="M236.7,8.7v77.1h23.6V62.7h6.5c6.1,0,11.2-0.6,15.3-2.1c4.1-1.4,7.4-3.3,9.8-5.7s4-5.3,5.1-8.6
	c1.1-3.2,1.6-6.8,1.6-10.7c0-3.7-0.5-7.2-1.5-10.5c-1.1-3.2-2.8-6.2-5.2-8.5c-2.4-2.4-5.6-4.3-9.8-5.7c-4.1-1.4-9.3-2.2-15.4-2.2
	C266.7,8.7,236.7,8.7,236.7,8.7z M260.3,43.7v-16h6.6c3.6,0,6.1,0.8,7.5,2.1c1.3,1.3,2.1,3.3,2.1,5.9c0,2.7-0.8,4.8-2.1,6
	c-1.3,1.3-3.8,1.9-7.5,1.9L260.3,43.7L260.3,43.7z"/>
<path class="st0" d="M297.9,8.7v77.1h23.6V62.7h6.5c6.1,0,11.2-0.6,15.3-2.1c4.1-1.4,7.4-3.3,9.8-5.7s4-5.3,5.1-8.6
	c1.1-3.2,1.6-6.8,1.6-10.7c0-3.7-0.5-7.2-1.5-10.5c-1.1-3.2-2.8-6.2-5.2-8.5c-2.4-2.4-5.6-4.3-9.8-5.7c-4.1-1.4-9.3-2.2-15.4-2.2
	C327.9,8.7,297.9,8.7,297.9,8.7z M321.5,43.7v-16h6.6c3.6,0,6.1,0.8,7.5,2.1c1.3,1.3,2.1,3.3,2.1,5.9c0,2.7-0.8,4.8-2.1,6
	c-1.3,1.3-3.8,1.9-7.5,1.9L321.5,43.7L321.5,43.7z"/>
<path class="st0" d="M302.8,143.6l-14.9-29.3h-4.5l-14.7,29.3h6.6l3.6-7.2h13.7l3.7,7.2H302.8z M281.7,130.8l4-7.9l4,7.9H281.7z"/>
<path class="st0" d="M346.3,130.9h11v-5.6h-11v-5.4h18.3v-5.6h-24.3v29.3h25.4V138h-19.4V130.9z"/>
<path class="st0" d="M433.1,123.1c0-5.5-3.9-8.7-9.9-8.7H406v29.3h6V132h8.7l6.9,11.7h6.8l-7.2-12.2
	C430.8,130.1,433.1,126.9,433.1,123.1z M422.9,126.3H412v-6.4h11c2.7,0,3.9,1.2,3.9,3.2C426.9,125.2,425.9,126.3,422.9,126.3z"/>
<path class="st0" d="M487.4,113.7c-9,0-15.5,6.5-15.5,15.3s6.6,15.3,15.5,15.3S503,137.9,503,129C503,120.2,496.3,113.7,487.4,113.7
	z M487.4,138.6c-5.4,0-9.5-3.9-9.5-9.6c0-5.7,4.1-9.7,9.5-9.7s9.5,4,9.5,9.7S492.8,138.6,487.4,138.6z"/>
</svg>
