<?xml version="1.0" encoding="utf-8"?>
<!-- Generator: Adobe Illustrator 22.0.1, SVG Export Plug-In . SVG Version: 6.00 Build 0)  -->
<svg version="1.1" id="Слой_1" xmlns="http://www.w3.org/2000/svg" xmlns:xlink="http://www.w3.org/1999/xlink" x="0px" y="0px"
	 viewBox="0 0 179 55" style="enable-background:new 0 0 179 55;" xml:space="preserve">
<style type="text/css">
	.st0{fill:#FFFFFF;}
	.st1{opacity:0.75;fill:#FFFFFF;enable-background:new    ;}
</style>
<title>FF58C7AC-5B25-4D38-B149-40DA875C4702</title>
<desc>Created with sketchtool.</desc>
<g id="Страницы">
	<g id="Энвибокс-0-главная" transform="translate(-67.000000, -46.000000)">
		<g id="Group-22" transform="translate(-48.000000, -285.000000)">
			<g id="logotype-envybox-horizontal-white" transform="translate(115.000000, 331.000000)">
				<path id="Envybox" class="st0" d="M60.2,32.8l-6.6,0V27h8v-4.2h-8v-5.6l5.7,0v2.2h4.4v-3.6c0-1.8-0.9-2.8-2.8-2.8H46.8v4.2h2.1
					v16.9c0,1.8,1,2.8,2.8,2.8h10.1c1.9,0,2.8-0.9,2.8-2.8v-3.6h-4.4L60.2,32.8z M83.8,26c0-4.6-2.1-6.9-6.3-6.9
					c-2.4,0-4.3,1-5.5,2.2c-0.2-0.9-0.8-1.8-2.7-1.8h-3.7v4.1l2-0.1c0,0,0,0,0,0.1V37h4.6v-8.3c0-0.8,0.1-1.4,0.3-2
					c0.6-2.1,2.3-3.4,4.4-3.4c1.7,0,2.3,0.8,2.3,3.3v7.6c0,1.8,0.9,2.8,2.8,2.8h3.8v-4.1l-2,0V26z M103.6,23.6h-1.2
					c-0.3,0-0.3,0-0.3,0.1L96.9,37h-4.6l-5.2-13.3c0-0.1-0.1-0.1-0.1-0.1c0,0-0.1,0-0.2,0h-1.1v-4.1h2.3c1.8,0,2.6,0.5,3.2,2.1
					l3.4,9l3.4-9c0.6-1.5,1.4-2.1,3.2-2.1h2.4l2.6,0c1.6,0,2.4,0.5,3,2.1l3.6,8.8l3.3-8.8c0.5-1.5,1.4-2.1,3-2.1h2.6v4.1h-1.2
					c-0.2,0-0.2,0-0.2,0s0,0-0.1,0.2l-6.4,15.7c-1.1,2.7-3.3,4.2-6,4.2c-2.7,0-4.3-1.8-4.4-1.8l-0.3-0.4l2.4-4.1l0.5,1.4
					c0.2,0.2,0.9,0.8,1.7,0.8c1.2,0,1.9-1.2,2.2-1.9l0.6-1.5l-5.4-12.5c-0.1-0.1-0.1-0.2-0.1-0.2c0,0-0.1,0-0.2,0L103.6,23.6
					L103.6,23.6z M132.1,23.2c2.3,0,3.9,2,3.9,5c0,3-1.6,5-4,5c-2.7,0-3.9-2.6-3.9-5C128.1,25.1,129.6,23.2,132.1,23.2 M132.7,19.1
					c-2.1,0-3.5,0.7-4.5,1.5v-4.7c0-1.8-1-2.8-2.8-2.8h-3.8v4.1l2-0.1c0,0,0,0,0,0.1V37h4.4v-1.1c0.9,0.8,2.4,1.5,4.4,1.5
					c4.8,0,8.2-3.8,8.2-9.2C140.6,22.8,137.4,19.1,132.7,19.1 M151.6,33.3c-2.8,0-4.9-2.2-4.9-5.1c0-2.8,2.1-5,4.9-5
					c2.8,0,4.9,2.1,4.9,5C156.4,31.1,154.3,33.3,151.6,33.3 M151.6,19.1c-5.4,0-9.5,3.9-9.5,9.1c0,5.2,4.1,9.2,9.5,9.2
					c5.3,0,9.5-4,9.5-9.2C161.1,23.1,156.9,19.1,151.6,19.1 M172.7,28l2.8-4.2c0.2-0.2,0.2-0.3,0.8-0.3h1.7v-4.1h-2.7
					c-1.8,0-2.5,0.4-3.5,2l-1.9,3l-1.9-3c-1-1.6-1.7-2-3.5-2h-2.7v4.1h1.7c0.5,0,0.6,0.1,0.7,0.3l2.8,4.2l-6,9h5.3l3.5-5.4l3.5,5.4
					h5.3L172.7,28z"/>
				<g id="logo-icecream" transform="translate(0.000000, 0.487805)">
					<path id="Combined-Shape" class="st0" d="M21.7,45.3l-2.1,5.5c-0.7,1.8-2.7,2.7-4.4,2c-0.9-0.3-1.7-1.1-2-2L4.5,28.3
						C4,26.7,4.7,25,6.3,24.4c0.3-0.1,0.7-0.2,1.1-0.2h18c1.7,0,3,1.3,3,3c0,0.4-0.1,0.7-0.2,1l0,0c-0.4,1.2-1.6,1.9-2.8,1.9H14.3
						c-1.1,0-1.9,0.9-1.9,1.9c0,1.1,0.9,1.9,1.9,1.9h8.1c1.4,0,2.6,1.1,2.6,2.6l0,0c0,1.4-1.1,2.6-2.6,2.6h-5.5
						C15.8,39.1,15,40,15,41s0.9,1.9,1.9,1.9h3.2c0.9,0,1.7,0.8,1.7,1.7C21.9,44.9,21.8,45.1,21.7,45.3z"/>
					<g id="Group-3" transform="translate(0.469325, 0.000000)">
						<path id="Fill-550" class="st0" d="M14.2,13.7c0,3.8-3.2,7-7.1,7c-3.9,0-7.1-3.1-7.1-7c0-3.8,3.2-7,7.1-7
							C11,6.7,14.2,9.8,14.2,13.7"/>
						<path id="Fill-551" class="st0" d="M26.6,9.9c0,5.4-4.4,9.7-9.9,9.7c-5.4,0-9.9-4.3-9.9-9.7s4.4-9.7,9.9-9.7
							C22.2,0.2,26.6,4.5,26.6,9.9"/>
						<path id="Fill-552" class="st0" d="M31.4,14.7c0,3.3-2.7,5.9-6,5.9s-6-2.7-6-5.9c0-3.3,2.7-5.9,6-5.9S31.4,11.4,31.4,14.7"/>
					</g>
				</g>
				<path id="Соединяет-в-себе-луч" class="st1" d="M48.8,48.9c0,1.9,1.3,3.4,3.4,3.4c1.2,0,2-0.5,2.6-1l-0.5-0.7
					c-0.5,0.5-1.3,0.8-2,0.8c-1.5,0-2.5-1.2-2.5-2.6c0-1.4,0.9-2.5,2.4-2.5c0.7,0,1.4,0.3,1.9,0.7l0.5-0.7c-0.6-0.6-1.6-0.9-2.4-0.9
					C50.2,45.6,48.8,47,48.8,48.9z M55.4,49.9c0-1.4,1.1-2.4,2.5-2.4c1.4,0,2.6,1,2.6,2.4c0,1.4-1.1,2.5-2.5,2.5
					C56.5,52.3,55.4,51.3,55.4,49.9z M56.3,49.9c0,1,0.7,1.7,1.6,1.7c0.9,0,1.6-0.7,1.6-1.7c0-1-0.7-1.7-1.6-1.7
					C57,48.2,56.3,48.9,56.3,49.9z M61.2,49.9c0-1.5,1-2.4,2.4-2.4c1.3,0,2,1,2,2.2c0,0.1,0,0.2,0,0.4h-3.4c0,1,0.8,1.6,1.6,1.6
					c0.5,0,1-0.2,1.4-0.5l0.4,0.7c-0.5,0.4-1.2,0.7-1.8,0.7C62.3,52.3,61.2,51.3,61.2,49.9z M62.2,49.3h2.5c0-0.8-0.5-1.2-1.2-1.2
					C62.9,48.1,62.3,48.6,62.2,49.3z M67.7,51.5h2.1v-3.2h-1.4v0.2C68.4,49.2,68.3,50.5,67.7,51.5z M66.2,51.5h0.6
					c0.7-0.9,0.7-2.4,0.7-3.1v-0.9h3.2v3.9h0.7v1.8h-0.8v-1.1H67v1.1h-0.9V51.5z M72.3,52.2h0.9l2-2.8c0.1-0.2,0.4-0.5,0.4-0.6h0
					c0,0.1,0,0.4,0,0.6v2.8h0.9v-4.7h-0.9l-2,2.8c-0.2,0.2-0.4,0.5-0.4,0.6h0c0,0,0-0.4,0-0.6v-2.8h-0.9V52.2z M77.9,52.2h0.9v-2
					h2.4v2h0.9v-4.7h-0.9v1.9h-2.4v-1.9h-0.9V52.2z M83.1,52.2l1.1-1.6c0.1-0.2,0.2-0.3,0.2-0.3v0c-0.5-0.1-1-0.6-1-1.4
					c0-1,0.7-1.5,1.7-1.5h1.9v4.7H86v-1.7h-0.8l-1.2,1.7H83.1z M85.2,49.9H86v-1.7h-0.8c-0.6,0-1,0.2-1,0.8
					C84.3,49.6,84.7,49.9,85.2,49.9z M88,49.9c0-1.5,1-2.4,2.4-2.4c1.3,0,2,1,2,2.2c0,0.1,0,0.2,0,0.4H89c0,1,0.8,1.6,1.6,1.6
					c0.5,0,1-0.2,1.4-0.5l0.4,0.7c-0.5,0.4-1.2,0.7-1.8,0.7C89,52.3,88,51.3,88,49.9z M89,49.3h2.5c0-0.8-0.5-1.2-1.2-1.2
					C89.7,48.1,89.1,48.6,89,49.3z M94.6,52.2h0.9v-3.9h1.7v-0.8H93v0.8h1.6V52.2z M100.4,52.2v-4.7h2c1,0,1.6,0.4,1.6,1.2
					c0,0.5-0.2,0.8-0.7,1v0c0.6,0.1,0.9,0.6,0.9,1.1c0,0.9-0.7,1.3-1.7,1.3H100.4z M101.3,49.5h0.9c0.5,0,0.8-0.3,0.8-0.7
					c0-0.4-0.3-0.6-0.8-0.6h-0.9V49.5z M101.3,51.6h1c0.7,0,1-0.3,1-0.7c0-0.5-0.3-0.7-1-0.7h-1V51.6z M107.3,49.9
					c0,1.4,1,2.4,2.5,2.4c0.7,0,1.5-0.3,1.9-0.7l-0.4-0.7c-0.4,0.4-0.9,0.6-1.5,0.6c-1,0-1.7-0.7-1.7-1.7s0.7-1.7,1.6-1.7
					c0.5,0,1,0.2,1.3,0.5l0.4-0.6c-0.4-0.5-1.2-0.7-1.8-0.7C108.4,47.4,107.3,48.5,107.3,49.9z M112.3,49.9c0-1.5,1-2.4,2.4-2.4
					c1.3,0,2,1,2,2.2c0,0.1,0,0.2,0,0.4h-3.4c0,1,0.8,1.6,1.6,1.6c0.5,0,1-0.2,1.4-0.5l0.4,0.7c-0.5,0.4-1.2,0.7-1.8,0.7
					C113.3,52.3,112.3,51.3,112.3,49.9z M113.3,49.3h2.5c0-0.8-0.5-1.2-1.2-1.2C114,48.1,113.4,48.6,113.3,49.3z M117.6,49.5
					c0-1.7,0.5-2.7,2.1-3.4l1.7-0.7l0.3,0.7l-1.8,0.7c-0.9,0.4-1.4,1-1.5,1.9h0c0.4-0.6,1-0.8,1.7-0.8c1.2,0,2,0.8,2,2.2
					c0,1.3-0.9,2.2-2.2,2.2C118.3,52.3,117.6,51.1,117.6,49.5z M118.6,50.1c0,0.9,0.6,1.5,1.3,1.5c0.7,0,1.4-0.5,1.4-1.4
					c0-0.9-0.6-1.5-1.3-1.5C119.1,48.7,118.6,49.3,118.6,50.1z M123,49.9c0-1.5,1-2.4,2.4-2.4c1.3,0,2,1,2,2.2c0,0.1,0,0.2,0,0.4
					h-3.4c0,1,0.8,1.6,1.6,1.6c0.5,0,1-0.2,1.4-0.5l0.4,0.7c-0.5,0.4-1.2,0.7-1.8,0.7C124,52.3,123,51.3,123,49.9z M124,49.3h2.5
					c0-0.8-0.5-1.2-1.2-1.2C124.6,48.1,124.1,48.6,124,49.3z M130.3,52.2c1.4-0.1,1.9-1.2,1.9-3.3v-0.7h1.4v3.9h0.9v-4.7h-3.2V49
					c0,1.7-0.4,2.4-1.1,2.5V52.2z M135.7,53.2l-0.3,0.7c0,0,0.4,0.3,0.9,0.3c0.7,0,1.3-0.4,1.5-1.1l2.2-5.5h-1l-1.2,3.1
					c-0.1,0.2-0.2,0.6-0.2,0.6h0c0,0-0.1-0.3-0.2-0.6l-1.2-3.1h-1l2,4.6l-0.2,0.5c-0.2,0.4-0.5,0.7-0.9,0.7
					C136,53.4,135.7,53.2,135.7,53.2z M142.3,50.6c0.5,0,1-0.2,1.3-0.3h0c0,0,0,0.1,0,0.3v1.7h0.9v-4.7h-0.9v1.9
					c-0.2,0.1-0.6,0.3-1,0.3c-0.8,0-0.9-0.4-0.9-0.9v-1.4h-0.9v1.5C140.7,50.1,141.3,50.6,142.3,50.6z M145.9,52.2h6.1v-4.7h-0.9
					v3.9h-1.8v-3.9h-0.9v3.9h-1.8v-3.9h-0.9V52.2z M153.1,49.9c0-1.5,1-2.4,2.4-2.4c1.3,0,2,1,2,2.2c0,0.1,0,0.2,0,0.4H154
					c0,1,0.8,1.6,1.6,1.6c0.5,0,1-0.2,1.4-0.5l0.4,0.7c-0.5,0.4-1.2,0.7-1.8,0.7C154.1,52.3,153.1,51.3,153.1,49.9z M154.1,49.3h2.5
					c0-0.8-0.5-1.2-1.2-1.2C154.8,48.1,154.2,48.6,154.1,49.3z M158.3,49.9c0-1.5,1-2.4,2.4-2.4c1.3,0,2,1,2,2.2c0,0.1,0,0.2,0,0.4
					h-3.4c0,1,0.8,1.6,1.6,1.6c0.5,0,1-0.2,1.4-0.5l0.4,0.7c-0.5,0.4-1.2,0.7-1.8,0.7C159.3,52.3,158.3,51.3,158.3,49.9z
					 M159.3,49.3h2.5c0-0.8-0.5-1.2-1.2-1.2C160,48.1,159.4,48.6,159.3,49.3z"/>
			</g>
		</g>
	</g>
</g>
</svg>
