<svg xmlns="http://www.w3.org/2000/svg" xmlns:xlink="http://www.w3.org/1999/xlink" xmlns:svg="http://www.w3.org/2000/svg"><defs>
        <path id="a" d="M0 0h12.199v16.472H0z"/>
    </defs><symbol id="act" viewBox="0 0 16 16"><title>act</title><path d="M4.25,1 C3.5625,1 3.00625,1.54 3.00625,2.2 L3,12.8 C3,13.46 3.55625,14 4.24375,14 L11.75,14 C12.4375,14 13,13.46 13,12.8 L13,4.6 L9.25,1 L4.25,1 Z M8.625,5.2 L8.625,1.9 L12.0625,5.2 L8.625,5.2 Z" id="Shape" fill-rule="nonzero"/></symbol><symbol id="angle-down" viewBox="0 0 16 10"><path d="M 1.7792967,0.47558593 0.36523419,1.8896484 7.9999998,9.5244141 15.634766,1.8896484 14.220703,0.47558593 7.9999998,6.6962891 1.7792967,0.47558593 Z"/></symbol><symbol id="arrow-down" viewBox="0 0 16 16">
  <path d="M 8.0000001,15.669922 15.634766,8.0371095 14.220703,6.6230471 9.0000001,11.841797 l 0,-11.51171896 -2,0 0,11.51171896 L 1.7792971,6.6230471 0.36523404,8.0371095 8.0000001,15.669922 Z"/>
</symbol><symbol id="arrow-up" viewBox="0 0 16 16">
  <path d="M 8.0000001,0.33007809 15.634766,7.9628906 14.220703,9.376953 9.0000001,4.1582031 l 0,11.5117189 -2,0 0,-11.5117189 L 1.7792971,9.376953 0.36523409,7.9628906 8.0000001,0.33007809 Z"/>
</symbol><symbol id="articles" viewBox="0 0 15 19">
<path d="M4.5 16H8.5" fill="none" stroke="currentColor" stroke-width="2" stroke-linecap="round" stroke-linejoin="round"/>
<path d="M1.5 7V4H11.5V7" fill="none" stroke="currentColor" stroke-width="2" stroke-linecap="round" stroke-linejoin="round"/>
<path d="M6.5 5V15" fill="none" stroke="currentColor" stroke-width="2" stroke-linecap="round" stroke-linejoin="round"/>
<path d="M14.5 1V18.5" fill="none" stroke="currentColor" stroke-linecap="round" stroke-linejoin="round"/>
</symbol><symbol id="bell" viewBox="0 0 12 15">
  <path d="m 6,0.1875 c -0.6225,0 -1.125,0.5025 -1.125,1.125 l 0,0.5097656 C 2.7225,2.3322656 1.5,4.2525 1.5,6.5625 l 0,3.75 -1.5,1.5 0,0.75 12,0 0,-0.75 -1.5,-1.5 0,-3.75 C 10.5,4.26 9.27,2.3322656 7.125,1.8222656 L 7.125,1.3125 C 7.125,0.69 6.6225,0.1875 6,0.1875 Z m -1.5,13.125 c 0,0.825 0.6675,1.5 1.5,1.5 0.825,0 1.5,-0.675 1.5,-1.5 l -3,0 z"/>
</symbol><symbol id="billing" viewBox="0 0 16 16"><title>act</title><path d="M4.25,1 C3.5625,1 3.00625,1.54 3.00625,2.2 L3,12.8 C3,13.46 3.55625,14 4.24375,14 L11.75,14 C12.4375,14 13,13.46 13,12.8 L13,4.6 L9.25,1 L4.25,1 Z M8.625,5.2 L8.625,1.9 L12.0625,5.2 L8.625,5.2 Z" id="Shape" fill-rule="nonzero"/></symbol><symbol id="case" viewBox="0 0 15 15">
    <g fill="none" fill-rule="evenodd">
        <g>
            <g transform="scale(.9), translate(0, 2)">
                <path fill="#FFF" d="M2.271 12.511L11.464 12.511 11.464 1.274 2.271 1.274z" transform="translate(-983 -622) translate(983.458 621.9)"/>
                <g>
                    <path stroke="currentColor" d="M11.637 4.714L11.637 0.229 2.373 0.229 2.373 2.646" transform="translate(-983 -622) translate(983.458 621.9) translate(0 .683)"/>
                    <path fill="#FFF" d="M.425 4.871v7.845c0 .251.203.454.454.454h11.979c.25 0 .452-.203.452-.454V6.33c0-.25-.203-.454-.452-.454H7.189c-.128 0-.254-.046-.352-.13L5.44 4.548c-.098-.084-.223-.13-.352-.13H.88c-.251 0-.454.202-.454.453" transform="translate(-983 -622) translate(983.458 621.9) translate(0 .683)"/>
                    <path stroke="currentColor" stroke-width="1.7" d="M.425 4.871v7.845c0 .251.203.454.454.454h11.979c.25 0 .452-.203.452-.454V7.063c0-.251-.203-.454-.452-.454-.167 0-1.811.012-4.933.036-.128 0-.254-.046-.351-.13L5.439 4.548c-.098-.084-.223-.13-.352-.13H.88c-.251 0-.454.202-.454.453z" transform="translate(-983 -622) translate(983.458 621.9) translate(0 .683)"/>
                </g>
            </g>
        </g>
    </g>
</symbol><symbol id="chair" viewBox="0 0 16 20">
<style type="text/css">
	.st0{fill:#84939C;}
</style>
<g stroke="none" id="XMLID_9_">
	<path id="XMLID_23_" class="st0" d="M4.1,8.8c0.1,0.9,0.4,1.6,1.7,1.6c1.1,0,1.8,0,2,0c0.1,0,0.1,0,0.1,0h0.4c0,0,0,0,0,0
		c0.1,0,0.9,0,2.1,0c1.3,0,1.6-0.8,1.7-1.6s0.4-3.4,0.4-3.9c0-0.5,0.5-2-0.7-3.5C10.6,0,8.3,0,8.3,0c0,0,0,0,0,0H7.9c0,0,0,0,0,0
		c0,0-2.4,0-3.5,1.5C3.2,2.9,3.6,4.4,3.7,4.9C3.7,5.4,3.9,8,4.1,8.8z"/>
	<path id="XMLID_27_" class="st0" d="M13.9,7.1c-0.5,0-0.9,0.4-0.9,0.9v2.4c0,0.8-0.7,1.3-1.2,1.3H8.1c0,0,0,0,0,0c0,0,0,0,0,0
		c0,0,0,0-0.1,0c0,0,0,0-0.1,0H4.1c-0.7,0-1.2-0.8-1.2-1.3V7.9c0-0.5-0.4-0.9-0.9-0.9S1.2,7.4,1.2,7.9v2.4c0,1.4,1.2,3,2.9,3h3.1
		v2.2l-4,1.3c-0.5,0.2-0.8,0.6-0.8,1.1v0.8c0,0.5,0.4,0.9,0.9,0.9s0.9-0.4,0.9-0.9v-0.4l3.1-1v1.5c0,0.5,0.4,0.9,0.9,0.9
		s0.9-0.4,0.9-0.9v-1.4l3.1,1v0.4c0,0.5,0.4,0.9,0.9,0.9s0.9-0.4,0.9-0.9v-0.8c0-0.5-0.3-1-0.8-1.1l-4-1.3v-2.2h3
		c1.7,0,2.9-1.6,2.9-3V7.9C14.8,7.4,14.4,7.1,13.9,7.1z"/>
</g>
</symbol><symbol id="checkmark" viewBox="0 0 16 12">
  <path d="M 14.15625,0.25292945 5.9570313,8.8251956 1.8671875,4.3896481 0.39843756,5.7431637 5.9296875,11.747071 15.601562,1.6337887 14.15625,0.25292945 Z"/>
</symbol><symbol id="cogwheel" viewBox="0 0 14 14">
    <path d="m 5.720703,0.5996092 c -0.16,0 -0.2885,0.1114843 -0.3125,0.2714843 L 5.1679687,2.5683592 C 4.7759686,2.7283592 4.4158905,2.943406 4.0878905,3.191406 L 2.4960937,2.5527342 c -0.1440001,-0.056 -0.3125782,-0.00142 -0.3925782,0.1425781 L 0.82421861,4.9121092 c -0.08,0.144 -0.0479219,0.3122031 0.0800781,0.4082031 L 2.2558593,6.3769529 c -0.032,0.2 -0.056641,0.4150469 -0.056641,0.6230469 0,0.208 0.016828,0.4230469 0.048828,0.6230469 L 0.89648424,8.6796873 c -0.12,0.096 -0.15207813,0.2722031 -0.0800781,0.4082035 L 2.095703,11.304688 c 0.08,0.144 0.2485781,0.190578 0.3925781,0.142578 L 4.080078,10.808594 c 0.336,0.256 0.6880781,0.463047 1.0800781,0.623047 l 0.2402344,1.697265 c 0.032,0.16 0.1603125,0.271485 0.3203125,0.271485 l 2.5585938,0 c 0.16,0 0.2965,-0.111485 0.3125,-0.271485 l 0.2402343,-1.697265 c 0.392,-0.16 0.7520782,-0.375047 1.0800782,-0.623047 l 1.5917967,0.638672 c 0.144,0.056 0.312578,0.0014 0.392578,-0.142578 l 1.279297,-2.2167972 c 0.08,-0.1440004 0.04792,-0.3122035 -0.08008,-0.4082035 L 11.759766,7.6230467 c 0.024,-0.2 0.04101,-0.4070469 0.04101,-0.6230469 0,-0.216 -0.01683,-0.4230469 -0.04883,-0.6230469 l 1.351563,-1.0566406 c 0.12,-0.096 0.152078,-0.2722031 0.08008,-0.4082031 L 11.904297,2.6953123 c -0.08,-0.144 -0.248578,-0.1905781 -0.392578,-0.1425781 L 9.9199218,3.191406 c -0.336,-0.256 -0.6880782,-0.4630468 -1.0800781,-0.6230468 L 8.5996093,0.8710935 c -0.024,-0.16 -0.1603125,-0.2714843 -0.3203125,-0.2714843 l -2.5585938,0 z m 1.2792969,4 c 1.32,0 2.4003906,1.0803906 2.4003906,2.4003906 0,1.32 -1.0803906,2.400391 -2.4003906,2.400391 -1.32,0 -2.4003906,-1.080391 -2.4003906,-2.400391 0,-1.32 1.0803906,-2.4003906 2.4003906,-2.4003906 z"/>
</symbol><symbol id="email" viewBox="0 0 14 10">
  <path d="M 1.4843753,0 C 1.099273,0 0.80131918,0.11553831 0.59375025,0.34765625 0.38620759,0.5798211 0.27148462,1.1771903 0.27148462,1.5253906 c 0,0.2812577 5.48048858,4.3242188 6.67187498,4.3242188 1.1913865,0 6.7851554,-3.9715618 6.7851554,-4.3242188 0,-0.2946978 -0.119817,-1.00112594 -0.357421,-1.21093748 C 13.133515,0.10459468 12.852348,0 12.527344,0 L 1.4843753,0 Z m -1.20117193,2.8457031 0,5.9238281 c 0,0.3384342 0.11840793,0.6282789 0.35351562,0.8691407 C 0.87177414,9.8796144 1.1542469,10 1.4843753,10 L 12.527344,10 C 12.857393,10 13.139918,9.8796144 13.375,9.6386719 13.61016,9.3977293 13.728516,9.1079924 13.728515,8.7695312 l 0,-5.9238281 c -0.21511,0.2458696 -5.5145187,4.2382813 -6.7226554,4.2382813 -1.2081366,0 -6.50257945,-3.9872153 -6.72265623,-4.2382813 z"/>
</symbol><symbol id="events" viewBox="0 0 24 24">
<path d="M19.9,12c0,1.9,2,2,2,2V17c0,0.6-0.4,1-1,1H3c-0.6,0-1-0.4-1-1V14c0,0,2-0.1,2-2s-2-2-2-2V7c0-0.6,0.4-1,1-1H21
	c0.6,0,1,0.4,1,1V10C22,10,19.9,10.1,19.9,12z" fill="none" stroke="currentColor" stroke-width="2" stroke-miterlimit="10"/>
<line x1="8.6" y1="6.2" x2="8.6" y2="9.1" fill="none" stroke="currentColor" stroke-linecap="round" stroke-miterlimit="10"/>
<line x1="8.6" y1="14.9" x2="8.6" y2="17.8" fill="none" stroke="currentColor" stroke-linecap="round" stroke-miterlimit="10"/>
<line x1="8.6" y1="11" x2="8.6" y2="13" fill="none" stroke="currentColor" stroke-linecap="round" stroke-miterlimit="10"/>
</symbol><symbol id="goblet" viewBox="0 0 14 13">
  <path d="m 2.9999998,0 0,1 -3.02539061,0 0.05078125,0.5449219 C 0.21251392,3.6214224 1.4619189,5.3910713 3.222656,6.3144531 3.6589652,7.5693353 4.7008797,8.5386765 5.9999998,8.8730469 l 0,2.1269531 c -1.1045695,0 -2,0.89543 -2,2 l 6,0 c 0,-1.104569 -0.8954305,-2 -2,-2 l 0,-2.1269531 C 9.2991199,8.5386765 10.341035,7.5693353 10.777344,6.3144531 12.538081,5.3910713 13.787486,3.6214224 13.974609,1.5449219 L 14.025391,1 11,1 11,0 2.9999998,0 Z m -1.8261719,2 1.8261719,0 0,2.9511719 C 2.0844359,4.2290572 1.4227076,3.1935029 1.1738279,2 Z M 11,2 12.826172,2 C 12.577292,3.1935029 11.915564,4.2290572 11,4.9511719 L 11,2 Z"/>
</symbol><symbol id="hammer" viewBox="0 0 18 17">
    <g stroke="none" fill-rule="evenodd">
        <path d="M17.69 7.636c-.037-.17-.143-.293-.257-.415-1.66-1.775-3.318-3.553-4.978-5.328-.226-.242-.446-.493-.698-.706-.66-.558-1.432-.78-2.29-.695a3.037 3.037 0 0 0-2.635 2.28c-.263 1.073-.028 2.04.722 2.85 1.766 1.91 3.548 3.807 5.323 5.709l.094.1c.241.251.573.265.832.033l1.458-1.309c.703-.63 1.404-1.263 2.109-1.892.14-.124.271-.25.32-.44v-.187zM10.288 9.873L7.728 7.13c-.027.026-.052.049-.075.073-2.057 2.067-4.11 4.138-6.172 6.199-.979.976-.645 2.608.632 3.086.724.272 1.402.14 1.955-.402 1.037-1.016 2.053-2.054 3.077-3.084l3.061-3.076c.022-.021.053-.035.082-.053M13.467 1.658l2.294 2.459c.224-.43.226-1.22-.228-1.816a1.857 1.857 0 0 0-2.066-.643"/>
    </g>
</symbol><symbol id="hat" viewBox="0 0 18 13">
    <g stroke="none" fill-rule="evenodd">
        <path d="M17.991 3.62c-.075.26-.265.347-.517.405-.552.13-.113-.014-.659.138-.28.079-.28.08-.28.374 0 .659.001 1.318-.001 1.976 0 .068.018.11.076.151a.885.885 0 0 1 .053 1.42c-.065.055-.08.1-.065.182.134.777.267 1.502.395 2.28a.656.656 0 0 1-.173.507c-.156.147-.22.2-.427.227-.322.042-.955.085-1.223-.117-.175-.132-.308-.387-.267-.617.135-.761.515-1.555.645-2.318.01-.06-.006-.09-.05-.126-.488-.396-.465-1.077.044-1.45.03-.022.062-.066.062-.1.003-.673.002-1.346.001-2.02-.285.048-1.545.436-1.822.513-1.504.417-3.007.836-4.512 1.25a.877.877 0 0 1-.478.003C6.093 5.545 3.392 4.796.69 4.047.667 4.04.642 4.03.617 4.029c-.25-.017-.404-.152-.478-.387V3.47c.08-.23.233-.367.484-.379.028 0 .056-.014.084-.022L8.119 1.01c.294-.082.587-.17.88-.256h.131c.033.013.065.029.099.038.908.252 1.815.507 2.724.755 1.893.517 3.786 1.03 5.68 1.543.192.052.29.187.358.357v.174z"/>
        <path d="M13.953 6.485c0 1.033-.008 2.825.004 3.858.004.386-.152.678-.427.923-.403.359-.964.713-1.468.878-1.136.37-2.229.43-3.417.404-.903-.02-1.871-.122-2.74-.378-.539-.159-.982-.454-1.427-.808a2.394 2.394 0 0 1-.378-.398.784.784 0 0 1-.162-.492v-4.07c0-.019.004-.038.007-.07.107.029.208.054.308.082 1.485.419 2.969.841 4.457 1.25.15.042.33.04.481-.002 1.563-.43 3.123-.872 4.684-1.311l.078-.02v.154z"/>
    </g>
</symbol><symbol id="image" viewBox="0 0 18 14">
    <g fill="none" fill-rule="evenodd" transform="translate(0 -.037)">
        <path fill="currentColor" d="M2.801 11.111L2.801 10 5.578 7.208 6.976 8.67 11.38 4.194 14.896 7.697 14.896 11.111z"/>
        <circle cx="4.601" cy="4.416" r="1.693" fill="currentColor"/>
        <rect width="15.457" height="11.745" x="1.023" y=".927" stroke="currentColor" stroke-width="1.2" rx="2"/>
    </g>
</symbol><symbol id="info" viewBox="0 0 12 11">
    <path d="M 6.0039062,0.5 C 4.6267643,0.5 3.5,1.6236369 3.5,3 3.5,4.3763631 4.6267643,5.5 6.0039062,5.5 7.3810484,5.5 8.5,4.3740099 8.5,3 8.5,1.6259901 7.3810484,0.5 6.0039062,0.5 Z M 6,6.5 C 5.1092735,6.5 3.8404402,6.6488416 2.7402344,6.9570312 2.1901315,7.1111261 1.6843849,7.3004194 1.2753906,7.5644531 0.86639638,7.8284869 0.5,8.2201438 0.5,8.75 l 0,1.75 11,0 0,-1.75 C 11.5,8.2201438 11.133604,7.8284869 10.724609,7.5644531 10.315615,7.3004194 9.8098685,7.1111261 9.2597656,6.9570312 8.1595598,6.6488416 6.8907265,6.5 6,6.5 Z"/>
</symbol><symbol id="key" viewBox="0 0 17 10">
    <g fill="none" fill-rule="evenodd">
        <path stroke-width="3" d="M8.179 4.57a3.002 3.002 0 1 0-6.003 0 3.002 3.002 0 0 0 6.003 0z"/>
        <path stroke-linecap="round" stroke-width="3" d="M9.004 4.494h6.378"/>
        <path stroke-linecap="round" stroke-width="2.7" d="M13.431 4.944V7"/>
    </g>
</symbol><symbol id="leads" viewBox="0 0 16 16">
    <g stroke="none" stroke-width="1" fill-rule="evenodd">
        <g transform="translate(-982.000000, -669.000000)">
            <g transform="translate(982.886230, 669.142090)">
                <path d="M1.91663189,7.03148098 C1.59563661,7.59748081 1.27195858,8.16198328 0.955268204,8.73035392 C0.854321586,8.91165853 0.733223078,9.05914791 0.515358065,9.08622506 C0.162855969,9.13014744 -0.0815870782,8.80297559 0.0253489561,8.41728214 C0.307662582,7.39933096 0.594842609,6.38268995 0.884268666,5.36667285 C1.19384661,4.27978099 1.26740413,4.2261258 2.38717539,4.2261258 C5.86740052,4.2261258 9.34762564,4.22606341 12.8279132,4.22618819 C13.5726596,4.22618819 13.7753639,4.37823201 13.9771324,5.08853934 C14.2855873,6.17443296 14.5947909,7.26013942 14.9010622,8.34659455 C15.0038805,8.71144982 14.9177827,8.94603529 14.6531877,9.05091246 C14.3813556,9.15859717 14.1748455,9.05652754 13.9814373,8.7121985 C13.6822784,8.17939002 13.3858647,7.64508419 13.0882032,7.11146464 C12.917692,7.03485003 13.0356086,7.21833829 12.9730941,7.23911407 C12.8844383,9.40977831 12.7961568,11.5805049 12.7066275,13.7511692 C12.6980801,13.9587399 12.6925898,14.1674336 12.6663237,14.373195 C12.6149769,14.7751098 12.3274226,15.0382074 11.9658116,15.0312821 C11.6081935,15.0244192 11.3207639,14.750653 11.2795867,14.3535422 C11.2302364,13.8781323 11.1953605,13.4012251 11.1573028,12.9247545 C11.1076405,12.3032902 11.0621584,11.6813892 11.0120594,11.0599249 C11.0036992,10.9567322 10.987977,10.8528533 10.9631459,10.7523434 C10.9030645,10.5093353 10.730744,10.3739495 10.4929143,10.3719531 C10.2694966,10.3700814 10.0977376,10.4949857 10.0281107,10.7202127 C9.93178088,11.0315375 9.94881329,11.3580855 9.91924054,11.6773962 C9.83969361,12.5361288 9.78229504,13.3968578 9.71366631,14.2565886 C9.67991346,14.6790296 9.48569416,14.9373231 9.13911909,15.0094457 C8.83085133,15.07352 8.59189858,14.9548547 8.41652099,14.7000549 C8.32499522,14.5671023 8.29991454,14.4117519 8.29211582,14.2571501 C8.18399438,12.1082598 8.07874287,9.95918246 7.97292985,7.81016747 C7.95146778,7.37418789 7.92127114,6.93827069 7.91353481,6.50197916 C7.91060249,6.33446267 7.85445172,6.29971158 7.69691759,6.29634254 C7.05355447,6.28274157 7.06091646,6.27718888 7.02947203,6.90794927 C6.90774962,9.34757573 6.78165994,11.7869526 6.65557025,14.2263295 C6.63317233,14.659252 6.45348984,14.9100588 6.11209312,15.0014598 C5.82148166,15.0793222 5.52494317,14.961468 5.35967272,14.6990567 C5.26278143,14.5453283 5.24138175,14.3711361 5.22753122,14.194074 C5.14336745,13.1166654 5.05932845,12.0392568 4.97023589,10.9622849 C4.9403512,10.6010482 4.72697825,10.364092 4.45227617,10.3654645 C4.18113031,10.3667123 3.98416586,10.56611 3.95060018,10.9365803 C3.84840576,12.064587 3.76524023,13.1942783 3.66841133,14.3227217 C3.63228767,14.7433534 3.34872624,15.025667 2.97962847,15.0316564 C2.60622581,15.0377082 2.32840425,14.7678102 2.27287737,14.3425616 C2.26214633,14.2602072 2.25609452,14.1769792 2.25272548,14.0939385 C2.18347285,12.4009926 2.1150313,10.7079843 2.04615301,9.01497596 C2.02200818,8.423022 1.99698989,7.83106804 1.97240832,7.23911407 C1.91912748,7.17921991 1.99836246,7.08376359 1.91663189,7.03148098" id="Fill-1"/>
                <path d="M2.59347335,1.93209207 C2.59422202,0.905406314 3.42693804,0.0668256629 4.45006757,0.0623959906 C5.47444491,0.0579663182 6.34833816,0.936039682 6.32843582,1.94974837 C6.30834632,2.97487437 5.46190456,3.80939969 4.44800871,3.80372222 C3.4241305,3.79791998 2.59272467,2.95884021 2.59347335,1.93209207" id="Fill-4"/>
                <path d="M12.351923,1.92179776 C12.3585987,2.94717333 11.5319969,3.79043321 10.5077444,3.80316072 C9.48436526,3.81588823 8.61159502,2.95066715 8.6172101,1.92891019 C8.6227004,0.912144407 9.47038995,0.0653283089 10.4850969,0.0627703291 C11.5065419,0.060274739 12.3452473,0.895423954 12.351923,1.92179776" id="Fill-7"/>
            </g>
        </g>
    </g>
</symbol><symbol id="man" viewBox="0 0 12 11">
    <path d="M 6.0039062,0.5 C 4.6267643,0.5 3.5,1.6236369 3.5,3 3.5,4.3763631 4.6267643,5.5 6.0039062,5.5 7.3810484,5.5 8.5,4.3740099 8.5,3 8.5,1.6259901 7.3810484,0.5 6.0039062,0.5 Z M 6,6.5 C 5.1092735,6.5 3.8404402,6.6488416 2.7402344,6.9570312 2.1901315,7.1111261 1.6843849,7.3004194 1.2753906,7.5644531 0.86639638,7.8284869 0.5,8.2201438 0.5,8.75 l 0,1.75 11,0 0,-1.75 C 11.5,8.2201438 11.133604,7.8284869 10.724609,7.5644531 10.315615,7.3004194 9.8098685,7.1111261 9.2597656,6.9570312 8.1595598,6.6488416 6.8907265,6.5 6,6.5 Z"/>
</symbol><symbol id="money" viewBox="0 0 18 16">
    <g fill="none" fill-rule="evenodd">
        <path fill="#FFF" d="M16.652 2.723c0-1.107-2.117-2.004-4.73-2.004-2.612 0-4.73.897-4.73 2.004 0 1.106 2.118 2.003 4.73 2.003 2.613 0 4.73-.897 4.73-2.003" transform="translate(.048 .05)"/>
        <path stroke="currentColor" stroke-width="1.2" d="M16.652 2.723c0-1.107-2.117-2.004-4.73-2.004-2.612 0-4.73.897-4.73 2.004 0 1.106 2.118 2.003 4.73 2.003 2.613 0 4.73-.897 4.73-2.003z" transform="translate(.048 .05)"/>
        <g>
            <path fill="#FFF" d="M.48.373c0 1.107 2.117 2.003 4.73 2.003 2.611 0 4.73-.896 4.73-2.003" transform="translate(.048 .05) translate(6.713 5.008)"/>
            <path stroke="currentColor" stroke-width="1.2" d="M.48.373c0 1.107 2.117 2.003 4.73 2.003 2.611 0 4.73-.896 4.73-2.003" transform="translate(.048 .05) translate(6.713 5.008)"/>
        </g>
        <g>
            <path fill="#FFF" d="M.48.154c0 1.107 2.117 2.004 4.73 2.004 2.611 0 4.73-.897 4.73-2.004" transform="translate(.048 .05) translate(6.713 7.884)"/>
            <path stroke="currentColor" stroke-width="1.2" d="M.48.154c0 1.107 2.117 2.004 4.73 2.004 2.611 0 4.73-.897 4.73-2.004" transform="translate(.048 .05) translate(6.713 7.884)"/>
        </g>
        <g>
            <path fill="#FFF" d="M.48.875c0 1.106 2.117 2.003 4.73 2.003 2.611 0 4.73-.897 4.73-2.003" transform="translate(.048 .05) translate(6.713 9.802)"/>
            <path stroke="currentColor" stroke-width="1.2" d="M.48.875c0 1.106 2.117 2.003 4.73 2.003 2.611 0 4.73-.897 4.73-2.003" transform="translate(.048 .05) translate(6.713 9.802)"/>
        </g>
        <g>
            <path fill="#FFF" d="M.48.592v8.013" transform="translate(.048 .05) translate(6.713 2.13)"/>
            <path stroke="currentColor" stroke-width="1.2" d="M.48.592v8.013" transform="translate(.048 .05) translate(6.713 2.13)"/>
        </g>
        <path fill="#FFF" d="M0.79 8.191L0.79 13.506 5.305 14.784 9.86 13.465 9.86 8.231z" transform="translate(.048 .05)"/>
        <path fill="#FFF" d="M10.179 7.518c0-1.107-2.117-2.005-4.73-2.005-2.612 0-4.73.898-4.73 2.005 0 1.105 2.118 2.003 4.73 2.003 2.613 0 4.73-.898 4.73-2.003" transform="translate(.048 .05)"/>
        <path stroke="currentColor" stroke-width="1.2" d="M10.179 7.518c0-1.107-2.117-2.005-4.73-2.005-2.612 0-4.73.898-4.73 2.005 0 1.105 2.118 2.003 4.73 2.003 2.613 0 4.73-.898 4.73-2.003z" transform="translate(.048 .05)"/>
        <g>
            <path fill="#FFF" d="M.72.373c0 1.107 2.116 2.003 4.73 2.003 2.61 0 4.73-.896 4.73-2.003" transform="translate(.048 .05) translate(0 9.802)"/>
            <path stroke="currentColor" stroke-width="1.2" d="M.72.373c0 1.107 2.116 2.003 4.73 2.003 2.61 0 4.73-.896 4.73-2.003" transform="translate(.048 .05) translate(0 9.802)"/>
        </g>
        <g>
            <path fill="#FFF" d="M.72.154c0 1.107 2.116 2.004 4.73 2.004 2.61 0 4.73-.897 4.73-2.004" transform="translate(.048 .05) translate(0 12.68)"/>
            <path stroke="currentColor" stroke-width="1.2" d="M.72.154c0 1.107 2.116 2.004 4.73 2.004 2.61 0 4.73-.897 4.73-2.004" transform="translate(.048 .05) translate(0 12.68)"/>
        </g>
        <g>
            <path fill="#FFF" d="M.72.592V6.14" transform="translate(.048 .05) translate(0 6.925)"/>
            <path stroke="currentColor" stroke-width="1.2" d="M.72.592V6.14" transform="translate(.048 .05) translate(0 6.925)"/>
        </g>
        <g>
            <path fill="#FFF" d="M1.72 2.735v6.886" transform="translate(.048 .05) translate(14.909 1.295)"/>
            <path stroke="currentColor" stroke-width="1.2" d="M1.72 1.156V9.62" transform="translate(.048 .05) translate(14.909 1.295)"/>
        </g>
        <g>
            <path fill="#FFF" d="M.59.592V6.18" transform="translate(.048 .05) translate(9.59 6.925)"/>
            <path stroke="currentColor" stroke-width="1.2" d="M.59.592V6.18" transform="translate(.048 .05) translate(9.59 6.925)"/>
        </g>
    </g>
</symbol><symbol id="news" viewBox="0 0 24 24">
    <path d="M21 12C21 16.9706 16.9706 21 12 21H3.86159C3.47768 21 3.23699 20.5853 3.42747 20.2519L4.64529 17.6317C4.7226 17.4653 4.70168 17.2707 4.59721 17.1199C3.5901 15.6665 3 13.9021 3 12C3 7.02944 7.02944 3 12 3" fill="none" stroke-width="2" stroke-linecap="round"/>
    <path d="M9 14H15" stroke-width="2" stroke-linecap="round" fill="none"/>
    <path d="M9 10H11" stroke-width="2" stroke-linecap="round" fill="none"/>
    <path d="M21 6C21 7.65685 19.6569 9 18 9C16.3431 9 15 7.65685 15 6C15 4.34315 16.3431 3 18 3C19.6569 3 21 4.34315 21 6Z" stroke-width="2" fill="none"/>
</symbol><symbol id="news2" viewBox="0 0 20 20">
<path d="M3.25 4.25C3.25 3.69772 3.69772 3.25 4.25 3.25H12.25C12.8023 3.25 13.25 3.69772 13.25 4.25V15.75C13.25 16.3023 12.8023 16.75 12.25 16.75H4.25C3.69772 16.75 3.25 16.3023 3.25 15.75V4.25Z" fill="none" stroke="currentColor" stroke-width="1.58317"/>
<path d="M16.75 6.75V15.75C16.75 16.3023 16.3023 16.75 15.75 16.75H7.25" fill="none" stroke="currentColor" stroke-width="1.58317"/>
<path d="M5.75 7.0498H10.75" fill="none" stroke="currentColor" stroke-width="1.58317"/>
<path d="M5.75 10.0498H10.75" fill="none" stroke="currentColor" stroke-width="1.58317"/>
<path d="M5.75 13.0498H10.75" fill="none" stroke="currentColor" stroke-width="1.58317"/>
</symbol><symbol id="paper" viewBox="0 0 10 12">
  <path d="M 0 0 L 0 12 L 10 12 L 10 0 L 0 0 z M 2 2 L 8 2 L 8 3 L 2 3 L 2 2 z M 2 4 L 6 4 L 6 5 L 2 5 L 2 4 z M 2 6 L 8 6 L 8 7 L 2 7 L 2 6 z "/>
</symbol><symbol id="personal" viewBox="0 0 17 15">
    <g stroke="none" fill-rule="evenodd">
        <path d="M.184 14.912c.341-3.67 2.986-5.505 7.933-5.505v5.34l-7.933.165z"/>
        <path d="M15.778 14.912l-7.933-.165v-5.34c4.947 0 7.592 1.835 7.933 5.505z"/>
        <circle cx="7.938" cy="4.108" r="3.546"/>
    </g>
</symbol><symbol id="portfolio" viewBox="0 0 18 17">
    <path fill-rule="evenodd" d="M9.237-.08L6.585 5.292l-5.929.862 4.29 4.181-1.012 5.905 5.303-2.788 5.302 2.788-1.012-5.905 4.29-4.181-5.929-.862z"/>
</symbol><symbol id="profile" viewBox="0 0 14 14">
    <path d="m 5.720703,0.5996092 c -0.16,0 -0.2885,0.1114843 -0.3125,0.2714843 L 5.1679687,2.5683592 C 4.7759686,2.7283592 4.4158905,2.943406 4.0878905,3.191406 L 2.4960937,2.5527342 c -0.1440001,-0.056 -0.3125782,-0.00142 -0.3925782,0.1425781 L 0.82421861,4.9121092 c -0.08,0.144 -0.0479219,0.3122031 0.0800781,0.4082031 L 2.2558593,6.3769529 c -0.032,0.2 -0.056641,0.4150469 -0.056641,0.6230469 0,0.208 0.016828,0.4230469 0.048828,0.6230469 L 0.89648424,8.6796873 c -0.12,0.096 -0.15207813,0.2722031 -0.0800781,0.4082035 L 2.095703,11.304688 c 0.08,0.144 0.2485781,0.190578 0.3925781,0.142578 L 4.080078,10.808594 c 0.336,0.256 0.6880781,0.463047 1.0800781,0.623047 l 0.2402344,1.697265 c 0.032,0.16 0.1603125,0.271485 0.3203125,0.271485 l 2.5585938,0 c 0.16,0 0.2965,-0.111485 0.3125,-0.271485 l 0.2402343,-1.697265 c 0.392,-0.16 0.7520782,-0.375047 1.0800782,-0.623047 l 1.5917967,0.638672 c 0.144,0.056 0.312578,0.0014 0.392578,-0.142578 l 1.279297,-2.2167972 c 0.08,-0.1440004 0.04792,-0.3122035 -0.08008,-0.4082035 L 11.759766,7.6230467 c 0.024,-0.2 0.04101,-0.4070469 0.04101,-0.6230469 0,-0.216 -0.01683,-0.4230469 -0.04883,-0.6230469 l 1.351563,-1.0566406 c 0.12,-0.096 0.152078,-0.2722031 0.08008,-0.4082031 L 11.904297,2.6953123 c -0.08,-0.144 -0.248578,-0.1905781 -0.392578,-0.1425781 L 9.9199218,3.191406 c -0.336,-0.256 -0.6880782,-0.4630468 -1.0800781,-0.6230468 L 8.5996093,0.8710935 c -0.024,-0.16 -0.1603125,-0.2714843 -0.3203125,-0.2714843 l -2.5585938,0 z m 1.2792969,4 c 1.32,0 2.4003906,1.0803906 2.4003906,2.4003906 0,1.32 -1.0803906,2.400391 -2.4003906,2.400391 -1.32,0 -2.4003906,-1.080391 -2.4003906,-2.400391 0,-1.32 1.0803906,-2.4003906 2.4003906,-2.4003906 z"/>
</symbol><symbol id="research" viewBox="0 0 12 15">
    <path d="M5.56.29c-.662.091-1.235.362-1.762.834l-.152.136H2.507c-.732 0-1.182.008-1.258.022a1.473 1.473 0 0 0-.286.1.983.983 0 0 0-.336.245.983.983 0 0 0-.245.336c-.043.092-.088.22-.1.286-.031.166-.031 10.834-.001 11.002.062.343.354.715.682.867.092.043.22.088.286.1.165.031 9.334.031 9.502.001.342-.062.706-.348.865-.679.045-.093.091-.223.103-.289.03-.166.03-10.836 0-11.002-.062-.342-.348-.706-.679-.865a1.418 1.418 0 0 0-.289-.103c-.075-.013-.537-.021-1.258-.021H8.354l-.152-.136A3.228 3.228 0 0 0 7.114.458 3.33 3.33 0 0 0 5.56.29m.87 1.508c.351.09.796.378.894.58.024.05.082.132.128.182.125.135.231.375.276.625l.014.075H4.258l.014-.075c.045-.251.151-.49.278-.626a.836.836 0 0 0 .125-.182c.073-.165.457-.437.762-.539.314-.105.677-.12.993-.04m-3.597.997c-.054.254-.075.561-.068.982.008.543.025.614.184.774a.5.5 0 0 0 .221.14c.117.038.195.039 2.83.039 2.635 0 2.713-.001 2.83-.039a.5.5 0 0 0 .221-.14c.159-.16.176-.231.184-.774.007-.421-.014-.728-.068-.982l-.012-.055h1.105v10.02H1.74V2.74h1.105l-.012.055m.907 3.493c-.229.064-.367.187-.432.387-.053.161-.053.49.001.655a.578.578 0 0 0 .361.361c.116.038.191.039 2.33.039 2.139 0 2.214-.001 2.33-.039a.5.5 0 0 0 .221-.14c.137-.137.179-.267.179-.551 0-.284-.042-.414-.179-.551-.193-.192-.003-.179-2.521-.182-1.71-.003-2.22.002-2.29.021m0 2c-.229.064-.367.187-.432.387-.053.161-.053.49.001.655a.578.578 0 0 0 .361.361c.116.038.191.039 2.33.039 2.139 0 2.214-.001 2.33-.039a.5.5 0 0 0 .221-.14c.137-.137.179-.267.179-.551 0-.284-.042-.414-.179-.551-.193-.192-.003-.179-2.521-.182-1.71-.003-2.22.002-2.29.021" fill-rule="evenodd"/>
</symbol><symbol id="staff" viewBox="0 0 10 17">
  <path d="M 5.0039062,0.5 C 3.6267643,0.5 2.5,1.6236369 2.5,3 2.5,4.3763631 3.6267643,5.5 5.0039062,5.5 6.3810483,5.5 7.5,4.3740099 7.5,3 7.5,1.6259901 6.3810483,0.5 5.0039062,0.5 Z M 5,6.5 C 4.1145969,6.5 3.0524254,7.0088977 2.1386719,7.96875 1.2249183,8.9286023 0.5,10.375243 0.5,12.25 l 0,4.25 9,0 0,-4.25 C 9.5,10.375243 8.7750817,8.9286023 7.8613281,7.96875 6.9475746,7.0088977 5.8854031,6.5 5,6.5 Z"/>
</symbol><symbol id="star" viewBox="0 0 18 17">
    <path stroke="none" d="M9.237-.08L6.585 5.292l-5.929.862 4.29 4.181-1.012 5.905 5.303-2.788 5.302 2.788-1.012-5.905 4.29-4.181-5.929-.862z"/>
</symbol><symbol id="subscribe-bell" viewBox="0 0 17 17">
    <path d="M14.67 2.974a.75.75 0 1 1 1.06-1.058.75.75 0 0 1-1.06 1.058zm-8.782 4.98l-.996-.995c2.11-.793 5.236-4.306 7.69-3.59-2.027.16-4.474 3.469-6.694 4.586zm9.942-2.82a1.576 1.576 0 0 1 .413-1.514l.001-.001c.313-.313.47-.722.47-1.129 0-.865-.696-1.56-1.56-1.56-.407 0-.816.156-1.129.469l-.001.002a1.57 1.57 0 0 1-1.515.413C8.604.78 5.257 6.964 1.832 5.224l-.925.926 10.587 10.587.926-.926c-1.739-3.424 4.446-6.77 3.41-10.677zM8.001 15.42a2.272 2.272 0 0 1-1.594.659c-.576 0-1.15-.228-1.565-.643-.837-.836-.862-2.347-.017-3.192l3.176 3.176z"/>
</symbol><symbol id="target" viewBox="0 0 20 20">
  <path d="M 9.984375,-0.01389621 A 1.0001,1.0001 0 0 0 9,0.99977569 L 9,3.0798538 C 5.9451368,3.5216501 3.5218744,5.9449125 3.0800781,8.9997757 L 1,8.9997757 a 1.0001,1.0001 0 1 0 0,2.0000003 l 2.0800781,0 C 3.5218744,14.054639 5.9451368,16.477902 9,16.919698 l 0,2.080078 a 1.0001,1.0001 0 1 0 2,0 l 0,-2.080078 c 2.971435,-0.429731 5.346554,-2.73274 5.880859,-5.669922 l 2.119141,0 a 1.0001,1.0001 0 1 0 0,-2.0000003 l -2.042969,0 C 16.615581,6.0775284 14.138195,3.5337016 11,3.0798538 L 11,0.99977569 A 1.0001,1.0001 0 0 0 9.984375,-0.01389621 Z M 9.8828125,5.0056351 a 1.0001,1.0001 0 0 0 0.2421875,0 C 12.839342,5.0719473 15,7.268681 15,9.9997757 c 0,0.048123 -0.0065,0.094793 -0.0078,0.1425783 a 1.0001,1.0001 0 0 0 -0.0059,0.128906 c -0.138479,2.607262 -2.244286,4.664445 -4.873047,4.722657 A 1.0001,1.0001 0 0 0 9.984375,14.986104 1.0001,1.0001 0 0 0 9.875,14.993917 C 7.1999591,14.928565 5.0671584,12.793056 5.0058594,10.116964 a 1.0001,1.0001 0 0 0 0,-0.2421883 C 5.0712114,7.1997348 7.2067201,5.0669341 9.8828125,5.0056351 Z M 10,6.9997757 a 3,3 0 0 0 -3,3 3,3 0 0 0 3,3.0000003 3,3 0 0 0 3,-3.0000003 3,3 0 0 0 -3,-3 z"/>
</symbol><symbol id="tasks" viewBox="0 0 13 17">
    
    <g fill-rule="evenodd" transform="translate(-.101 .348)">
        <mask id="b" fill="#fff">
            <use xlink:href="#a"/>
        </mask>
        <path d="M11.636 6.65H6.51L8.11.406c.086-.333-.338-.552-.56-.29L.134 8.898a.561.561 0 0 0 .429.924h5.126l-1.6 6.244c-.086.333.338.552.56.29l7.416-8.783a.561.561 0 0 0-.429-.923" mask="url(#b)"/>
    </g>
</symbol><symbol id="thumb-up" viewBox="0 0 13 15">
  <path d="M 7.2729298,0.28129848 C 7.0283117,0.31929237 6.8323603,0.48790404 6.7846486,0.79887661 6.6456866,1.7003248 6.4617758,2.3742692 6.1694142,3.148486 6.0060887,3.5825166 5.6714601,4.166904 5.2807423,4.6758297 4.8891221,5.1838531 4.2144643,5.6093576 3.7885548,6.570361 3.5169473,7.183057 3.369795,7.4961422 3.1108204,7.4961422 l -0.8886718,0 -2.16796877,0 0,5.5644528 c 1.67025087,0 3.98066077,1.43464 6.47656247,1.589844 1.3824011,0.08572 2.5992315,0.146115 2.9746094,-0.08399 0.5080233,-0.31131 0.5554363,-0.76099 0.7070313,-1.037109 0.388011,-0.702931 1.093121,-0.644452 1.121094,-1.320312 0.01444,-0.358233 0.07271,-0.850175 0.375,-1.035157 0.281533,-0.171446 1.097858,-0.536102 1.195312,-0.939453 0.152498,-0.6316449 -0.349609,-1.2538197 -0.349609,-1.7871089 0,-0.3248462 0.474555,-0.6766583 0.378906,-1.4472657 -0.09926,-0.8021896 -0.735343,-1.2773437 -1.863281,-1.2773437 -1.3724754,0 -1.8765315,-0.019531 -2.8925783,-0.019531 C 8.0761635,4.9614413 8.2511975,4.7570481 8.4975392,3.773486 8.7294433,2.8431625 8.7723463,1.9337148 8.4565236,1.1152829 8.2258602,0.51691163 7.6806266,0.21797532 7.2729298,0.28129848 Z"/>
</symbol><symbol id="thumbs-up" viewBox="0 0 24 24">
    <path fill-rule="evenodd" clip-rule="evenodd" d="M12.7081 3.73684C12.7535 3.72243 12.7807 3.71616 12.7948 3.71347C12.8139 3.71912 12.8592 3.73443 12.9471 3.77325C13.0878 3.83542 13.201 3.94687 13.2653 4.08663C13.3296 4.2264 13.3407 4.38485 13.2964 4.53219L13.2961 4.53297L12.2741 7.94097L12.274 7.94154C12.2025 8.18023 12.1879 8.43231 12.2311 8.67768C12.2743 8.92305 12.3742 9.15494 12.5228 9.35488C12.6715 9.55482 12.8648 9.71728 13.0873 9.82932C13.3099 9.94135 13.5555 9.99987 13.8046 10.0002L13.806 10.0002H18.381H18.3812C18.535 10.0002 18.6867 10.0356 18.8245 10.1038C18.9624 10.1719 19.0827 10.2709 19.176 10.3931C19.2694 10.5153 19.3333 10.6574 19.3628 10.8083C19.3923 10.9591 19.3867 11.1147 19.3463 11.263L19.3462 11.2632L17.4363 18.263L17.4362 18.2632C17.3785 18.4748 17.2529 18.6615 17.0788 18.7946C16.905 18.9275 16.691 19 16.4712 19.0002H8V9.77845C8.11846 9.73019 8.23408 9.67424 8.3461 9.61082C8.79184 9.35845 9.16546 8.9962 9.43146 8.55867L12.3407 4.04146L12.3495 4.02784L12.3578 4.01394C12.4369 3.88195 12.5615 3.78341 12.7081 3.73684ZM6 10.0002H4.5V19.0002H6V10.0002ZM13.7552 1.9438C13.5456 1.85121 13.2854 1.74939 12.9787 1.72023C12.6566 1.6896 12.3696 1.74591 12.1027 1.83067C11.497 2.02303 10.9817 2.42803 10.6515 2.97054L7.74227 7.48775L7.73368 7.5011L7.72551 7.51471C7.63666 7.66279 7.51098 7.78533 7.36071 7.87042C7.21044 7.9555 7.0407 8.00021 6.86801 8.00021H6.868H4.1C3.67566 8.00021 3.26869 8.16878 2.96863 8.46884C2.66857 8.7689 2.5 9.17587 2.5 9.60021V19.4002C2.5 19.8246 2.66857 20.2315 2.96863 20.5316C3.26869 20.8316 3.67566 21.0002 4.1 21.0002H16.472H16.4728C17.13 20.9997 17.7705 20.7833 18.2935 20.3835C18.816 19.984 19.1927 19.424 19.3657 18.7894L19.3658 18.7892L21.2757 11.7894L21.2758 11.7892C21.3971 11.3441 21.4142 10.8771 21.3256 10.4244C21.2371 9.97161 21.0453 9.5454 20.7652 9.17884C20.4852 8.81228 20.1243 8.51525 19.7108 8.31083C19.2973 8.10644 18.8422 8.00015 18.381 8.00021H18.3808H14.3444L15.2116 5.10824C15.3964 4.49391 15.3503 3.83323 15.0821 3.25047C14.8139 2.66771 14.342 2.20302 13.7552 1.9438Z" fill="#001F31"/>
</symbol><symbol id="two-users" viewBox="0 0 17 11">
  <path d="m 5.6660154,0.5410158 c -1.1758333,0 -2.125,0.9491667 -2.125,2.125 0,1.1758334 0.9491667,2.125 2.125,2.125 1.1758334,0 2.1191406,-0.9491666 2.1191406,-2.125 0,-1.1758333 -0.9433072,-2.125 -2.1191406,-2.125 z m 5.6679686,0 c -1.175833,0 -2.1249998,0.9491667 -2.1249998,2.125 0,1.1758334 0.9491668,2.125 2.1249998,2.125 1.175834,0 2.117188,-0.9491666 2.117188,-2.125 0,-1.1758333 -0.941354,-2.125 -2.117188,-2.125 z M 5.6660154,6.2089846 c -1.6504166,0 -4.95703121,0.8280986 -4.95703121,2.4785156 l 0,1.7714838 9.91601581,0 0,-1.7714838 c 0,-1.650417 -3.3085679,-2.4785156 -4.9589846,-2.4785156 z m 5.6679686,0 c -0.205416,0 -0.439583,0.013906 -0.6875,0.035156 0.821667,0.595 1.394532,1.3950264 1.394532,2.4433594 l 0,1.771484 4.25,0 0,-1.771484 c 0,-1.650417 -3.306615,-2.4785156 -4.957032,-2.4785156 z"/>
</symbol><symbol id="videos" viewBox="0 0 24 24">
<path d="M20,21H4c-1.1,0-2-0.9-2-2V9c0-1.1,0.9-2,2-2h16c1.1,0,2,0.9,2,2v10C22,20.1,21.1,21,20,21z" fill="none" stroke="currentColor" stroke-width="2" stroke-miterlimit="10"/>
<path d="M14,21c1.1,0,2-0.9,2-2V9c0-1.1-0.9-2-2-2" fill="none" stroke="currentColor" stroke-width="2" stroke-miterlimit="10"/>
<polyline points="8.4,2.5 11.9,6 15.6,2.3 " fill="none" stroke="currentColor" stroke-width="2" stroke-linecap="round" stroke-miterlimit="10"/>
<line x1="22" y1="11" x2="19" y2="11" fill="none" stroke="currentColor" stroke-width="2" stroke-miterlimit="10"/>
<line x1="22" y1="15" x2="19" y2="15" fill="none" stroke="currentColor" stroke-width="2" stroke-miterlimit="10"/>
</symbol><symbol id="wda" viewBox="0 0 14 13">
  <path d="m 2.9999998,0 0,1 -3.02539061,0 0.05078125,0.5449219 C 0.21251392,3.6214224 1.4619189,5.3910713 3.222656,6.3144531 3.6589652,7.5693353 4.7008797,8.5386765 5.9999998,8.8730469 l 0,2.1269531 c -1.1045695,0 -2,0.89543 -2,2 l 6,0 c 0,-1.104569 -0.8954305,-2 -2,-2 l 0,-2.1269531 C 9.2991199,8.5386765 10.341035,7.5693353 10.777344,6.3144531 12.538081,5.3910713 13.787486,3.6214224 13.974609,1.5449219 L 14.025391,1 11,1 11,0 2.9999998,0 Z m -1.8261719,2 1.8261719,0 0,2.9511719 C 2.0844359,4.2290572 1.4227076,3.1935029 1.1738279,2 Z M 11,2 12.826172,2 C 12.577292,3.1935029 11.915564,4.2290572 11,4.9511719 L 11,2 Z"/>
</symbol><symbol id="widgets" viewBox="0 0 20 17">
    <g stroke="none" fill-rule="evenodd">
        <path d="M18.3 3.648l-3.048-.443c-.252-.036-.467-.192-.579-.42L13.308.023l-1.363 2.764c-.111.227-.327.383-.578.419l-3.05.443L10.524 5.8c.18.176.263.43.22.68l-.52 3.037 2.728-1.435c.11-.059.233-.087.355-.087.123 0 .245.028.357.087l2.73 1.435-.522-3.037c-.043-.25.04-.503.22-.68l2.208-2.152z" transform="translate(.911 .847)"/>
        <path d="M14.103 10.045V12.9c0 .315-.256.572-.572.572H2.309c-.316 0-.573-.257-.573-.572V6.23c0-.316.257-.572.573-.572h5.873L6.4 3.92H2.31c-1.274 0-2.31 1.035-2.31 2.31V12.9c0 1.273 1.036 2.309 2.31 2.309H13.53c1.274 0 2.309-1.036 2.309-2.31v-1.94l-1.737-.914z" transform="translate(.911 .847)"/>
    </g>
</symbol></svg>