<?xml version="1.0" encoding="utf-8"?>
<!-- Generator: Adobe Illustrator 22.0.1, SVG Export Plug-In . SVG Version: 6.00 Build 0)  -->
<svg version="1.1" id="Слой_1" xmlns="http://www.w3.org/2000/svg" xmlns:xlink="http://www.w3.org/1999/xlink" x="0px" y="0px"
	 viewBox="0 0 420 133" style="enable-background:new 0 0 420 133;" xml:space="preserve">
<style type="text/css">
	.st0{fill:#FFFFFF;}
</style>
<path class="st0" d="M420.1,0H0v133h420.1V0z"/>
<path d="M415.7,5.3H148.4v121.9h267.3V5.3z"/>
<path d="M28.6,87.3c0,6.6,0.6,10.9,1.9,12.9c1.3,1.9,4.2,2.9,8.8,2.9v3.8H6.4v-3.8c4.7,0,7.6-1,8.9-3c1.3-2,1.9-6.3,1.9-12.9V41.9
	c0-6.6-0.6-10.9-1.9-12.9c-1.3-2-4.2-2.9-8.9-2.9v-3.8h39.7c7.2,0,13.2,1.8,17.8,5.3c5.2,4,7.9,9.6,7.9,16.7
	c0,8.5-3.5,14.6-10.4,18.4c-5.5,3-13.1,4.5-22.9,4.5h-10V87.3z M28.6,63.4h4.4c8.6,0,14.9-1.2,18.9-3.5c5.3-3.1,8-8.5,8-16.3
	c0-5.9-1.9-10.4-5.6-13.4c-3.4-2.7-8.1-4.1-14.3-4.1c-5,0-8.2,1.2-9.7,3.5c-1.1,1.7-1.6,5.3-1.6,10.7L28.6,63.4L28.6,63.4z"/>
<path d="M91.5,65.8v21.7c0,6.6,0.6,10.9,1.9,12.9c1.2,1.9,4.1,2.9,8.4,2.9v3.8H70.2v-3.8c4.4,0,7.2-1,8.4-3c1.2-2,1.9-6.3,1.9-12.9
	V42.3c0-6.2-0.4-10-1-11.6c-1.2-3-4.4-4.5-9.3-4.5v-3.8h32.6c8,0,14.6,1.4,19.6,4.3c6.7,3.7,10,9.3,10,16.9c0,5.6-2.1,10.5-6.4,14.4
	c-4,3.7-8.8,5.9-14.4,6.7l14.8,27.7c2.1,3.9,3.4,6.1,3.9,6.7c2.1,2.8,5.5,4.2,10.2,4.2v3.8h-18.4L99.4,65.8L91.5,65.8L91.5,65.8z
	 M91.5,62h5.8c6.4,0,11.7-1.4,16-4.2c5-3.3,7.5-8,7.5-14.2c0-5.4-2.1-9.7-6.1-13c-3.7-2.9-8.2-4.4-13.7-4.4c-4.3,0-7,1-8.2,3
	c-0.9,1.5-1.4,4.7-1.4,9.6L91.5,62L91.5,62z"/>
<path class="st0" d="M226.1,85.6V42c0-6.6-0.6-10.9-1.8-12.9c-1.2-2-4-3-8.4-3v-3.8h25.6v3.8c-4.2,0-7,1-8.3,3.1
	c-1.3,2.1-1.9,6.3-1.9,12.8v65.1h-3.8l-47.7-70.5v50.8c0,6.6,0.6,10.9,1.9,12.9c1.2,1.9,4.1,2.9,8.5,2.9l-0.1,3.8h-25.7v-3.8
	c4.4,0,7.2-1,8.5-3c1.2-2,1.9-6.3,1.9-12.9V42c0-6.5-0.6-10.7-1.9-12.8c-1.3-2.1-4.1-3.1-8.4-3.1v-3.8h19.2L226.1,85.6z"/>
<path class="st0" d="M245.3,74.2c0,7.3,1.1,13.3,3.4,18.3c2.9,6.6,7.5,9.8,13.8,9.8c3.7,0,7-0.9,10.2-2.8c3.1-1.9,5.8-4.5,8.1-7.7
	l1.9,1.8c-2.4,4.2-5.5,7.5-9.3,9.9c-3.8,2.5-7.8,3.7-12.3,3.7c-7.6,0-14-2.8-19.1-8.5c-5.1-5.7-7.7-12.5-7.7-20.6
	c0-7.8,2.3-14.7,6.9-20.6c4.9-6.3,11.1-9.5,18.6-9.5c6.7,0,12.3,2.6,16.8,7.8C280.9,60.9,283,67,283,74h-37.8V74.2z M271.7,69.8
	c0.1-0.9,0.1-1.6,0.1-2.1c0-4.2-0.9-7.7-2.9-10.6c-2.2-3.4-5.4-5.1-9.5-5.1c-4.4,0-7.8,1.9-10.3,5.9c-2.2,3.4-3.2,7.4-3.2,11.9
	H271.7z"/>
<path class="st0" d="M308.6,106.9h-2.9l-14.8-41.7c-1.5-4.2-2.6-6.8-3.2-7.9c-1.6-2.5-4-3.7-7.1-3.7v-3.3h22.9v3.3
	c-1.4,0-2.5,0.3-3.5,0.8c-1,0.5-1.5,1.4-1.5,2.5c0,0.6,0.1,1.2,0.2,1.9c0.1,0.6,0.4,1.4,0.8,2.4l9.8,29.1l10.3-28.5
	c-0.9-2.8-2.2-4.9-3.6-6.2c-1.4-1.3-3.4-1.9-6.1-1.9v-3.3h23.9v3.3c-1.7,0-3.2,0.2-4.4,0.5c-1.2,0.4-1.8,1.2-1.8,2.5
	c0,0.6,0.1,1.3,0.3,2.1c0.2,0.8,0.5,1.6,0.9,2.6l9.6,28.1l10.3-28.1c0.2-0.8,0.3-1.6,0.3-2.3c0-1.6-0.4-2.8-1.2-3.5
	c-0.8-0.8-1.8-1.2-2.9-1.5c-1.2-0.3-2.5-0.4-4.1-0.4v-3.3h22.3v3.3c-2.8,0-5.2,1.4-7.1,4.2c-1.1,1.5-2.2,4.2-3.6,8.1l-14.3,41h-3.4
	L322,70.1L308.6,106.9z"/>
<path class="st0" d="M402,66.1l-2.7,1.5c-3.7-4.9-6.7-8.5-9.2-10.6c-3.8-3.4-7.8-5.1-11.8-5.1c-2.3,0-4.3,0.8-6.1,2.2
	c-1.8,1.5-2.7,3.3-2.7,5.6c0,3.7,3,6.8,9,9.3c5.5,2.2,11.1,4.5,16.7,6.6c6,3.4,9.1,8.1,9.1,14.1c0,4.9-1.8,9-5.5,12.4
	c-3.7,3.4-7.8,5.1-12.5,5.1c-1.3,0-2.6-0.2-3.8-0.5c-1.5-0.5-2.7-0.9-3.4-1.2c-0.8-0.2-1.5-0.5-2.2-0.7s-1.4-0.4-2.1-0.4
	c-1.1,0-2.2,0.2-3.3,0.7c-1.1,0.5-2.1,1.1-3.1,1.9l-6.8-19.7l2.4-1.3c2.4,4.1,5.6,7.8,9.8,11.2c4.8,3.9,9.2,5.9,13,5.9
	c2.6,0,4.8-0.9,6.8-2.7c1.9-1.8,2.9-4.1,2.9-6.8c0-4-2.9-7.2-8.8-9.6c-5.5-2-11-4.1-16.6-6.1c-6-3.2-9-7.7-9-13.7
	c0-4.7,1.8-8.6,5.2-11.7c3.5-3.1,7.5-4.7,12.1-4.7c1.3,0,3.2,0.3,5.7,0.9c2.5,0.6,4.2,0.9,5.2,0.9c1.8,0,3.5-0.9,4.9-2.7L402,66.1z"
	/>
</svg>
