<?xml version="1.0" encoding="utf-8"?>
<!-- Generator: Adobe Illustrator 22.0.1, SVG Export Plug-In . SVG Version: 6.00 Build 0)  -->
<svg version="1.1" id="Слой_1" xmlns="http://www.w3.org/2000/svg" xmlns:xlink="http://www.w3.org/1999/xlink" x="0px" y="0px"
	 viewBox="0 0 931 234.9" style="enable-background:new 0 0 931 234.9;" xml:space="preserve">
<style type="text/css">
	.st0{fill:#FFFFFF;}
</style>
<g>
	<path class="st0" d="M181.8,159c0,17.4,0,33.2,0,49.5c-8.6,0-16.8,0-25.4,0c0-47.1,0-94.3,0-142.3c6.6,0,13.2-0.1,19.7,0.1
		c0.9,0,2.1,1.8,2.5,2.9c0.7,2.1,1,4.4,1.6,7.6c4-2.7,7.2-5.2,10.6-7.2c19.3-11.1,47.1-7.1,55,19c6.1,20.2,5.5,40.2-2.8,59.6
		c-9.1,21.4-37,28.1-56.3,14C185.5,161.4,184.2,160.6,181.8,159z M221.8,116.9c-1.2-7.7-1.6-13.9-3.2-19.7
		c-1.7-6.2-5.7-10.5-12.8-11.5c-7-1-12.9,0.8-18.8,4.3c-3.7,2.2-5.2,4.7-5.1,9.1c0.4,11,0.1,22,0.1,33c0,10.4,0.5,11.1,10.6,14.2
		c1.6,0.5,3.2,0.7,4.8,1.1c8.2,1.7,16.4-1.6,19.3-9.3C219.3,130.9,220.3,123.1,221.8,116.9z"/>
	<path class="st0" d="M63.5,179.7c-6.5,0-12.6,0-19.1,0c1.3-9.8,2.6-19.3,3.9-29.6c-7.1,0-13.5,0-20.3,0c1.1-6.1,1.9-11.4,3.2-16.7
		c0.4-1.4,2.5-3,4-3.1c4.1-0.4,8.3,0,12.5-0.3c1.4-0.1,3.7-1.1,3.9-2c1.5-7.7,2.5-15.5,3.8-24c-7.3,0-13.5,0-20.6,0
		c1.3-6.6,2.3-12.5,3.7-18.3c0.2-0.8,2.4-1.5,3.7-1.5c4.2-0.2,8.3-0.1,12.5-0.1c2.5,0,4-0.7,4.3-3.6c0.9-8.2,2.2-16.4,3.4-25
		c6.3,0,12.7,0,19.3,0C80.3,65,79,74.1,77.5,84.1c6.5,0,12.4,0.3,18.3-0.2c1.2-0.1,2.7-3.3,3-5.3c1.3-7.6,2.2-15.3,3.3-23.1
		c6.5,0,12.6,0,19.2,0c-1.3,9.4-2.5,18.6-3.8,28.5c7,0,13.4,0,20.8,0c-1.2,6.4-2.2,12.2-3.6,17.8c-0.2,1-2.3,2.1-3.5,2.2
		c-4.3,0.3-8.7-0.1-13,0.2c-1.4,0.1-3.7,1.1-3.8,2.1c-1.4,7.7-2.5,15.5-3.8,23.9c7.3,0,13.9,0,20.8,0c-1,5.8-1.9,10.9-2.7,16.1
		c-0.4,2.8-1.8,4-4.7,3.9c-5.1-0.2-10.3,0-16.1,0c-1.6,10-3.2,19.7-4.8,29.7c-6.3,0-12.5,0-18.9,0c1.3-9.8,2.6-19.2,4-29.2
		c-7,0-13.4,0-20.4,0C66.5,159.9,65,169.5,63.5,179.7z M71.3,128.9c1.2,0.5,1.7,0.8,2.1,0.9c3.3,0.1,6.6,0.2,10,0.2
		c7.6,0,7.8,0,9-7.3c1-5.9,1.6-11.9,2.4-18.5c-6.3,0-11.8-0.1-17.2,0.1c-1.1,0-2.8,1.4-3,2.4C73.4,114.1,72.4,121.6,71.3,128.9z"/>
	<path class="st0" d="M293.8,167.6c-9.1,0-17.5,0-26.4,0c0-33.6,0-67.2,0-101.4c6.8,0,13.6-0.2,20.3,0.2c1.1,0.1,2.5,3,2.9,4.8
		c0.8,3.5,1.1,7.1,1.8,12.3c10.2-11.3,19.6-21.9,36-18.9c0,8.5,0,17.1,0,26.4c-4,0-8-0.8-11.5,0.2c-6.6,1.7-13.2,4-19.3,7
		c-2,1-3.6,4.8-3.6,7.4c-0.3,18.5-0.2,37-0.2,55.5C293.8,163,293.8,165,293.8,167.6z"/>
	<path class="st0" d="M528.2,208.5c0-47,0-93.8,0-140.9c2.8,0,5.3,0,8.6,0c0,2.5-0.1,5,0,7.4c0.2,4.4,1.2,4.8,5.1,2.8
		c6.8-3.6,13.5-8.3,20.8-10.2c19.9-5.2,37.3,1.4,43.1,23.5c5.1,19.4,5.3,38.7-3.7,57.2c-9.4,19.2-31.7,26.6-51,17.2
		c-4.2-2.1-8.2-4.5-13.2-7.2c0,17.2,0,33.4,0,50.2C534.5,208.5,531.7,208.5,528.2,208.5z M538.7,118.9c0,8.5-0.1,17,0.1,25.5
		c0.1,1.9,1,4.6,2.4,5.4c6,3.5,12,7.3,18.6,9.3c14.4,4.6,28.8-1.8,33.5-14.7c6.5-17.9,6.6-36.2,1.4-54.4c-2.7-9.3-9.5-14-19.1-15
		c-13.8-1.5-24.9,4.5-34.8,13.1c-1.3,1.2-1.9,3.8-1.9,5.8C538.6,102.3,538.7,110.6,538.7,118.9z"/>
	<path class="st0" d="M902.8,118.9c-23.5,0-46.4,0-69.2,0c-1.6,16.9,4.5,36,21,39.5c10.3,2.2,20.8,3.3,29.6-4.2
		c2.9-2.5,5.2-6.4,6.5-10.1c2-5.7,5.7-1.7,8.2-1.6c3.2,0.1,2,2.9,1.1,4.9c-5.4,12.9-15.2,19.8-29,21.6c-14.7,1.9-27.6-1.3-37.9-12.4
		c-6.8-7.3-9.6-16.5-11-26.1c-2-13.3-1.1-26.3,3.8-39c5.2-13.5,21.8-25.6,36.2-25.3c6.8,0.2,14.1,0.6,20.3,3
		c13.1,5,18.5,16.3,20.1,29.5C903.4,105.2,902.8,111.8,902.8,118.9z M862.4,111c7,0,14,0.1,20.9,0c9.5-0.1,8.9,1.6,8.3-9
		c-0.6-9.4-2.9-18.7-12.3-23.4c-7.5-3.8-15.8-3.7-23.8-1.7c-6.4,1.6-11.5,5.1-15.6,10.5c-4.2,5.6-5.2,12-6.5,18.5
		c-0.8,3.9,0.4,5.2,4.2,5.1C845.8,110.9,854.1,111,862.4,111z"/>
	<path class="st0" d="M351.6,118.9c0.7,14,1.4,27,13.3,35.8c6.6,4.9,14.5,5.4,22.2,5.1c6.4-0.3,13.1-1.3,17.4-7
		c2.1-2.7,4-5.7,5.2-8.9c2-5.3,5.4-0.5,7.9-1.6c0.4,1.8,1.6,3.9,1,5.3c-5.4,12.6-14.8,19.6-28.6,21.6c-8.5,1.2-16.5,0.3-24.3-2.7
		c-10.1-3.9-17.2-11.1-20.9-21.3c-7-19.3-7.7-38.6,1.7-57.3c6.9-13.6,19-20.3,33.8-21.6c11.7-1,22.7,1.1,31.3,10.3
		c6.5,6.9,9,15.3,9.8,24.3c0.4,4.3-0.1,8.7,0.1,13c0.2,4-1.4,5.1-5.3,5.1c-19.3-0.1-38.6-0.1-58-0.1
		C356.6,118.9,354.6,118.9,351.6,118.9z M352.6,110.3c0.3,0.1,0.6,0.4,0.9,0.4c18.1,0.1,36.2,0.2,54.3,0.1c1,0,2.8-1.9,2.8-2.9
		c0-4.1-0.1-8.3-1-12.3c-2.1-9.4-7.1-17-17.2-19c-4.8-1-10-0.9-14.9-0.4C361.3,77.9,351,93.8,352.6,110.3z"/>
	<path class="st0" d="M705.8,66.1c25.6-0.5,38.5,16.4,41.1,39.2c1.6,13.5,0.5,26.5-4.2,39.1c-5.5,14.5-16.2,23.3-31.9,24.4
		c-7.5,0.5-15.3,0.3-22.5-1.4c-16-3.8-23.8-16-26.9-31.1c-2.4-11.9-2.6-24,0.4-36C667.5,77.7,682.3,66.1,705.8,66.1z M735.8,116.8
		c0-3,0.3-6,0-9c-2.1-19.3-7-29.7-25.2-32.2c-14.6-2.1-30.2,2.9-36.2,19.6c-5.1,14.2-4.7,28.7-0.9,43.1c1.7,6.3,4.4,12.1,10,16.1
		c10.2,7.3,21.5,7.4,32.9,4.1c5.9-1.7,10.5-5.8,13.6-11.7C734.9,137.3,735.9,127.2,735.8,116.8z"/>
	<path class="st0" d="M432.7,167.8c10.4-16.5,20-32.3,30.1-47.7c2.8-4.3,1.6-7-0.8-10.6c-9.1-13.1-18.1-26.4-27.1-39.6
		c-0.4-0.6-0.7-1.4-1-1.9c8.8-3.6,12.2,2.7,15.9,8.3c5.9,8.9,11.9,17.8,17.9,26.7c2.9,4.4,4.6,4.3,7.6,0.1
		c7.6-10.8,15.3-21.5,22.7-32.4c3.1-4.6,7.4-3.2,12.4-3.3c-9.1,13.1-17.9,25.6-26.6,38.1c-6.7,9.7-6.6,9.7-0.1,19.6
		c8.8,13.4,17.7,26.7,26.6,40c0.4,0.6,0.8,1.3,1.3,2.1c-8.7,1.9-9.7,1.5-14.1-5.1c-7.6-11.6-15.2-23.2-22.8-34.8
		c-2.9-4.4-3.9-4.3-6.7,0.3c-7.5,12.1-15.3,23.9-22.2,36.3C442.4,169.8,437.9,167.4,432.7,167.8z"/>
	<path class="st0" d="M629.3,26.4c3.4,0,6.5,0,10,0c0,47,0,93.9,0,141.1c-3.3,0-6.5,0-10,0C629.3,120.6,629.3,73.8,629.3,26.4z"/>
	<path class="st0" d="M768.3,67.8c8-1.3,8.4-1.1,8.5,6.3c0,1.5-0.1,3.1,0.3,4.4c0.8,2.4,1.6,3.8,4.3,0.8
		c10.1-11.4,18.5-14.5,32.9-12.8c0,3.2,0,6.4,0,9.3c-6.6,1.4-13.2,2.6-19.7,4.1c-2.4,0.6-4.6,1.7-6.9,2.7c-6.5,3.1-9.5,7.6-9.2,15.6
		c0.7,21.1,0.2,42.3,0.2,63.4c0,1.8,0,3.6,0,5.8c-3.6,0-6.9,0-10.4,0C768.3,134.1,768.3,101,768.3,67.8z"/>
</g>
</svg>
