<svg id="Слой_1" data-name="Слой 1" xmlns="http://www.w3.org/2000/svg" viewBox="0 0 259.58 260.12">
    <path d="M4.45,135.12C4.19,63.91,62.37,5.33,133.73,4.94S263.93,63.13,264,134.88c.1,71.53-58.23,130.08-129.68,130.18S4.71,206.91,4.45,135.12Zm163.06-18.85c-6.72,0-13.43,0-20.15,0-4.23,0-6.77,2-6.74,5.27s2.39,5.22,6.44,5.24q20.52.1,41.05,0c4.3,0,6.61-2.15,6.47-5.52-.14-3.22-2.38-5-6.55-5C181.19,116.24,174.35,116.27,167.51,116.27Zm-8.79-19.11c6.47,0,12.95.09,19.42,0,4-.06,6-1.91,6.1-5s-2.1-5.26-6.23-5.28q-19.41-.09-38.83,0c-4,0-6.05,1.9-6.12,5s2.09,5.24,6.25,5.31C145.78,97.24,152.25,97.17,158.72,97.16Zm-53.39,93.1c-4.74,0-9.47-.06-14.2,0-3.45.06-5.77,2.11-5.87,5s2,5.3,5.52,5.36q14.39.24,28.77,0c3.52-.07,5.56-2.43,5.44-5.4s-2.24-4.88-5.84-4.94C114.54,190.2,109.93,190.26,105.33,190.26ZM177.42,112c3.36,0,6.72.06,10.08,0,3.66-.09,6.1-2.23,6.09-5.2s-2.25-5.16-5.71-5.25c-7-.17-13.95-.18-20.92,0-3.42.09-5.6,2.54-5.49,5.41s2.36,4.92,5.86,5S174.05,112,177.42,112Zm-76.48,29.63c3.49,0,7,.09,10.47,0s5.81-2.21,5.67-5.18c-.15-3.17-1.93-5.2-5.17-5.25q-10.65-.19-21.31,0c-3.18.05-5.1,1.94-5.32,5.14-.2,2.88,2.23,5.17,5.57,5.3S97.58,141.57,100.94,141.58ZM135.59,171c3.61,0,7.21,0,10.81,0,3.27-.06,5.22-1.95,5.28-5.07s-2-5.16-5.14-5.22q-10.8-.21-21.6,0c-3.2.06-5.22,2.11-5.12,5.25s2.08,5,5.35,5C128.64,171.07,132.12,171,135.59,171Zm-36.5-59.08c3,0,6,.09,8.94,0,3.45-.13,5.76-2.23,5.66-5.15a5,5,0,0,0-5.23-5.23c-5.95-.23-11.92-.24-17.87,0-3.36.13-5.64,2.73-5.29,5.54.4,3.18,2.41,4.8,5.59,4.87C93.62,112,96.35,111.94,99.09,111.94Zm-.6-29.42h0c2.49,0,5,.14,7.45,0,3.45-.24,5.62-2.38,5.64-5.28s-2.12-5.17-5.58-5.28c-5.08-.16-10.18-.13-15.26,0-3.14.08-5.15,1.82-5.45,5-.27,2.82,2.06,5.24,5.39,5.5C93.27,82.68,95.89,82.52,98.49,82.52Zm78.72,59c2.36,0,4.73.13,7.08,0,3-.21,4.89-1.82,5-4.93.14-3.29-1.64-5.27-4.85-5.42-4.71-.2-9.44-.19-14.15,0a4.71,4.71,0,0,0-4.89,5.05c0,3.24,1.9,5,5.08,5.3C172.73,141.69,175,141.55,177.21,141.55Zm-15.77,4.25a62.52,62.52,0,0,0-6.71,0c-2.9.32-4.88,2-5,5.06a4.73,4.73,0,0,0,4.65,5.3,100.15,100.15,0,0,0,13.75,0c2.92-.2,4.72-2.2,4.61-5.31s-2.08-4.73-5-5.05A60.71,60.71,0,0,0,161.44,145.8Zm-3.27-74V72a45.09,45.09,0,0,0-5.93,0,4.85,4.85,0,0,0-4.57,5c-.08,2.67,1.39,4.82,4,5a73.13,73.13,0,0,0,12.9,0c2.59-.25,4-2.42,3.83-5.14a4.77,4.77,0,0,0-4.31-4.83A50.46,50.46,0,0,0,158.17,71.78ZM95.59,171v0a43.4,43.4,0,0,0,5.59-.05,4.6,4.6,0,0,0,4.29-4.81c.1-2.71-1.23-4.85-3.9-5.09a70.81,70.81,0,0,0-12.27,0c-2.67.23-4.11,2.43-4,5.07a4.77,4.77,0,0,0,4.67,4.9C91.85,171.1,93.72,171,95.59,171Zm-.47-54.66c-1.61,0-3.23-.12-4.82,0-3,.27-4.84,2.07-5,5s1.47,4.91,4.3,5.16a59.05,59.05,0,0,0,10.72,0c2.8-.27,4.39-2.33,4.23-5.19s-2-4.69-5-5A44,44,0,0,0,95.12,116.31Zm-2.78,40.18c5.41,0,8.53-3.28,6.92-7.39-1.15-2.93-5.48-4.33-9.82-3.11-2.9.82-4.42,2.79-4.1,5.81S88.18,156.46,92.34,156.49Zm-.88-59.34c3.79,0,6.31-2.16,6.21-5.35s-2.44-5-6.16-5S85.15,89,85.26,92.11C85.37,95.11,87.86,97.13,91.46,97.15Zm4.43,83.43a5.2,5.2,0,0,0-5.25-5.15,5.23,5.23,0,1,0,.15,10.44A5.21,5.21,0,0,0,95.89,180.58Z"
          fill="#FFFFFF" stroke="none" transform="translate(-4.45 -4.94)"/>
</svg>