<?xml version="1.0" encoding="utf-8"?>
<!-- Generator: Adobe Illustrator 22.0.1, SVG Export Plug-In . SVG Version: 6.00 Build 0)  -->
<svg version="1.1" id="Слой_1" xmlns="http://www.w3.org/2000/svg" xmlns:xlink="http://www.w3.org/1999/xlink" x="0px" y="0px"
	 viewBox="0 0 150 30" style="enable-background:new 0 0 150 30;" xml:space="preserve">
<style type="text/css">
	.st0{fill:#FFFFFF;}
</style>
<g id="g10" transform="matrix(1.3333333,0,0,-1.3333333,0,40)">
	<g id="g12">
		<g>
			<g id="g14">
				<g id="g20" transform="translate(0.2939,13.4053)">
					<path id="path22" class="st0" d="M2,4.1v11.7h5.2c1,0,1.8-0.1,2.4-0.3c0.5-0.2,1-0.6,1.3-1.1c0.3-0.5,0.5-1.1,0.5-1.8
						c0-0.8-0.3-1.5-0.8-2.1C10,9.9,9.2,9.6,8.1,9.4C8.5,9.2,8.8,9,9,8.8c0.4-0.4,0.9-0.9,1.3-1.5l2-3.2h-2L8.8,6.5
						C8.4,7.2,8,7.8,7.7,8.1C7.4,8.5,7.2,8.8,6.9,8.9C6.7,9.1,6.5,9.2,6.2,9.2C6,9.3,5.8,9.3,5.4,9.3H3.5V4.1H2z M3.5,10.6h3.3
						c0.7,0,1.3,0.1,1.7,0.2s0.7,0.4,0.9,0.7c0.2,0.3,0.3,0.7,0.3,1.1c0,0.5-0.2,1-0.6,1.4c-0.4,0.4-1,0.5-1.9,0.5H3.5V10.6z
						 M19.2,4.1v1.3c-0.7-1-1.6-1.4-2.7-1.4c-0.5,0-1,0.1-1.4,0.3c-0.4,0.2-0.8,0.4-1,0.7c-0.2,0.3-0.4,0.7-0.4,1.1
						c-0.1,0.3-0.1,0.7-0.1,1.3v5.3H15V7.9c0-0.8,0-1.3,0.1-1.5c0.1-0.4,0.3-0.7,0.6-0.9c0.3-0.2,0.7-0.3,1.1-0.3s0.8,0.1,1.2,0.3
						c0.4,0.2,0.6,0.5,0.8,0.9C18.9,6.8,19,7.3,19,8v4.6h1.4V4.1L19.2,4.1L19.2,4.1z M22.1,6.6l1.4,0.2c0.1-0.6,0.3-1,0.7-1.3
						c0.4-0.3,0.9-0.5,1.5-0.5s1.1,0.1,1.5,0.4c0.3,0.3,0.5,0.6,0.5,1c0,0.3-0.1,0.6-0.4,0.8c-0.2,0.1-0.7,0.3-1.5,0.5
						c-1,0.3-1.8,0.5-2.2,0.7c-0.4,0.2-0.7,0.5-0.9,0.8c-0.2,0.3-0.3,0.7-0.3,1.1c0,0.4,0.1,0.7,0.3,1s0.4,0.6,0.7,0.8
						c0.2,0.2,0.5,0.3,0.9,0.4c0.4,0.1,0.8,0.2,1.3,0.2c0.7,0,1.3-0.1,1.8-0.3c0.5-0.2,0.9-0.5,1.1-0.8c0.2-0.3,0.4-0.8,0.5-1.3
						l-1.4-0.2c-0.1,0.4-0.3,0.8-0.5,1c-0.3,0.3-0.7,0.4-1.3,0.4c-0.7,0-1.1-0.1-1.4-0.3s-0.4-0.5-0.4-0.8c0-0.2,0.1-0.3,0.2-0.5
						c0.1-0.2,0.3-0.3,0.5-0.4c0.1,0,0.6-0.2,1.3-0.4c1-0.3,1.7-0.5,2.1-0.7c0.4-0.2,0.7-0.4,1-0.8c0.2-0.3,0.3-0.7,0.3-1.2
						c0-0.5-0.1-0.9-0.4-1.4c-0.3-0.4-0.7-0.8-1.2-1C27,4,26.4,3.9,25.8,3.9c-1.1,0-1.9,0.2-2.5,0.7C22.7,5.1,22.3,5.7,22.1,6.6
						 M30.3,6.6l1.4,0.2c0.1-0.6,0.3-1,0.7-1.3c0.4-0.3,0.9-0.5,1.5-0.5s1.2,0.1,1.5,0.4c0.3,0.3,0.5,0.6,0.5,1
						c0,0.3-0.1,0.6-0.4,0.8c-0.2,0.1-0.7,0.3-1.5,0.5c-1,0.3-1.8,0.5-2.2,0.7c-0.4,0.2-0.7,0.5-0.9,0.8c-0.2,0.3-0.3,0.7-0.3,1.1
						c0,0.4,0.1,0.7,0.3,1s0.4,0.6,0.7,0.8c0.2,0.2,0.5,0.3,0.9,0.4c0.4,0.1,0.8,0.2,1.3,0.2c0.7,0,1.3-0.1,1.8-0.3
						c0.5-0.2,0.9-0.5,1.1-0.8c0.2-0.3,0.4-0.8,0.5-1.3l-1.4-0.2c-0.1,0.4-0.3,0.8-0.5,1c-0.3,0.3-0.7,0.4-1.3,0.4
						c-0.7,0-1.1-0.1-1.4-0.3c-0.3-0.2-0.4-0.5-0.4-0.8c0-0.2,0.1-0.3,0.2-0.5c0.1-0.2,0.3-0.3,0.6-0.4c0.2,0,0.6-0.2,1.3-0.4
						c1-0.3,1.7-0.5,2.1-0.7c0.4-0.2,0.7-0.4,1-0.8c0.2-0.3,0.3-0.7,0.3-1.2c0-0.5-0.1-0.9-0.4-1.4c-0.3-0.4-0.7-0.8-1.2-1
						s-1.1-0.3-1.8-0.3c-1.1,0-2,0.2-2.5,0.7C30.8,5.1,30.5,5.7,30.3,6.6 M39.1,15.8h1.4v-1.6h-1.4V15.8z M39.1,12.6h1.4V4.1h-1.4
						V12.6z M48.2,5.1c-0.5-0.5-1-0.8-1.5-1c-0.5-0.2-1-0.3-1.6-0.3c-0.9,0-1.7,0.2-2.2,0.7s-0.8,1-0.8,1.7c0,0.4,0.1,0.8,0.3,1.1
						s0.4,0.6,0.7,0.8c0.3,0.2,0.7,0.4,1,0.5C44.5,8.8,45,8.9,45.5,9c1.2,0.1,2,0.3,2.6,0.5c0,0.2,0,0.3,0,0.4c0,0.6-0.1,1-0.4,1.2
						c-0.4,0.3-0.9,0.5-1.6,0.5c-0.7,0-1.2-0.1-1.5-0.3C44.2,11,44,10.6,43.8,10l-1.4,0.2c0.1,0.6,0.3,1.1,0.6,1.5
						c0.3,0.4,0.7,0.7,1.3,0.9c0.5,0.2,1.2,0.3,1.9,0.3c0.7,0,1.3-0.1,1.8-0.3c0.5-0.2,0.8-0.4,1-0.7c0.2-0.3,0.4-0.6,0.4-1
						c0-0.3,0.1-0.7,0.1-1.3V7.6c0-1.3,0-2.2,0.1-2.5c0.1-0.3,0.2-0.7,0.4-1h-1.5C48.4,4.4,48.3,4.7,48.2,5.1 M48.1,8.4
						c-0.5-0.2-1.3-0.4-2.3-0.5c-0.6-0.1-1-0.2-1.3-0.3c-0.3-0.1-0.4-0.3-0.6-0.5c-0.1-0.2-0.2-0.4-0.2-0.7c0-0.4,0.2-0.7,0.4-1
						S44.9,5,45.4,5s1,0.1,1.5,0.4s0.8,0.6,1,1c0.2,0.3,0.2,0.8,0.2,1.4L48.1,8.4z M51.8,4.1v8.5h1.3v-1.2c0.6,0.9,1.5,1.4,2.7,1.4
						c0.5,0,1-0.1,1.4-0.3c0.4-0.2,0.8-0.4,1-0.7c0.2-0.3,0.4-0.7,0.5-1.1c0-0.3,0.1-0.7,0.1-1.4V4.1h-1.4v5.2c0,0.6-0.1,1-0.2,1.3
						c-0.1,0.3-0.3,0.5-0.6,0.7c-0.3,0.2-0.6,0.3-1,0.3c-0.6,0-1.1-0.2-1.6-0.6c-0.4-0.4-0.7-1.1-0.7-2.2V4.1L51.8,4.1L51.8,4.1z"/>
				</g>
				<g id="g24" transform="translate(42.0381,13.3408)">
					<path id="path26" class="st0" d="M20.7,4.1v11.7h5c1.3,0,2.2-0.1,2.7-0.3s1-0.6,1.4-1.1c0.3-0.5,0.5-1.1,0.5-1.8
						c0-0.9-0.3-1.6-0.8-2.2c-0.5-0.6-1.3-0.9-2.3-1.1c0.5-0.3,0.9-0.6,1.3-1c0.3-0.4,0.8-1,1.4-1.9l1.4-2.3h-2.8l-1.7,2.5
						c-0.6,0.9-1,1.5-1.3,1.7c-0.2,0.2-0.5,0.4-0.7,0.5S24.1,9,23.6,9h-0.5V4.1L20.7,4.1L20.7,4.1z M23.1,10.8h1.7
						c1.1,0,1.8,0,2.1,0.1c0.3,0.1,0.5,0.3,0.7,0.5c0.2,0.2,0.2,0.5,0.2,0.9c0,0.4-0.1,0.7-0.3,1c-0.2,0.2-0.5,0.4-0.9,0.5
						c-0.2,0-0.8,0-1.7,0h-1.8L23.1,10.8L23.1,10.8z M37.4,6.8l2.2-0.4c-0.3-0.8-0.7-1.5-1.4-1.9c-0.6-0.4-1.4-0.7-2.3-0.7
						c-1.5,0-2.6,0.5-3.3,1.4c-0.6,0.8-0.8,1.8-0.8,2.9c0,1.4,0.4,2.5,1.1,3.3c0.7,0.8,1.7,1.2,2.8,1.2c1.3,0,2.3-0.4,3-1.3
						c0.7-0.8,1.1-2.1,1-3.8h-5.6c0-0.7,0.2-1.2,0.5-1.5C35,5.7,35.5,5.5,36,5.5c0.3,0,0.7,0.1,0.9,0.3C37.1,6,37.3,6.3,37.4,6.8
						 M37.5,9c0,0.7-0.2,1.1-0.5,1.5S36.3,11,35.9,11c-0.5,0-0.9-0.2-1.2-0.5c-0.3-0.4-0.5-0.8-0.5-1.5C34.2,9,37.5,9,37.5,9z
						 M43.3,10l-2,0.4c0.2,0.8,0.6,1.4,1.2,1.8c0.6,0.4,1.4,0.6,2.5,0.6c1,0,1.7-0.1,2.2-0.4c0.5-0.2,0.8-0.5,1-0.9
						c0.2-0.4,0.3-1,0.3-2l0-2.6c0-0.8,0-1.3,0.1-1.7c0.1-0.3,0.2-0.7,0.4-1.1h-2.2c-0.1,0.2-0.1,0.4-0.2,0.7c0,0.1-0.1,0.2-0.1,0.3
						c-0.4-0.4-0.8-0.7-1.2-0.8c-0.4-0.2-0.9-0.3-1.4-0.3c-0.9,0-1.6,0.2-2.1,0.7C41.2,5.1,41,5.7,41,6.4c0,0.5,0.1,0.9,0.3,1.3
						c0.2,0.4,0.5,0.7,1,0.9c0.4,0.2,1,0.4,1.8,0.5c1,0.2,1.8,0.4,2.2,0.5v0.2c0,0.4-0.1,0.7-0.3,0.9c-0.2,0.2-0.6,0.3-1.2,0.3
						c-0.4,0-0.7-0.1-0.9-0.2C43.6,10.6,43.4,10.4,43.3,10 M46.3,8.1C46,8,45.5,7.9,44.9,7.8c-0.6-0.1-1-0.3-1.2-0.4
						c-0.3-0.2-0.4-0.5-0.4-0.8s0.1-0.6,0.3-0.8c0.2-0.2,0.5-0.3,0.9-0.3c0.4,0,0.8,0.1,1.2,0.4c0.3,0.2,0.5,0.5,0.5,0.8
						c0.1,0.2,0.1,0.6,0.1,1.1C46.3,7.7,46.3,8.1,46.3,8.1z M50.7,15.8h2.2V4.1h-2.2V15.8z M59.1,12.5v-1.8h-1.5V7.3
						c0-0.7,0-1.1,0-1.2s0.1-0.2,0.2-0.3c0.1-0.1,0.2-0.1,0.4-0.1c0.2,0,0.5,0.1,0.9,0.2l0.2-1.7c-0.5-0.2-1.1-0.3-1.8-0.3
						c-0.4,0-0.8,0.1-1.1,0.2c-0.3,0.1-0.6,0.3-0.7,0.5c-0.2,0.2-0.3,0.5-0.3,0.9c0,0.3-0.1,0.8-0.1,1.6v3.7h-1v1.8h1v1.7l2.3,1.3
						v-3L59.1,12.5L59.1,12.5z M59.6,12.5H62l2-6l2,6h2.3l-3-8.2l-0.5-1.5c-0.2-0.5-0.4-0.9-0.6-1.1c-0.2-0.3-0.4-0.5-0.6-0.6
						c-0.2-0.2-0.5-0.3-0.9-0.4s-0.7-0.1-1.1-0.1c-0.4,0-0.8,0-1.3,0.1l-0.2,1.8c0.3-0.1,0.7-0.1,1-0.1c0.5,0,0.9,0.2,1.2,0.5
						c0.3,0.3,0.4,0.7,0.6,1.2L59.6,12.5z"/>
				</g>
				<g id="g28" transform="translate(0.2573,7.125)">
					<path id="path30" class="st0" d="M2,1.3v6.8h0.8V7.4C2.9,7.7,3.1,7.9,3.3,8c0.2,0.1,0.5,0.2,0.8,0.2c0.4,0,0.8-0.1,1.1-0.3
						C5.6,7.6,5.8,7.3,6,6.9c0.2-0.4,0.3-0.8,0.3-1.3c0-0.5-0.1-1-0.3-1.4C5.8,3.9,5.5,3.6,5.2,3.4C4.9,3.2,4.5,3.1,4.1,3.1
						c-0.3,0-0.5,0.1-0.8,0.2C3.1,3.4,3,3.5,2.8,3.7V1.3L2,1.3L2,1.3z M2.7,5.6c0-0.6,0.1-1.1,0.4-1.4C3.4,3.9,3.7,3.7,4,3.7
						c0.4,0,0.7,0.2,0.9,0.5C5.3,4.5,5.4,5,5.4,5.7c0,0.6-0.1,1.1-0.4,1.4S4.4,7.5,4.1,7.5S3.4,7.4,3.1,7C2.9,6.7,2.7,6.2,2.7,5.6
						 M7.1,1.3L7,2.1C7.2,2,7.3,2,7.5,2c0.2,0,0.3,0,0.4,0.1s0.2,0.2,0.3,0.3c0.1,0.1,0.1,0.3,0.3,0.6c0,0,0,0.1,0.1,0.2L6.7,8h0.9
						l1-2.8c0.1-0.4,0.3-0.7,0.4-1.1C9,4.5,9.1,4.8,9.3,5.2L10.3,8h0.8l-1.9-5C9.1,2.5,8.9,2.2,8.8,2C8.7,1.7,8.5,1.5,8.3,1.4
						C8.1,1.2,7.9,1.2,7.6,1.2C7.5,1.2,7.3,1.2,7.1,1.3 M14.9,5l0.8-0.1c-0.1-0.6-0.3-1-0.7-1.3s-0.8-0.5-1.4-0.5
						c-0.7,0-1.2,0.2-1.6,0.7s-0.6,1.1-0.6,1.9c0,0.5,0.1,1,0.3,1.4c0.2,0.4,0.4,0.7,0.8,0.9c0.4,0.2,0.8,0.3,1.2,0.3
						c0.5,0,1-0.1,1.3-0.4c0.3-0.3,0.6-0.7,0.6-1.1l-0.8-0.1c-0.1,0.3-0.2,0.6-0.4,0.7c-0.2,0.2-0.4,0.3-0.7,0.3
						c-0.4,0-0.8-0.2-1-0.5s-0.4-0.8-0.4-1.4c0-0.7,0.1-1.1,0.4-1.4c0.3-0.3,0.6-0.4,1-0.4c0.3,0,0.6,0.1,0.8,0.3
						C14.7,4.2,14.9,4.5,14.9,5 M19.7,5l0.8-0.1c-0.1-0.6-0.3-1-0.7-1.3S19,3.1,18.4,3.1c-0.7,0-1.2,0.2-1.6,0.7
						c-0.4,0.4-0.6,1.1-0.6,1.9c0,0.5,0.1,1,0.3,1.4c0.2,0.4,0.4,0.7,0.8,0.9c0.4,0.2,0.8,0.3,1.2,0.3c0.5,0,1-0.1,1.3-0.4
						c0.3-0.3,0.5-0.7,0.6-1.1l-0.8-0.1c-0.1,0.3-0.2,0.6-0.4,0.7c-0.2,0.2-0.4,0.3-0.7,0.3c-0.4,0-0.8-0.2-1-0.5s-0.4-0.8-0.4-1.4
						c0-0.7,0.1-1.1,0.4-1.4c0.3-0.3,0.6-0.4,1-0.4c0.3,0,0.6,0.1,0.8,0.3C19.5,4.2,19.6,4.5,19.7,5 M21.2,8.1H22V5.9
						c0.3,0,0.5,0,0.5,0.2C22.7,6.2,22.8,6.5,23,7c0.2,0.4,0.3,0.6,0.4,0.8C23.5,7.9,23.6,8,23.8,8c0.1,0,0.3,0.1,0.6,0.1h0.2V7.4
						l-0.2,0c-0.2,0-0.4,0-0.4-0.1c-0.1-0.1-0.2-0.3-0.3-0.6c-0.1-0.3-0.2-0.5-0.4-0.7c-0.1-0.1-0.3-0.2-0.5-0.3
						c0.4-0.1,0.7-0.4,1-1l0.9-1.5h-0.9L23,4.7c-0.2,0.3-0.3,0.5-0.5,0.6S22.2,5.4,22,5.4V3.2h-0.8V8.1L21.2,8.1z M28.7,3.8
						c-0.3-0.3-0.6-0.4-0.9-0.5c-0.3-0.1-0.6-0.2-0.9-0.2c-0.5,0-1,0.1-1.2,0.4c-0.3,0.3-0.4,0.6-0.4,1c0,0.2,0.1,0.5,0.2,0.7
						s0.3,0.4,0.4,0.5c0.2,0.1,0.4,0.2,0.6,0.3c0.2,0,0.4,0.1,0.7,0.1c0.7,0.1,1.2,0.2,1.5,0.3c0,0.1,0,0.2,0,0.2
						c0,0.3-0.1,0.6-0.2,0.7c-0.2,0.2-0.5,0.3-0.9,0.3c-0.4,0-0.7-0.1-0.9-0.2s-0.3-0.4-0.4-0.7l-0.8,0.1c0.1,0.3,0.2,0.6,0.4,0.8
						c0.2,0.2,0.4,0.4,0.7,0.5c0.3,0.1,0.7,0.2,1.1,0.2s0.8,0,1-0.2c0.3-0.1,0.5-0.2,0.6-0.4c0.1-0.2,0.2-0.3,0.3-0.6
						c0-0.1,0-0.4,0-0.8V5.2c0-0.8,0-1.3,0.1-1.5c0-0.2,0.1-0.4,0.2-0.6h-0.9C28.8,3.3,28.8,3.5,28.7,3.8 M28.7,5.6
						c-0.3-0.1-0.8-0.2-1.4-0.3c-0.3,0-0.6-0.1-0.7-0.2c-0.1-0.1-0.3-0.2-0.3-0.3s-0.1-0.3-0.1-0.4c0-0.2,0.1-0.4,0.3-0.5
						c0.2-0.2,0.4-0.2,0.7-0.2c0.3,0,0.6,0.1,0.9,0.2c0.3,0.1,0.4,0.3,0.5,0.6c0.1,0.2,0.1,0.5,0.1,0.8L28.7,5.6z M34.6,8.1V3.2
						h-0.8v1.9h-0.5c-0.3,0-0.5,0-0.7-0.1c-0.1-0.1-0.3-0.3-0.6-0.7l-0.7-1.1h-1l0.9,1.3c0.3,0.4,0.5,0.6,0.8,0.7
						c-0.5,0.1-0.8,0.2-1,0.5c-0.2,0.3-0.3,0.6-0.3,1c0,0.4,0.1,0.8,0.5,1c0.3,0.3,0.7,0.4,1.3,0.4H34.6L34.6,8.1z M33.8,7.4h-1.2
						c-0.5,0-0.8-0.1-1-0.2c-0.1-0.2-0.2-0.3-0.2-0.5c0-0.3,0.1-0.5,0.3-0.7c0.2-0.1,0.6-0.2,1.1-0.2h0.9V7.4z M38.5,8.1h0.8V6h2.3
						v2h0.8V3.2h-0.8v2.2h-2.3V3.2h-0.8V8.1z M47.1,4.7L48,4.6c-0.1-0.5-0.4-0.9-0.8-1.2C46.8,3.2,46.4,3,45.8,3
						c-0.7,0-1.3,0.2-1.7,0.7c-0.4,0.4-0.6,1.1-0.6,1.9c0,0.8,0.2,1.5,0.6,1.9c0.4,0.5,1,0.7,1.7,0.7c0.7,0,1.2-0.2,1.6-0.7
						C47.8,7.1,48,6.4,48,5.6c0,0,0-0.1,0-0.2h-3.7c0-0.5,0.2-1,0.5-1.2s0.6-0.4,1-0.4c0.3,0,0.6,0.1,0.8,0.2
						C46.8,4.1,47,4.4,47.1,4.7 M44.4,6.1h2.7c0,0.4-0.1,0.7-0.3,0.9c-0.3,0.3-0.6,0.5-1,0.5c-0.4,0-0.7-0.1-1-0.4
						C44.5,6.9,44.4,6.5,44.4,6.1 M49.4,8.1h3.4V3.9h0.5V1.8h-0.7v1.4h-3.9V1.8h-0.7v2.1h0.4C49.2,4.6,49.5,6,49.4,8.1 M50.1,7.4
						c-0.1-1.6-0.3-2.8-0.7-3.5H52v3.5H50.1z M54.3,8.1h1.9c0.5,0,0.8,0,1-0.1c0.2-0.1,0.4-0.2,0.6-0.4s0.3-0.5,0.3-0.8
						c0-0.2,0-0.4-0.2-0.6s-0.2-0.3-0.4-0.4c0.2-0.1,0.4-0.2,0.6-0.4s0.2-0.5,0.2-0.8c0-0.5-0.2-0.8-0.5-1c-0.3-0.2-0.7-0.3-1.3-0.3
						h-2.2C54.3,3.2,54.3,8.1,54.3,8.1z M55.1,6H56c0.3,0,0.6,0,0.7,0.1s0.3,0.1,0.3,0.2c0.1,0.1,0.2,0.3,0.2,0.4
						c0,0.3-0.1,0.4-0.3,0.5c-0.2,0.1-0.5,0.2-0.9,0.2h-0.9V6L55.1,6z M55.1,3.8h1.1c0.5,0,0.8,0.1,1,0.2c0.2,0.1,0.3,0.3,0.3,0.6
						c0,0.2,0,0.3-0.2,0.4c-0.1,0.1-0.2,0.2-0.4,0.3c-0.2,0-0.4,0.1-0.8,0.1h-1L55.1,3.8L55.1,3.8z M59.3,8.1h0.8V4.3l2.3,3.7h0.9
						V3.2h-0.8v3.7l-2.3-3.7h-0.9V8.1z M67.5,8.1V5.9c0.3,0,0.4,0,0.6,0.2c0.1,0.1,0.3,0.4,0.5,0.9c0.2,0.5,0.4,0.8,0.5,0.9
						c0.2,0.1,0.4,0.2,0.7,0.2h0.3V7.4l-0.2,0c-0.2,0-0.4,0-0.4-0.1c-0.1-0.1-0.2-0.3-0.3-0.6C69,6.4,68.9,6.1,68.8,6
						c-0.1-0.1-0.3-0.2-0.5-0.3c0.4-0.1,0.7-0.4,1.1-1l0.9-1.5h-0.9l-0.9,1.5C68.3,5,68.2,5.2,68,5.3c-0.1,0.1-0.3,0.1-0.5,0.1V3.2
						h-0.8v2.3c-0.2,0-0.3,0-0.5-0.1S65.9,5,65.7,4.7l-0.9-1.5h-0.9l0.9,1.5c0.3,0.6,0.7,0.9,1.1,1c-0.3,0.1-0.4,0.2-0.5,0.4
						c-0.1,0.1-0.3,0.5-0.4,1c-0.1,0.2-0.1,0.3-0.2,0.3c-0.1,0-0.2,0.1-0.3,0.1c0,0-0.1,0-0.2,0v0.7h0.1c0.3,0,0.5,0,0.7-0.1
						c0.1,0,0.3-0.1,0.3-0.3s0.2-0.4,0.4-0.8c0.2-0.5,0.4-0.8,0.5-0.9c0.1-0.1,0.3-0.2,0.6-0.2v2.1L67.5,8.1z M70.9,8.1h0.8V4.3
						L74,8.1h0.9V3.2h-0.8v3.7l-2.3-3.7h-0.9V8.1L70.9,8.1z M76.2,8.1h1.3l1.3-3.9l1.4,3.9h1.2V3.2h-0.8v3.9l-1.4-3.9h-0.7L77,7.3
						V3.2h-0.8L76.2,8.1L76.2,8.1z M82.4,5.6c0,0.9,0.3,1.6,0.8,2c0.4,0.4,0.9,0.5,1.5,0.5c0.7,0,1.2-0.2,1.7-0.7s0.7-1,0.7-1.8
						c0-0.6-0.1-1.1-0.3-1.5c-0.2-0.4-0.5-0.7-0.8-0.8c-0.4-0.2-0.8-0.3-1.2-0.3c-0.7,0-1.2,0.2-1.7,0.7C82.6,4.1,82.4,4.8,82.4,5.6
						 M83.2,5.6c0-0.6,0.1-1.1,0.4-1.4c0.3-0.3,0.6-0.5,1-0.5c0.4,0,0.8,0.2,1,0.5s0.4,0.8,0.4,1.4c0,0.6-0.1,1.1-0.4,1.4
						s-0.6,0.5-1,0.5c-0.4,0-0.8-0.2-1-0.5C83.4,6.7,83.2,6.2,83.2,5.6 M91.1,5l0.8-0.1c-0.1-0.6-0.3-1-0.7-1.3s-0.8-0.5-1.4-0.5
						c-0.7,0-1.2,0.2-1.6,0.7s-0.6,1.1-0.6,1.9c0,0.5,0.1,1,0.3,1.4c0.2,0.4,0.4,0.7,0.8,0.9s0.8,0.3,1.2,0.3c0.5,0,1-0.1,1.3-0.4
						c0.3-0.3,0.6-0.7,0.7-1.1L91,6.5c-0.1,0.3-0.2,0.6-0.4,0.7c-0.2,0.2-0.4,0.3-0.7,0.3c-0.4,0-0.8-0.2-1-0.5
						c-0.3-0.3-0.4-0.8-0.4-1.4c0-0.7,0.1-1.1,0.4-1.4c0.3-0.3,0.6-0.4,1-0.4c0.3,0,0.6,0.1,0.8,0.3C90.9,4.2,91.1,4.5,91.1,5
						 M92.2,8.1h4V7.4h-1.6V3.2h-0.8v4.2h-1.6L92.2,8.1L92.2,8.1z M97,8.1h0.8V6.1h1.1c0.7,0,1.2-0.1,1.6-0.4
						c0.4-0.3,0.6-0.6,0.6-1.1c0-0.4-0.2-0.8-0.5-1S99.7,3.2,99,3.2H97L97,8.1z M97.8,3.8h0.9c0.5,0,0.9,0.1,1.1,0.2
						c0.2,0.1,0.3,0.3,0.3,0.6c0,0.2-0.1,0.4-0.3,0.6s-0.5,0.3-1.1,0.3h-1V3.8L97.8,3.8z"/>
				</g>
			</g>
		</g>
	</g>
</g>
</svg>
