<svg id="Слой_1" data-name="Слой 1" xmlns="http://www.w3.org/2000/svg" viewBox="0 0 246.43 245.15">
    <path d="M223.93,244.72a108.32,108.32,0,0,1-9.5-8.19c-17.12-17.37-34.07-34.91-51.05-52.42-2.4-2.48-4.62-5.13-7.22-8-.91.56-2.15,1.26-3.33,2-19.68,13.09-41.2,20.62-65,19.62-28.7-1.2-52.26-12.62-69.43-36.47-8-11.07-13.91-22.92-16-36.25-4-24.84,2-47.67,15.4-68.81C36,27.63,61.88,10.42,94.9,4.22,154.29-6.93,194.64,36,200.43,78.4c3.9,28.59-4,54-22.08,76.44-1.33,1.66-2.7,3.28-4.25,5.16,15.44,13.31,30.61,26.38,45.77,39.46,6.79,5.85,13.61,11.65,20.36,17.55,11,9.62,9.55,21.88-3.38,28.9a24,24,0,0,1-5.67,1.66C227.86,247.57,226.59,246.58,223.93,244.72ZM159.8,66.56c-.63-1.48-.94-2.42-1.4-3.28-12.94-24.42-42.81-38.66-69.9-32.82C60.83,36.43,43,53.46,37.17,81c-5.88,27.85,3.46,51.18,26.3,68.29,30.86,23.14,71.92,10,93.75-9.77l-18.95-28.26c-3.48,2.52-6.35,4.78-9.4,6.78-9.7,6.37-20.19,10-32,8.4-5.62-.76-10.7-2.78-14.54-7.84Z"
          fill="#FFFFFF" stroke="none" transform="translate(-1.18 -2.43)"/>
    <path fill="#FFFFFF" stroke="none" d="M70.62,96.6C69.85,83,74,72.84,84.56,66c9.86-6.39,20.21-6.09,31.44-.66Z" transform="translate(-1.18 -2.43)"/>
</svg>