<svg id="Слой_1" data-name="Слой 1" xmlns="http://www.w3.org/2000/svg" xmlns:xlink="http://www.w3.org/1999/xlink" viewBox="0 0 79.33 28.46">
    <g id="Layer_2" data-name="Layer 2" fill="#FFFFFF" stroke="none">
        <path class="cls-1"
              d="M28.49,37.89H4.79a9.9,9.9,0,0,1,17.93-3.32L26.3,32.2A14.17,14.17,0,0,0,.5,42.2H24.2a9.91,9.91,0,0,1-18,3.37L2.7,47.94a14.17,14.17,0,0,0,25.79-5.75,15.24,15.24,0,0,0,.16-2.12h0A14.44,14.44,0,0,0,28.49,37.89Z"
              transform="translate(-0.33 -25.77)"/>
        <path class="cls-2"
              d="M54.16,40.06A14.17,14.17,0,0,0,26,37.89a13.77,13.77,0,0,0,0,4.25A14.17,14.17,0,0,0,51.76,47.9c-1.11-.87-2.37-1.59-3.55-2.37A9.9,9.9,0,0,1,30.3,42.19H54A15.27,15.27,0,0,0,54.16,40.06ZM30.3,37.89a9.92,9.92,0,0,1,19.37,0Z"
              transform="translate(-0.33 -25.77)"/>
        <path class="cls-3" d="M65.5,25.89A14.17,14.17,0,1,0,79.67,40.06,14.16,14.16,0,0,0,65.5,25.89Zm0,24.1a9.92,9.92,0,1,1,9.92-9.92h0A9.94,9.94,0,0,1,65.5,50Z"
              transform="translate(-0.33 -25.77)"/>
    </g>
</svg>