<?xml version="1.0" encoding="utf-8"?>
<!-- Generator: Adobe Illustrator 22.0.1, SVG Export Plug-In . SVG Version: 6.00 Build 0)  -->
<svg version="1.1" id="Слой_1" xmlns="http://www.w3.org/2000/svg" xmlns:xlink="http://www.w3.org/1999/xlink" x="0px" y="0px"
	 viewBox="0 0 185 23" style="enable-background:new 0 0 185 23;" xml:space="preserve">
<style type="text/css">
	.st0{fill:#FFFFFF;}
</style>
<path class="st0" d="M98.9,21.6h-2.7l-4.6-5.5L87,21.6h-2.7l5.9-7.1l-5.6-6.7h2.7l4.2,5.1l4.2-5.1h2.7l-5.6,6.7L98.9,21.6z
	 M58.2,21.9c-4.2,0-5.5-1-5.5-1v-20h2.1v7.3c0.8-0.4,1.9-0.7,3.4-0.7c4.2,0,7.6,3,7.6,7.2S62.4,21.9,58.2,21.9z M58.2,9.5
	c-1.4,0-2.6,0.6-3.4,1.1v8.5c0,0,1.1,0.7,3.4,0.7c3,0,5.5-2.1,5.5-5.2C63.7,11.6,61.3,9.5,58.2,9.5z M45.9,0.9h2.1v20.7h-2.1V0.9z
	 M41.1,0.9v20.7H39V0.9H41.1z M33.1,4c-0.9,0-1.7-0.8-1.7-1.7c0-1,0.8-1.7,1.7-1.7c0.9,0,1.7,0.8,1.7,1.7C34.8,3.2,34.1,4,33.1,4z
	 M26.3,21.6l-7.2-7.2l6.5-6.5h2.9L22,14.3l7.2,7.2H26.3z M17,21.6V0.9h2.1v13.4v7.2H17z M13.8,15.9c0,3.5-2.7,6-7.1,6
	c-2.8,0-5-1.4-6.7-3l1.5-1.6c1.4,1.3,3,2.6,5.2,2.6c2.4,0,5.1-1.4,5.1-3.8c0-2-1.6-3.4-5-4.4c-3.9-1.2-5.9-2.8-5.9-5.8
	c0-3,2.5-5.5,6.2-5.5c2.7,0,4.4,1.2,6,2.6l-1.4,1.6c-1.4-1.3-2.8-2.2-4.5-2.2C5,2.3,2.9,3.7,2.9,5.6c0,1.8,1,2.9,4.6,4
	C10.8,10.6,13.8,12.2,13.8,15.9z M34.2,21.6h-2.1V7.8h2.1V21.6z M75.7,22.3c-4.2,0-7.6-3.4-7.6-7.6s3.4-7.6,7.6-7.6
	c4.2,0,7.6,3.4,7.6,7.6S79.9,22.3,75.7,22.3z M75.7,9.2c-3,0-5.5,2.5-5.5,5.5c0,3,2.5,5.5,5.5,5.5s5.5-2.5,5.5-5.5
	C81.2,11.6,78.8,9.2,75.7,9.2z"/>
<path class="st0" d="M109.9,1.9h3.3l6.1,15.7l5.9-15.7h3.3V22h-2.4V5.1L119.6,22h-0.7l-6.8-16.9V22h-2.2V1.9z"/>
<path class="st0" d="M139.6,22.3c-1,0-2-0.2-2.8-0.5c-0.8-0.4-1.6-0.9-2.2-1.5c-0.6-0.7-1.1-1.4-1.5-2.4c-0.3-0.9-0.5-1.9-0.5-3.1
	v-0.2c0-1.1,0.2-2.1,0.5-3c0.3-0.9,0.8-1.7,1.4-2.4c0.6-0.7,1.3-1.2,2.1-1.5c0.8-0.4,1.7-0.6,2.7-0.6c0.8,0,1.6,0.1,2.4,0.4
	c0.8,0.3,1.5,0.7,2.1,1.3c0.6,0.6,1.1,1.3,1.4,2.3c0.4,0.9,0.6,2,0.6,3.3v0.8H135c0.1,1.7,0.5,3,1.2,3.9c0.8,0.9,1.9,1.3,3.4,1.3
	c2.3,0,3.5-0.9,3.8-2.6h2.3c-0.3,1.5-0.9,2.6-2,3.4C142.6,21.9,141.2,22.3,139.6,22.3z M143.5,13.2c-0.1-1.5-0.5-2.6-1.3-3.3
	c-0.7-0.7-1.7-1-2.9-1c-1.2,0-2.1,0.4-2.9,1.2c-0.7,0.8-1.2,1.8-1.4,3.1H143.5z"/>
<path class="st0" d="M155.1,22.3c-0.9,0-1.8-0.2-2.6-0.5c-0.8-0.3-1.5-0.8-2.1-1.4c-0.6-0.6-1-1.4-1.4-2.3c-0.3-0.9-0.5-2-0.5-3.1
	v-0.2c0-1.1,0.2-2.2,0.5-3.1c0.3-0.9,0.8-1.7,1.4-2.4c0.6-0.7,1.3-1.2,2.1-1.6c0.8-0.4,1.7-0.6,2.7-0.6c1.2,0,2.2,0.3,2.9,0.8
	c0.8,0.5,1.3,1.1,1.8,1.8V0.3h2.3V22H160v-2.5c-0.2,0.4-0.5,0.7-0.8,1c-0.3,0.3-0.7,0.6-1.2,0.9c-0.4,0.2-0.9,0.4-1.4,0.6
	C156.1,22.2,155.6,22.3,155.1,22.3z M155.4,20.3c0.7,0,1.3-0.1,1.9-0.3c0.6-0.2,1.1-0.6,1.5-1c0.4-0.5,0.8-1.1,1-1.7
	c0.3-0.7,0.4-1.5,0.4-2.5v-0.2c0-1.9-0.4-3.3-1.2-4.2C158.1,9.4,157,9,155.5,9c-1.4,0-2.6,0.5-3.4,1.5c-0.8,1-1.2,2.4-1.2,4.2v0.2
	c0,0.9,0.1,1.8,0.3,2.4c0.2,0.7,0.6,1.2,0.9,1.7c0.4,0.5,0.9,0.8,1.4,1C154.2,20.2,154.7,20.3,155.4,20.3z"/>
<path class="st0" d="M167.3,7.3h2.3V22h-2.3V7.3z M168.4,4.2c-0.4,0-0.8-0.2-1.1-0.5c-0.3-0.3-0.4-0.7-0.4-1.1
	c0-0.4,0.1-0.8,0.4-1.1c0.3-0.3,0.7-0.5,1.1-0.5c0.4,0,0.8,0.2,1.1,0.5c0.3,0.3,0.4,0.7,0.4,1.1c0,0.4-0.1,0.8-0.4,1.1
	C169.2,4.1,168.8,4.2,168.4,4.2z"/>
<path class="st0" d="M178.2,22.3c-0.7,0-1.3-0.1-1.9-0.3c-0.6-0.2-1.1-0.4-1.5-0.8c-0.4-0.4-0.8-0.8-1-1.4c-0.2-0.5-0.4-1.2-0.4-1.9
	c0-0.8,0.2-1.6,0.6-2.1c0.4-0.6,0.9-1.1,1.6-1.4c0.7-0.4,1.5-0.6,2.3-0.8c0.9-0.2,1.8-0.3,2.7-0.3h2.1v-1.1c0-1.2-0.2-2-0.7-2.5
	c-0.5-0.5-1.3-0.8-2.4-0.8c-2,0-3.1,0.9-3.3,2.6H174c0.1-0.8,0.3-1.6,0.6-2.1c0.3-0.6,0.8-1.1,1.3-1.4c0.5-0.4,1.1-0.6,1.8-0.8
	c0.7-0.2,1.3-0.3,2-0.3c0.7,0,1.3,0.1,2,0.3c0.6,0.2,1.2,0.4,1.7,0.8c0.5,0.4,0.9,0.9,1.2,1.6c0.3,0.7,0.4,1.5,0.4,2.6V22h-2.3v-1.9
	c-0.5,0.7-1.1,1.2-1.8,1.6C180.2,22.1,179.3,22.3,178.2,22.3z M178.4,20.4c0.6,0,1.2-0.1,1.7-0.2c0.5-0.2,1-0.4,1.4-0.7
	c0.4-0.3,0.7-0.7,0.9-1.1c0.2-0.5,0.3-1,0.3-1.5V15h-2c-0.7,0-1.4,0.1-2,0.2c-0.6,0.1-1.1,0.3-1.6,0.5c-0.4,0.2-0.8,0.5-1,0.9
	c-0.2,0.4-0.4,0.8-0.4,1.4c0,0.8,0.2,1.4,0.6,1.8C176.7,20.2,177.4,20.4,178.4,20.4z"/>
</svg>
