<?xml version="1.0" encoding="utf-8"?>
<!-- Generator: Adobe Illustrator 22.0.1, SVG Export Plug-In . SVG Version: 6.00 Build 0)  -->
<svg version="1.1" id="Layer_1" xmlns="http://www.w3.org/2000/svg" xmlns:xlink="http://www.w3.org/1999/xlink" x="0px" y="0px"
	 viewBox="0 0 572 204" style="enable-background:new 0 0 572 204;" xml:space="preserve">
<style type="text/css">
	.st0{fill:#FFFFFF;}
</style>
<g>
	<g id="Text">
		<path class="st0" d="M12.1,110.7l27.1-13.8c4.9,10,13.4,16.8,28.9,16.8c15,0,18.7-5.2,18.7-9.9c0-7.4-7.9-10.4-28.5-15.4
			c-20.5-5-40.5-13.7-40.5-36.8c0-23.3,22.4-36.8,46.2-36.8c22.6,0,40.3,9.5,50.4,27.3L87.8,55.7c-4.7-8.6-11.2-14-23.8-14
			c-9.8,0-14.8,4.3-14.8,9.2c0,5.5,3.3,9.3,24.8,15c20.9,5.5,44.3,11.9,44.3,37.5c0,23.3-21.2,37.2-51.1,37.2
			C38.2,140.6,19.8,128.5,12.1,110.7z"/>
		<path class="st0" d="M270.8,138.2h-31.5V70.9l-35.6,51.4h-3.5l-35.6-51.4v67.4h-31.5V17.1h31.5l37.4,53.8l37.4-53.8h31.5V138.2z"
			/>
		<path class="st0" d="M464,111.6v26.6h-80.7V17.1h31.5v94.4H464z"/>
		<path class="st0" d="M559.9,111.6v26.6h-80.7V17.1h31.5v94.4H559.9z"/>
		<polygon class="st0" points="310.9,82.8 327,17.1 343.2,82.8 		"/>
		<polygon class="st0" points="294.6,138.2 301.5,112.5 352.6,112.5 359.5,138.2 		"/>
	</g>
	<rect id="Line" x="19.2" y="178.3" class="st0" width="180" height="1.6"/>
	<path class="st0" d="M237.2,184h-11.1l-2.2,5h-1.8l8.6-19.6h1.8l8.6,19.6h-1.8L237.2,184z M236.6,182.6l-4.9-11.4l-4.9,11.4H236.6z
		"/>
	<path class="st0" d="M276.3,180.6c0,4.7-4.1,8.7-10.7,8.7c-6.9,0-11.6-4.5-11.6-10.1c0-5.6,4.8-10.1,11.5-10.1
		c4.1,0,7.7,1.9,9.5,4.7l-1.5,0.8c-1.5-2.5-4.6-4.1-8-4.1c-5.8,0-9.8,3.9-9.8,8.7c0,4.8,4,8.7,10,8.7c5.4,0,8.6-2.9,9-6.6h-9.4v-1.4
		h11.1L276.3,180.6L276.3,180.6z"/>
	<path class="st0" d="M305,187.6v1.4h-12.8v-19.6h12.6v1.4h-10.9v7.6H304v1.4h-10.1v7.8L305,187.6L305,187.6z"/>
	<path class="st0" d="M337.1,169.4V189h-1.5l-13.1-16.9V189h-1.7v-19.6h1.5l13.1,16.9v-16.9H337.1z"/>
	<path class="st0" d="M353,179.2c0-5.6,4.8-10.1,11.5-10.1c4.1,0,7.7,1.8,9.5,4.7l-1.5,0.8c-1.5-2.4-4.5-4-8-4
		c-5.8,0-9.8,3.9-9.8,8.7c0,4.8,4,8.7,9.8,8.7c3.5,0,6.6-1.7,8.1-4.1l1.5,0.8c-1.8,2.9-5.4,4.8-9.6,4.8
		C357.8,189.3,353,184.8,353,179.2z"/>
	<path class="st0" d="M391.4,169.4V189h-1.7v-19.6H391.4z"/>
	<path class="st0" d="M421.4,187.6v1.4h-12.8v-19.6h12.6v1.4h-10.9v7.6h10.1v1.4h-10.1v7.8L421.4,187.6L421.4,187.6z"/>
	<path class="st0" d="M435.9,184.7l1.5-0.8c0.8,2.4,3,3.9,6.6,3.9c3.7,0,5.6-1.7,5.6-3.9c0-2.4-2.3-3.2-5.7-4.2c-3.7-1.1-7-2-7-5.4
		c0-3.2,2.9-5.3,6.7-5.3c3.6,0,6,1.8,7.1,4.1l-1.4,0.7c-0.8-1.8-2.5-3.4-5.7-3.4c-3.1,0-5,1.6-5,3.8c0,2.4,2.2,3.1,5.4,4
		c3.9,1.1,7.3,2.2,7.3,5.6c0,3.2-2.9,5.4-7.3,5.4C439.9,189.3,436.9,187.4,435.9,184.7z"/>
	<path class="st0" d="M493.5,169.4V189h-1.7v-9.4H479v9.4h-1.7v-19.6h1.7v8.8h12.9v-8.8H493.5z"/>
	<path class="st0" d="M510.4,182.4v-13h1.7v13c0,3.2,2.2,5.4,6.4,5.4c4.2,0,6.5-2.2,6.5-5.4v-13h1.7v13c0,4.1-3.3,6.9-8.1,6.9
		C513.7,189.3,510.4,186.6,510.4,182.4z"/>
	<path class="st0" d="M559.2,183.6c0,3-2.7,5.3-6,5.3h-9.6v-19.6h8.8c3.2,0,5.8,2.3,5.8,5.2c0,1.9-1.1,3.5-2.8,4.3
		C557.6,179.6,559.2,181.4,559.2,183.6z M545.3,170.8v7.5h7.2c2.3,0,4.1-1.7,4.1-3.8c0-2.1-1.9-3.8-4.1-3.8L545.3,170.8L545.3,170.8
		z M557.5,183.6c0-2.2-2-3.9-4.4-3.9h-7.9v7.9h7.9C555.5,187.6,557.5,185.8,557.5,183.6z"/>
</g>
</svg>
