<?xml version="1.0" encoding="utf-8"?>
<!-- Generator: Adobe Illustrator 22.0.1, SVG Export Plug-In . SVG Version: 6.00 Build 0)  -->
<svg version="1.1" id="Слой_1" xmlns="http://www.w3.org/2000/svg" xmlns:xlink="http://www.w3.org/1999/xlink" x="0px" y="0px"
	 viewBox="0 0 1119.9 335.5" style="enable-background:new 0 0 1119.9 335.5;" xml:space="preserve">
<style type="text/css">
	.st0{fill:#FFFFFF;}
</style>
<g>
	<path class="st0" d="M541.8,313.2c-58.7,0-117.3,0-176,0c-35.4,0-62.7-22.2-69.6-56.8c-0.9-4.4-1-8.9-1-13.4
		c-0.1-48.7,0.4-97.3-0.2-146c-0.4-39,31.4-70.5,70.8-70.4c118,0.4,236,0.1,354,0.2c32.8,0,60.2,21.8,67.5,53.9
		c1.2,5.1,1.7,10.6,1.7,15.8c0.1,49,0.2,98,0,147c-0.1,39.8-30.3,69.7-70.2,69.7C659.8,313.3,600.8,313.2,541.8,313.2z M542.3,293.5
		c58.7,0,117.3,0,176,0c29.7,0,51-21.4,51.1-51.2c0.1-48.2,0.1-96.3-0.1-144.5c0-5.6-0.8-11.4-2.4-16.7
		C760.7,60,741.5,46.5,718,46.5c-109.8,0-219.6,0-329.5,0c-8.2,0-16.3-0.1-24.5,0c-27.7,0.4-49,21.8-49.1,49.4
		c-0.1,49.5,0,99,0,148.5c0,8.5,1.9,16.6,6.2,23.9c10,17,25.1,25.2,44.7,25.2C424.7,293.6,483.5,293.5,542.3,293.5z"/>
	<path class="st0" d="M1085,169.2c-0.4,71.8-52.6,132.2-124,141.7c-43.1,5.8-81.4-6.3-114.3-35c-3.1-2.7-6.2-5.6-9.2-8.5
		c-4.5-4.4-4.5-11.9-0.1-16.1c4.3-4.2,10.2-3.5,15,1.4c36.4,37.1,80.1,48.9,128.9,32.3c48.5-16.5,76.5-52.3,82.1-103.4
		c7.2-65.1-38.4-123.5-103-132.9c-41.9-6.1-77.9,6.9-107.5,37.3c-0.7,0.7-1.4,1.5-2,2.2c-5.4,5.7-10.7,6.6-15.2,2.5
		c-4.6-4.2-4.8-11.6,0.6-16.4c10.3-9.2,20.2-19.2,31.9-26.3c86.3-52.7,197.5-1.9,214.6,97.8C1084,153.5,1084.3,161.4,1085,169.2z"/>
	<path class="st0" d="M241.1,70.9c-0.2,0.7-0.7,2.7-1.5,4.4c-30.5,65.7-61.1,131.4-91.7,197c-3.2,6.9-9.1,9.5-14.9,6.8
		c-5.7-2.7-7.4-8.9-4.2-15.9c30.5-65.5,61.1-131,91.6-196.5c2.8-6,7.4-8.7,12.5-7.6C237.9,60.3,241.2,64.4,241.1,70.9z"/>
	<path class="st0" d="M167.1,70.6c-0.3,0.8-0.8,2.9-1.7,4.8c-30.5,65.6-61.1,131.2-91.7,196.9c-2.7,5.8-6.5,8.3-11.5,7.8
		c-4.5-0.5-8.6-3.9-9.1-8.6c-0.3-2.5,0.3-5.4,1.4-7.6c30.5-65.8,61.2-131.6,91.9-197.3c2.8-6,7.5-8.6,12.6-7.4
		C163.8,60.4,167,64.4,167.1,70.6z"/>
	<path class="st0" d="M1005.3,148.3c0,8.5,0.2,17-0.1,25.5c-0.1,3.9,1.1,5.7,5.1,5.1c0.8-0.1,1.7,0,2.5,0c5.8,0,8.8,4.7,5.9,9.7
		c-0.7,1.2-3.3,1.7-5.1,1.7c-8.9,0.3-8.2-1.2-8.3,8.4c0,4-0.2,8,0.1,12c0.2,3.4-1.4,4.5-4.4,4.5c-1.7,0-3.3,0-5,0
		c-3,0-4.5-1.3-4.3-4.6c0.2-5-0.2-10,0.1-15c0.3-4.3-1.4-5.3-5.5-5.3c-11.8,0.2-23.6,0.1-35.5,0.1c-5.3,0-6.6-1.2-6-6.4
		c0.3-2.5,1.3-5.2,2.8-7.3c13.6-18.7,27.4-37.3,41.1-55.9c2.8-3.7,10.9-5.9,14.7-3.6c1,0.6,1.6,2.7,1.6,4.1
		C1005.3,130.3,1005.3,139.3,1005.3,148.3z M960.3,178.7c10.7,0,20,0.1,29.2-0.2c0.8,0,2.1-2.6,2.2-4c0.2-7.1,0.1-14.3,0.1-21.4
		c0-4.9,0-9.8,0-14.7c-0.5-0.2-0.9-0.3-1.4-0.5C980.6,151.2,970.8,164.4,960.3,178.7z"/>
	<path class="st0" d="M900.2,215.2c-8.5,0-17-0.1-25.5,0.1c-3,0.1-4-1-4.3-3.9c-1.7-15.4,3.1-27.9,15.8-37.1
		c7-5.1,14.3-9.8,21.4-14.8c5.1-3.6,8.8-8,9.8-14.5c1.3-9.4-3.3-16.8-12.7-17.4c-7.7-0.5-15.6,0.5-23.1,1.9c-5.1,1-6.1-1.6-7.4-5
		c-1.5-3.9,0.9-4.9,3.9-5.8c10-3.1,20.1-4.6,30.5-3c10,1.6,18.5,5.6,21.9,15.7c3.6,10.9,3.1,22.1-5.8,30.2
		c-7.9,7.2-17.5,12.5-26.4,18.7c-3,2.1-6.3,3.9-8.8,6.5c-2.2,2.3-4.1,5.4-5,8.4c-1.8,6-0.5,7.3,5.8,7.3c11.8,0,23.7,0.2,35.5-0.1
		c5.1-0.1,5.3,2.9,5.2,6.4c-0.1,3.4-0.3,6.6-5.3,6.4C917.2,215,908.7,215.2,900.2,215.2z"/>
	<path class="st0" d="M563.5,128.6c-4.6,9.9-9,19.9-13.9,29.7c-7,13.8-14.2,27.5-21.7,41.1c-1.1,1.9-4.5,3.5-6.8,3.5
		c-2.1,0-5.1-1.9-6.1-3.8c-11.6-22.7-22.8-45.5-34.2-68.3c-0.2-0.4-0.5-0.8-1.7-2.6c0,3.3,0,5.2,0,7.2c0.3,31,0.6,62,0.9,92.9
		c0,2.9-1,4.4-3.8,4.6c-2.2,0.2-4.3,0.4-6.5,0.3c-3.7-0.1-5.5-1.6-5.4-5.8c0.2-38.7,0.1-77.3,0-116c0-4,1.2-6,5.2-5.9
		c4.5,0.1,9-0.1,13.4,0.6c1.7,0.3,3.5,2.4,4.4,4.1c11.2,22,22.1,44,33.2,66c0.3,0.6,0.7,1.1,1.3,2c0.7-1,1.4-1.6,1.8-2.4
		c11.1-22.2,22.1-44.4,33.3-66.5c0.8-1.5,2.8-3.2,4.4-3.3c5.3-0.4,10.6-0.2,15.9-0.3c3.1,0,3.8,1.7,3.8,4.5c0,39.3-0.1,78.6,0,118
		c0,2.9-1,4.4-3.8,4.6c-1.2,0.1-2.3,0.3-3.5,0.4c-9,0.3-9.8-0.4-9.7-9.2c0.1-30.5,0.3-61,0.5-91.5c0-1.3-0.2-2.6-0.2-3.9
		C564,128.6,563.7,128.6,563.5,128.6z"/>
	<path class="st0" d="M687.1,131.5c-2.1,4.6-4.1,9.3-6.4,13.7c-14.7,28-29.6,56-44.5,83.8c-0.8,1.5-2.8,3.1-4.4,3.2
		c-4.8,0.5-9.6,0.3-14.4,0.3c-3,0-3.8-1.7-3.8-4.6c0.1-39.3,0.1-78.7,0-118c0-2.9,0.9-4.4,3.9-4.6c1.3-0.1,2.6-0.4,3.9-0.5
		c9-0.3,9.8,0.4,9.7,9.2c-0.3,29.7-0.7,59.3-1,89c0,1.7,0,3.4,0,5.1c0.5,0.1,0.9,0.2,1.4,0.2c1.1-2.7,2.1-5.4,3.5-7.9
		c13-25.1,26.1-50.2,39.2-75.3c2.5-4.9,5.5-9.5,7.8-14.5c1.6-3.4,3.8-5.3,7.6-5.3c1.2,0,2.3-0.3,3.5-0.4c11.1-0.4,11.5,0,11.5,11
		c0,36.7,0,73.3-0.1,110c0,2.4,1.4,6.2-2.6,6.5c-4.5,0.3-9.1-0.3-13.6-0.9c-0.4,0-0.7-2.4-0.7-3.7c0.1-28.7,0.2-57.3,0.4-86
		c0-3.3,0.5-6.7,0.7-10C688.1,131.7,687.6,131.6,687.1,131.5z"/>
	<path class="st0" d="M411.4,102.4c8.3,1.7,16.5,3.4,24.8,5.2c3.8,0.8,4.8,3.4,3.2,6.8c-1.6,3.2-1.6,8.1-7.8,6.8
		c-6.6-1.4-13.4-2.7-20.1-2.8c-16.3-0.4-26.5,6.4-31.1,22c-5.9,19.7-5.9,39.8,0.6,59.5c4.2,12.9,13.9,19.5,27.1,19.7
		c8.4,0.1,16.9-1.1,25.1-2.8c6-1.2,6.3,2.8,7.7,6.1c1.4,3.4,2,6.5-3.1,8c-14.3,4.1-28.7,6-43.3,2.3c-15.6-4-25.7-14.3-30.8-29.3
		c-6.9-20.4-7.1-41.4-2.1-62.1C367.8,115.3,384.1,103.3,411.4,102.4z"/>
</g>
</svg>
