<?xml version="1.0" encoding="utf-8"?>
<!-- Generator: Adobe Illustrator 24.2.0, SVG Export Plug-In . SVG Version: 6.00 Build 0)  -->
<svg version="1.1" id="Слой_1" xmlns="http://www.w3.org/2000/svg" xmlns:xlink="http://www.w3.org/1999/xlink" x="0px" y="0px"
	 viewBox="0 0 360 56.2" style="enable-background:new 0 0 360 56.2;" xml:space="preserve">
<style type="text/css">
	.st0{fill:#777;}
	.st1{fill-rule:evenodd;clip-rule:evenodd;fill:#FFFFFF;}
	.st2{fill-rule:evenodd;clip-rule:evenodd;fill:#777;}
</style>
<path class="st0" d="M162.3,2.2l7.5-1.1c11-1.6,24.3-2.5,25.5,6l5.3,37.2c0.4,2.7-0.8,5-3,7c-2.5,2-6.4,3.4-10.6,4.3l-3.9,0.6
	l-1.8-12.8c1.3-0.1,2.6-0.3,3.9-0.3l1.2,8.7c6-1.3,10.8-3.4,10.2-6.9v-0.2l0,0l0,0v-0.2l0,0l-0.1-0.2l0,0v-0.1v-0.1l-0.1-0.1v-0.1
	l-0.1-0.1l-0.1-0.1v-0.1l-0.1-0.1l-0.1-0.1v-0.1l-0.1-0.1l0,0l-0.1-0.1l0,0l-0.1-0.1l-0.1-0.1l0,0l-0.1-0.1l0,0l-0.2-0.1l0,0
	l-0.2-0.1l0,0l-0.2-0.1l0,0h-0.1l-0.1-0.1l-0.2-0.1l0,0h-0.1l-0.2-0.1l0,0l-0.1-0.1l0,0L194,42h-0.1h-0.1l0,0l-0.2-0.1l0,0h-0.1
	l-0.2-0.1h-0.1l-0.2-0.1h-0.1h-0.1h-0.2l-0.2-0.1l0,0l-0.3-0.1l-0.3-0.1l0,0h-0.3l0,0h-0.3l0,0H191h-0.1h-0.2h-0.1h-0.2l0,0h-0.3
	l0,0h-0.2h-0.2h-0.2h-0.1h-0.2h-0.1h-0.2h-0.1h-0.3h-0.1h-0.3l0,0h-0.3l0,0h-0.3l0,0h-0.3l0,0h-0.3h-0.1h-0.3h-0.1h-0.3H186h-0.2
	h-0.2h-0.2h-0.2H185h-0.2h-0.2h-0.2h-0.1H184h-0.1h-0.3h-0.1h-0.4h-0.4l0,0h-0.4l0,0h-0.4l0,0h-0.3h-0.1h-0.3h-0.1h-0.3h-0.1h-0.3
	h-0.2H180h-0.2h-0.2h-0.2h-0.2c-0.6,0.1-1.3,0.2-1.9,0.3c-2.2,0.3-3.7,0.6-5.1,0.8l-4.1,0.6l-1.9,0.3l-5.8-41.1L162.3,2.2L162.3,2.2
	z M173.2,25.4l3.7-0.5c6.3-0.8,12.8-1.1,17.1,0.6l-0.7-4.7c-0.7-4.6-9.2-4.3-17.5-3.2l-3.7,0.5l-0.5-3.9l3.7-0.5l0,0
	c6.3-0.8,12.8-1.1,17.1,0.6l-1-6.7c-0.7-5-11.8-4-21.1-2.7l-4.2,0.6l-1.4,0.2l4.7,33.4l2.1-0.3c1.9-0.3,3.9-0.6,5.2-0.8
	c0.6-0.1,1.3-0.2,1.9-0.3l0,0h0.3h0.1l1-0.1h0.1h0.2h0.1h0.2h0.1h0.2h0.1h0.3l0,0l1.2-0.1h0.1h0.2h0.1l1-0.1h0.1h0.2h0.1h0.3l0,0
	h0.3l0,0h0.3l0,0h0.3h0.1h0.2h0.1h0.2h0.3h0.2h0.1h0.2h0.1h0.2h0.1h0.6h0.3l0,0h0.3l0,0h0.2h0.1h0.2h0.1h0.2h0.1h0.1h0.1h0.1h0.2
	h0.1h0.2h0.1h0.2l0,0h0.3l0,0h0.3l0,0h0.2l0,0h0.2h0.1h0.2h0.1h0.2h0.1l0.5,0.1h0.1h0.2h0.1h0.2l0,0h0.2l0,0l0.2,0.1l0,0l0.2,0.1
	l0,0h0.2h0.1h0.2h0.1h0.1h0.1h0.1h0.1h0.1l0.1,0.1h0.1l0.2,0.1l0,0l0.2,0.1l0,0l0.2,0.1l-0.9-6.4c-0.7-4.6-9.2-4.3-17.5-3.2l0,0
	l-3.7,0.5L173.2,25.4z"/>
<path class="st1" d="M307.9,12.6h14.4c1.8-0.1,3.6,0.7,4.7,2.1c1.2,1.6,1.7,3.6,1.6,5.6c0.1,1.5-0.2,3.1-0.9,4.4
	c-0.5,0.8-1.3,1.4-2.1,1.7c0.8,0.3,1.5,0.8,2,1.4c0.7,0.8,1.1,1.9,1.1,2.9v5.9H325v-5.9c0-0.8-0.4-1.6-1.1-2
	c-0.8-0.5-1.8-0.8-2.7-0.8H308v-3.2h12.9c1,0.1,2-0.2,2.9-0.7c0.9-0.7,1.4-1.9,1.4-3.8c0-1.8-0.4-3.1-1.3-3.7
	c-0.9-0.5-1.9-0.8-2.9-0.7h-12.9v-3.2C308.1,12.6,307.9,12.6,307.9,12.6z M0,12.6h25v3.2H14.3v20.8h-3.6V15.9H0V12.6z M29.6,12.6
	h21.5c1.8-0.1,3.6,0.7,4.7,2.1c1.2,1.6,1.7,3.6,1.6,5.6c0.1,1.5-0.2,3.1-0.9,4.4c-0.5,0.8-1.3,1.4-2.1,1.7c0.8,0.3,1.5,0.8,2,1.4
	c0.7,0.8,1.1,1.9,1.1,2.9v5.9h-3.6v-5.9c0-0.8-0.4-1.6-1.1-2c-0.8-0.5-1.8-0.8-2.7-0.8h-17v8.7h-3.6L29.6,12.6L29.6,12.6z
	 M33.1,24.7h16.5c1,0.1,2-0.2,2.9-0.7c0.9-0.7,1.4-1.9,1.4-3.8c0-1.8-0.4-3.1-1.3-3.7c-0.9-0.5-1.9-0.8-2.9-0.7H33.1V24.7L33.1,24.7
	z M80.7,12.6l12.6,24h-4l-2.8-5.3H69.4l-2.8,5.3h-4l12.6-24C75.2,12.6,80.7,12.6,80.7,12.6z M84.9,28.1l-6.5-12.6h-0.9L71,28.1H84.9
	z M110.7,23.2c5.6,0,9.1,0.3,10.5,1c1.8,0.8,2.7,2.8,2.7,5.9c0,2.9-1.1,4.9-3.3,5.8c-1.8,0.7-5.4,1.1-10.8,1.1
	c-5.9,0-9.6-0.6-11.3-1.9c-1.3-1-1.9-3.1-1.9-6.4h3.6c0,2.3,0.5,3.7,1.5,4.3c1,0.6,3.7,0.9,8.2,0.9c4.4,0,7.2-0.2,8.5-0.6
	c1.3-0.4,2.1-1.7,1.9-3c0-1.6-0.5-2.6-1.5-3s-3.7-0.6-8.2-0.6c-5.5,0-9.2-0.7-11.1-2c-1.4-1-2.2-2.8-2.2-5.4c0-2.8,0.9-4.7,2.6-5.5
	s5.3-1.2,10.7-1.2c5.3,0,8.9,0.6,10.5,1.9c1.3,1,2,3,2,6h-3.5c0-2.1-0.5-3.4-1.6-3.9s-3.5-0.8-7.5-0.8c-3.4,0-5.4,0-6.2,0.1
	c-2.3,0.3-3.5,1.4-3.5,3.3c-0.1,1.4,0.6,2.7,1.9,3.3C104.1,22.9,106.7,23.2,110.7,23.2L110.7,23.2z M129.4,12.6h3.6v10.2h20.6V12.6
	h3.6v24h-3.6V26.1H133v10.6h-3.6V12.6z M219.2,22.4l-10.1-9.8h-4.9l12.2,11.6l-12.5,12.3h4.8L219.2,26h0.5l10.5,10.5h4.9l-12.5-12.3
	l12.2-11.6h-5.1l-10.1,9.8C219.6,22.4,219.2,22.4,219.2,22.4z M239.4,36.6v-24h19.5c1.9-0.1,3.7,0.6,5,1.9c1.2,1.3,1.8,3.2,1.8,5.8
	s-0.6,4.5-1.8,5.8c-1.4,1.3-3.2,2-5.1,1.9H243v8.7L239.4,36.6z M242.9,24.7h15.8c0.9,0,1.8-0.3,2.5-1.1c0.7-1,1-2.2,0.9-3.4
	c0.1-1.2-0.2-2.4-0.9-3.4c-0.6-0.7-1.5-1.1-2.5-1.1h-15.8L242.9,24.7L242.9,24.7z M271,12.6h22.9v3.2h-19.4v7h18.7V26h-18.7v7.3
	h19.4v3.2H271V12.6z"/>
<polygon class="st2" points="300.7,12.6 304.3,12.6 304.3,15.9 304.3,24.7 304.3,27.9 304.3,36.6 300.7,36.6 "/>
<polygon class="st0" points="335,12.6 360,12.6 360,15.9 349.3,15.9 349.3,36.6 345.7,36.6 345.7,15.9 335,15.9 "/>
</svg>
