<?xml version="1.0" encoding="utf-8"?>
<!-- Generator: Adobe Illustrator 22.0.1, SVG Export Plug-In . SVG Version: 6.00 Build 0)  -->
<svg version="1.1" id="Слой_1" xmlns="http://www.w3.org/2000/svg" xmlns:xlink="http://www.w3.org/1999/xlink" x="0px" y="0px"
	 viewBox="0 0 1914 714" style="enable-background:new 0 0 1914 714;" xml:space="preserve">
<style type="text/css">
	.st0{fill:#FFFFFF;}
</style>
<g>
	<path class="st0" d="M1602.7,673.9c-87.5,0-175,0-262.5,0c-11.2,0-12.6-1.5-15.5-12.4c-2.5-9.6-5.7-19.1-8.8-28.5
		c-1.7-5.2-6.3-4.1-10.2-4c-4,0.2-7.3,1.5-8.6,6.1c-2.9,11-5.9,21.9-9.3,32.8c-1.4,4.4-5.1,6.1-9.8,6c-19.3-0.1-38.7,0-58,0
		c-7,0-14,0.2-21-0.1c-4.8-0.2-6.8,1.8-6.7,6.4c0,2.3-0.1,4.7-0.2,7c-0.2,5.8-2.9,8.5-8.7,8.6c-13.8,0.1-27.7,0.1-41.5,0.1
		c-28,0-56,0-84,0c-7.2,0-8.9-1.5-9.8-8.7c-0.2-1.6-0.1-3.3-0.1-5c-0.2-7.2-1.3-8.3-8.7-8.2c-6.8,0.1-7.8,1-8.1,7.8
		c-0.1,2,0,4-0.2,6c-0.3,6.1-2.3,8.1-8.3,8.2c-42.5,0.1-85,0-127.5,0c-5.5,0-7.1-1.7-7.2-8.4c-0.2-9,0.1-18-0.2-27
		c-0.1-2.8-1-7.6-2.2-7.8c-3.1-0.5-6.6,0.6-9.7,1.8c-4.3,1.6-8.3,4-12.5,5.9c-31.6,13.9-64.8,15.9-98.6,13.5
		c-11.2-0.8-22.4-3-33.4-5.1c-4-0.7-7.6-3.1-11.5-4.5c-14.7-5.3-29-11.7-41.6-20.8c-7.4-5.4-14-12.1-20.3-18.9
		c-5.6-6-10.3-12.8-15.2-19.5c-1.6-2.2-2-5.4-3.7-7.5c-3.6-4.5-6.1-4.9-11.9-0.9c-11.8,8.1-25.3,10.7-39,13.6
		c-13.1,2.7-26.1,3-39.2,2.9c-5.6,0-7.3,2-7.4,8.8c-0.1,13.2,0.1,26.3-0.1,39.5c0,2.9-0.6,6-1.8,8.6c-0.8,1.7-3.2,2.9-5.1,3.6
		c-1.6,0.6-3.6,0.2-5.5,0.2c-123.2,0-246.3,0-369.5,0c-11.3,0-12.1-1-11.8-12.3c0.1-3.5-0.2-7-0.2-10.5c0-142.5,0-285,0-427.5
		c0-5.3,0.1-10.6,0.4-15.9c0.4-6.6-3.2-10.7-9.9-10.8c-13-0.1-26,0-39,0c-14,0-28,0-42,0c-1.5,0-3,0-4.5-0.1c-7.3-0.8-8.2-1.7-8.2-9
		c0-47.5,0-95,0-142.5c0-6.4,2.2-8.7,8.7-9c3.3-0.2,6.7-0.1,10-0.1c120.2,0,240.3,0,360.5,0c3.4,0,7.1,0.1,10.2,1.3
		c3.1,1.2,4.9,4,4.8,8c-0.3,11.5-0.1,23-0.1,34.5c0,1.8,0,3.7,0.5,5.4c0.9,2.8,2.8,3.7,5.3,1.5c11.3-10,23.3-19.3,36.5-26.5
		c8.1-4.4,16.7-7.8,25.2-11.4c6.2-2.6,12.6-4.7,19-7c1.2-0.5,2.5-1,3.8-1.1c20.1-2,40.1-7,60.5-3.7c11.1,1.8,22.2,3.8,33,6.7
		c10,2.7,19.7,6.3,29.3,10.1c5.6,2.3,10.9,5.6,16,9c7.7,5.1,15.3,10.3,22.5,16c6.2,4.9,11.9,10.4,18,15.6c1.3,1.1,2.9,1.8,4.4,2.7
		c0.8-1.9,2.2-3.8,2.2-5.7c0.2-14.3,0.1-28.7,0.2-43c0-2.5-0.5-5.8,0.8-7.2c2.1-2.3,5.5-4.6,8.5-4.7c10.1-0.6,20.3-0.3,30.5-0.3
		c155.5,0,311,0,466.5,0c10.3,0,12.1,1.8,12.3,12.2c0,1.3-0.3,2.8,0.2,4c0.7,1.5,1.8,3.6,3.1,3.8c1.2,0.2,3.3-1.2,4.2-2.4
		c3.3-4.4,5.9-9.3,9.4-13.4c1.7-2,4.8-3.3,7.5-4c2.5-0.7,5.3-0.2,8-0.2c63,0,126,0,189,0c1.8,0,3.7,0,5.5,0.1
		c5.8,0.6,8.6,6.6,5.2,11.4c-7,10-14.1,19.9-21.3,29.8c-7.3,10-14.6,20-21.9,30c-11.1,15.3-22.1,30.6-33.1,45.8
		c-11.6,16.1-23.3,32.1-35,48.1c-1.7,2.3-3.2,4.7-4.8,7c-2.7,4-4,7-0.1,12.1c10.3,13.3,19.6,27.5,29.2,41.4
		c5.7,8.3,11.4,16.6,17.1,24.9c7.6,11,15.2,22,22.8,33c0.8,1.1,2.2,2.6,3.2,2.5c1.1-0.1,2.3-1.8,2.8-3c4.1-9.9,8.3-19.9,12-29.9
		c2.1-5.7,3.4-11.8,5.4-17.5c2-5.7,4.6-11.3,6.9-16.9c0.4-0.9,0.9-1.8,1.3-2.7c4.1-11.8,8.2-23.6,12.2-35.5c1.8-5.3,3.3-10.7,5.2-16
		c2.6-7.2,5.5-14.2,8-21.4c1.9-5.3,3.3-10.7,5.2-16c2.5-6.8,5.5-13.4,8-20.2c1.8-4.9,2.9-10.1,4.6-15.1c2.7-7.6,5.9-15,8.5-22.7
		c2.1-6.1,3.5-12.4,5.4-18.4c1.7-5.3,3.9-10.6,5.8-15.8c2.5-6.9,5.6-13.7,7.2-20.9c2.2-9.8,6.6-14.1,16.5-14.1
		c62.7,0,125.3,0.1,188-0.1c8.6,0,12.8,1.9,16,13.3c1.9,6.8,4.6,13.4,7,20.1c2.2,6.2,4.3,12.4,6.6,18.6c3.6,9.7,7.3,19.3,10.8,29
		c2.2,6.2,4.1,12.6,6.2,18.8c2.1,5.9,4.3,11.7,6.6,17.6c1.8,4.6,3.9,9.1,5.5,13.8c2.1,6.4,3.6,13,5.6,19.5c1.1,3.6,2.9,7,4.2,10.6
		c4.1,11.1,8.3,22.2,12.3,33.4c3.3,9.3,6.2,18.7,9.4,28.1c1.3,3.9,3.1,7.7,4.6,11.6c5.4,14.4,10.9,28.8,16,43.2
		c2.1,6,3.3,12.4,5.4,18.4c2,5.9,4.7,11.5,7.1,17.3c0.4,0.9,0.8,1.8,1.2,2.7c4.1,11.5,8.2,22.9,12.2,34.4c1.7,5,3.4,10,4.8,15.1
		c1.6,5.7-2.6,9.9-5,14.1c-8,14.3-16.7,28.3-25.2,42.4c-3.2,5.2-6.9,10.2-10,15.5c-5.4,9.1-10.5,18.5-15.9,27.6
		c-2.6,4.4-5.3,8.9-8.5,12.9c-7.8,9.8-4.1,18.4,1.7,27.4c4.3,6.6,7.8,13.7,11.8,20.5c6.2,10.5,12.7,20.8,19,31.3
		c2.3,3.8,4.2,7.9,6.5,11.7c3.7,6.3,7.5,12.4,11.1,18.7c5.3,9.1,10.4,18.3,15.6,27.5c2,3.4,3.6,7.2,6.2,10.2
		c2.7,3.2,3.6,6.4,2.1,10.1c-1.7,4-5.4,2.6-8.3,2.6C1779.4,673.9,1691,673.9,1602.7,673.9z M637.9,584.1c2.3,4.9,3.9,9.2,6.3,13.1
		c4.7,7.5,9.4,15.2,15.1,22.1c9.8,11.8,21.9,21.2,35.4,28.6c6.8,3.7,13.6,7.3,20.8,10.1c6.9,2.7,14.2,4.7,21.4,6.3
		c11.6,2.5,23.3,5.5,35.1,6.4c12.7,1,25.7,0.3,38.4-0.6c7.9-0.5,15.7-2.5,23.3-4.5c6.8-1.8,13.5-4.3,20.2-6.7
		c4.9-1.8,9.9-3.5,14.6-5.8c6.1-3,11.8-6.6,17.8-9.9c1.5-0.8,3.1-1.6,4.6-2.4c0.5,1.8,1.4,3.6,1.4,5.4c0.1,12.2-0.1,24.3,0,36.5
		c0.1,7.1,1.5,8.5,8.5,8.5c17.2,0,34.3,0,51.5,0c21.8,0,43.7,0,65.5,0c5.9,0,7.8-1.9,8.1-7.7c0.1-2.8-0.5-5.8,0.3-8.4
		c0.6-1.9,2.8-4.6,4.4-4.7c5.6-0.6,11.3-0.3,17-0.1c3.5,0.1,5.5,1.9,5.2,5.8c-0.2,2.7-0.1,5.3,0,8c0.2,5.2,2.2,7.1,7.5,7.1
		c39.7,0,79.3,0,119,0.1c4.6,0,6.7-2.3,7.3-6.5c0.3-2,0.2-4,0.1-6c-0.1-8.2,0.3-8.7,8.6-8.7c25.8,0,51.7,0,77.5,0
		c6.9,0,10.4-2.4,12.4-9c2.9-9.5,5.8-18.9,8.4-28.5c2.4-8.9,2.3-8.9,11.4-8.9c1.5,0,3,0,4.5,0c7.8,0,7.8,0,9.9,7.6
		c0.1,0.5,0.4,0.9,0.5,1.4c2.7,8.6,5.8,17.2,8,25.9c2,7.9,5.9,11.5,14,11.5c42.5,0,85,0,127.5,0c130.7,0,261.3,0,392-0.1
		c2.7,0,7.4-1,7.7-2.3c0.7-2.8-0.9-6.2-1.6-9.4c-0.1-0.4-0.6-0.8-0.9-1.2c-3.3-5.5-6.7-11-9.9-16.5c-5.2-9.2-10.2-18.5-15.5-27.6
		c-4.7-8.1-9.9-15.9-14.6-24.1c-5.2-9.2-9.9-18.6-15.2-27.8c-6.2-10.7-13-21-19.2-31.7c-1-1.8-1.1-5.1-0.1-6.9
		c4.9-8.8,10.4-17.2,15.6-25.8c3-4.9,6-9.9,8.9-14.9c3.8-6.5,7.4-13.1,11.3-19.6c3.2-5.2,6.8-10.2,9.9-15.5
		c6.8-11.5,13.2-23.2,20.1-34.7c2.7-4.4,3.9-8.8,2.5-13.7c-1.8-6.2-3.7-12.4-5.7-18.5c-1.4-4.4-2.9-8.8-4.5-13.1
		c-2.2-5.8-4.9-11.5-6.9-17.3c-2.2-6.4-3.6-13.1-6-19.4c-6.3-17-13.1-33.9-19.4-50.9c-5.4-14.7-10.2-29.7-15.2-44.6
		c-1.6-4.8-3-9.8-4.8-14.6c-5.2-14.6-10.6-29.2-15.9-43.7c-1.4-3.9-3.2-7.6-4.5-11.5c-3.2-9.4-6.1-18.9-9.4-28.3
		c-3.8-10.7-8.1-21.2-11.9-31.9c-3.5-9.9-6.4-20.1-10-30c-3.5-9.6-7.9-18.9-11.4-28.6c-2-5.4-5.5-7-10.8-6.7
		c-5.1,0.3-10.3,0.6-15.5,0.6c-55.8,0-111.7,0-167.5,0c-2.5,0-5.1-0.2-7.4,0.4c-1.9,0.5-4.1,1.8-5,3.4c-2,3.7-3.5,7.8-4.9,11.9
		c-3.3,9.7-6.3,19.5-9.7,29.2c-2.7,7.6-5.9,15.1-8.6,22.7c-1.8,5-2.8,10.2-4.5,15.1c-2.6,7.3-5.6,14.5-8.2,21.7
		c-1.9,5.3-3.4,10.7-5.4,15.9c-3.5,9.3-7.5,18.3-10.8,27.7c-3.6,10.1-6.8,20.4-10.1,30.6c-1.7,5.2-3.3,10.4-5.1,15.5
		c-2.3,6.4-4.9,12.6-7.2,19c-2.1,5.9-3.8,12-5.8,17.9c-2.4,6.9-5.2,13.6-7.6,20.4c-1.9,5.3-3.2,10.8-5.1,16
		c-2.6,7.2-5.5,14.4-8.4,21.5c-0.6,1.4-1.8,3.3-2.8,3.4c-1.1,0.1-2.8-1.4-3.6-2.6c-4-5.6-7.6-11.5-11.6-17.1
		c-7.4-10.5-15.1-20.7-22.4-31.3c-6.3-9-12.1-18.4-18.4-27.5c-6.1-9-12.6-17.7-18.8-26.6c-2.4-3.4-4.7-6.8-6.5-10.5
		c-0.8-1.6-0.8-4.1,0-5.7c1.5-3.1,3.7-5.9,5.8-8.7c6.7-9,13.5-17.9,20.1-27c9.3-12.9,18.3-25.9,27.6-38.8c8-11.1,16.3-21.9,24.3-33
		c7.1-9.8,13.8-19.9,20.9-29.7c5.5-7.6,11.4-15,17-22.5c1.1-1.4,2-3.1,2.6-4.8c1.3-3.8-0.2-6-4.3-6.4c-2.1-0.2-4.3-0.2-6.5-0.2
		c-47,0-94,0-141,0c-15.7,0-31.3,0.1-47,0c-4,0-7.2,0.9-9.4,4.4c-4,6.5-8.1,12.9-12.1,19.3c-3.5,5.5-6.9,11.1-11.1,17.9
		c-0.3-3.1-0.6-4.8-0.6-6.6c-0.1-8.8,0-17.7-0.1-26.5c0-7.3-2.5-9.5-9.8-9.1c-5.8,0.3-11.6,0.5-17.5,0.6c-22.5,0.1-45,0-67.5,0
		c-134,0-268,0-402,0c-9.6,0-11.2,1.7-11.2,11.5c0,1.3,0.1,2.7,0.1,4c0,17.3,0,34.6-0.2,52c0,1.4-1.2,2.8-1.8,4.3
		c-1.3-0.8-2.8-1.4-3.8-2.5c-5.1-5.7-9.4-12.2-15.2-17c-12.6-10.5-25.1-21.1-40-28.9c-11-5.8-22.2-10.8-33.9-14.7
		c-9-3-18.8-4.1-28.2-5.7c-4.9-0.9-10-1-14.9-1.8c-15.8-2.7-31.3,1.1-46.6,3.5c-11.6,1.9-22.8,6.6-33.9,10.7
		c-12.4,4.6-23.9,11-34.7,18.7c-11,7.8-21.2,16.4-29.8,26.8c-1,1.1-2.6,1.7-4.8,3.1c-0.2-3.5-0.4-5.9-0.4-8.3
		c0-15.8,0-31.7-0.1-47.5c0-6.3-1.9-8.1-8.1-8.1c-121.8,0-243.7,0-365.5,0c-7.6,0-10.5,3-10.5,10.6c0,43.8,0,87.7,0,131.5
		c0,9.4,0.9,10.3,10.3,10.3c27.5,0,55,0,82.5,0c10.1,0,10.1,0,10.1,10.2c0,152.3,0,304.7,0,457c0,9.5,1.2,10.7,10.7,10.7
		c121.8,0,243.7,0,365.5,0c8,0,9.3-1.2,9.3-9.2c0-14.5,0-29,0-43.5c0-8.1,0.2-8.1,8.4-8.5c20.6-1,41.3-0.7,61.1-7.4
		c3.1-1.1,6.1-2.5,9-4.1c5.8-3.1,11.5-6.3,17.1-9.6C634.6,586.8,636.1,585.5,637.9,584.1z"/>
	<path class="st0" d="M723.7,222.9c1.5,82.6-68,151.6-150.3,151.5c-83.7-0.1-151.3-68.5-151-150.5c0.3-84.6,66.9-150.3,150.2-150.8
		C655.8,72.6,724.2,139.8,723.7,222.9z"/>
	<path class="st0" d="M1400.4,76.1c-8.6,11.9-17.3,23.7-25.8,35.6c-7.2,10.1-14.2,20.4-21.4,30.5c-9.1,12.6-18.4,25.1-27.6,37.6
		c-7.3,10-14.6,20-21.8,30.1c-2.1,3-2.1,5.7,0.4,9c5,6.6,9.3,13.7,14,20.5c7.9,11.5,15.9,22.8,23.8,34.3
		c6.9,9.9,13.6,19.9,20.5,29.8c11.1,15.9,22.3,31.7,33.4,47.5c4.3,6.1,8.3,12.3,12.6,18.3c2.2,3.2,1.3,4.6-2.3,4.6
		c-4.8,0.1-9.7,0.1-14.5,0.1c-36,0-72,0-108,0c-5.4,0-8.9-1-11.7-6.7c-5.7-11.3-13.1-21.8-19.6-32.8c-6.5-10.9-12.7-22.1-19.2-33
		c-6.7-11.4-13.6-22.7-20.3-34.1c-3.4-5.7-6.6-11.4-10-17c-0.6-1-2-1.4-3-2.2c-0.8,1.2-2,2.3-2.2,3.5c-0.5,2.4-0.5,5-0.5,7.5
		c0,35.8-0.1,71.7-0.1,107.5c0,7.1-0.1,7.2-7.3,7.2c-32.7,0-65.3,0-98,0c-7.1,0-7.6-0.6-7.6-7.8c0-94.5,0-189,0-283.5
		c0-8.4,0.5-8.9,8.7-8.9c31.7,0,63.3,0,95,0c9.2,0,9.2,0.1,9.2,9c0,31.8,0,63.7,0,95.5c0,0.7-0.1,1.4,0,2c0.8,2.9,1.7,5.8,2.5,8.6
		c2.3-2.1,5.2-3.9,6.9-6.4c5.5-8.6,10.5-17.6,15.9-26.3c9.7-16,19.3-32,29.2-47.9c6.6-10.7,13.4-21.2,20.5-31.5c1.2-1.8,4.4-3,6.8-3
		c37.8-0.1,75.7,0,113.5,0.1c2.6,0,5.1,0.4,7.7,0.6C1400.1,75,1400.2,75.5,1400.4,76.1z"/>
	<path class="st0" d="M1757.2,374c-17,0-34,0-51,0c-6.8,0-9-2-10.9-8.4c-3.9-13.6-8.2-27.2-12.2-40.8c-0.7-2.4-0.9-4.9-1.4-7.3
		c-1.1-6.1-4-8.8-10.1-8.8c-28.7,0-57.3,0-86,0c-6.6,0-8.5,2-10.1,8.6c-2,7.8-4.6,15.5-6.8,23.2c-2,7-3.8,14-5.7,21
		c-0.3,1-0.3,2-0.6,2.9c-2.4,8.2-4.1,9.5-12.5,9.5c-31.7,0-63.3,0-95,0c-8.7,0-9.1-0.9-5.5-8.7c2.4-5.2,3.8-10.9,5.6-16.4
		c2-5.8,4-11.5,6-17.3c4.2-11.9,8.3-23.8,12.6-35.6c5.2-14.5,10.7-28.9,15.8-43.4c2.3-6.4,3.8-13,5.9-19.4c1.2-3.6,2.9-7,4.2-10.6
		c5.3-14.3,10.5-28.5,15.6-42.8c2.3-6.4,4-12.9,6.1-19.4c0.6-1.9,1.2-3.8,1.9-5.6c3.5-9.5,7-19,10.4-28.4c2.7-7.3,5.5-14.5,8-21.8
		c2.1-6.1,3.7-12.3,5.8-18.4c1.2-3.6,2.5-7.3,4.5-10.4c0.8-1.3,3.7-1.8,5.7-1.8c19.8-0.1,39.7-0.1,59.5-0.1c28.7,0,57.3,0,86,0
		c7.4,0,9.7,2.4,11.9,9.2c3.8,11.9,8.2,23.6,12.3,35.4c3.2,9.4,6.3,18.9,9.5,28.3c4,11.4,8.2,22.6,12.2,34
		c3.6,10.3,6.8,20.7,10.4,30.9c3.4,9.3,7.2,18.4,10.7,27.7c2,5.4,3.7,10.9,5.7,16.4c2.4,6.7,5.1,13.2,7.5,19.9
		c1.8,5.1,3.3,10.4,5.1,15.6c2.7,7.5,5.8,14.8,8.5,22.2c1.7,4.8,3.1,9.7,4.7,14.6c3.5,10.5,7,20.9,10.5,31.4
		c1.1,3.3,2.4,6.5,3.4,9.8c1.3,4.2-1.3,4.8-4.6,4.7c-14.5,0-29,0-43.5,0C1763.9,374,1760.6,374,1757.2,374z M1628.5,238.9
		c0-0.2,0-0.4,0-0.6c10,0,20,0.3,29.9-0.1c5.2-0.2,6.4-3.8,4.1-8.6c-1.2-2.3-2-4.9-2.8-7.4c-1.8-5.6-3.4-11.4-5.3-17
		c-3.5-9.9-7.5-19.7-10.9-29.7c-3.5-10.5-6.5-21.2-9.9-31.7c-0.6-1.7-2.4-3.1-3.7-4.6c-1.7,1.5-4.3,2.7-5.1,4.6
		c-3.3,8.8-6.2,17.7-9.2,26.6c-2.8,8.5-5.5,16.9-8.3,25.4c-1.6,4.7-3.4,9.3-4.9,14c-2,6.3-3.6,12.7-5.6,19
		c-2.4,7.4-0.7,9.9,7.2,10.1C1612.2,239,1620.4,238.9,1628.5,238.9z"/>
	<path class="st0" d="M1044.8,224.5c0,47.3,0,94.7,0,142c0,7.4,0,7.5-7.6,7.5c-33,0-66,0-99,0c-7.8,0-8.2-0.4-8.2-8.1
		c0-29.7,0-59.3,0-89c0-2.1,0-4.4-0.6-6.4c-0.8-2.6-2.3-4-5.7-2.6c-11,4.6-22,9.2-33.3,12.9c-5.4,1.8-11.4,2-17.2,2.6
		c-10.6,1.1-21.2,2.8-31.7,2.6c-9.8-0.2-19.8-2.1-29.4-4.5c-5.8-1.5-10.9-5.3-16.3-8.3c-14.4-8-24.6-20.3-31.6-34.8
		c-7-14.4-10.6-29.7-10.4-46c0.4-37.5,0.1-75,0.1-112.5c0-5.5,0.8-6.1,6.4-6.1c32.8,0.1,65.7,0,98.5,0.1c7.9,0,8.1,0.3,8.1,8.2
		c0,28.3-0.3,56.7,0.2,85c0.1,5.5,2.6,11.1,4.6,16.5c0.6,1.8,2.8,3.6,4.6,4.3c9.1,3.5,18.1,5.8,28.1,2.3c7.2-2.5,14.5-3.9,20.7-9
		c3.8-3.1,4.9-6.7,4.9-11.2c-0.1-29,0-58,0-87c0-8.3,0.7-9,9.1-9.1c32.5,0,65,0,97.5,0c7.9,0,8.1,0.3,8.1,8.2
		C1044.7,129.5,1044.7,177,1044.8,224.5C1044.7,224.5,1044.7,224.5,1044.8,224.5z"/>
	<path class="st0" d="M242.4,73.8c51,0,102,0,153-0.1c4.3,0,5.6,1.6,5.6,5.6c-0.1,24.8-0.1,49.7,0,74.5c0,4.7-1.6,6.4-6.5,6.4
		c-29.2-0.2-58.3-0.1-87.5-0.1c-6.7,0-8.2,1.3-8.8,8c-0.2,2.2-0.1,4.3-0.1,6.5c0,64.8,0,129.7,0.2,194.5c0,4-2,4.9-5.2,5
		c-6.8,0.1-13.7,0-20.5,0c-26.8,0-53.7,0-80.5,0c-7.1,0-7.2-0.1-7.2-7.3c0-65.5,0-131,0-196.5c0-1.5,0-3-0.1-4.5
		c-0.2-3.8-2.1-5.7-6-5.6c-8.5,0.1-17,0-25.5-0.1c-21,0-42,0-63,0c-7.4,0-8.2-0.8-8.3-8.4c0-23.3,0-46.7,0-70c0-6.7,1.1-7.8,7.9-7.8
		C140.7,73.8,191.5,73.8,242.4,73.8C242.4,73.8,242.4,73.8,242.4,73.8z"/>
	<path class="st0" d="M1681.9,550.8c-0.6,3.5-1.6,6.9-1.6,10.4c-0.1,22.2-0.1,44.3-0.1,66.5c0,8.6,0,8.5-8.3,8.4
		c-20.3-0.1-40.7,0-61,0c-7.6,0-8-0.4-8-7.8c0-23,0-46-0.1-69c0-2.5-0.7-5-1.1-7.5c-0.5-0.2-1.1-0.4-1.6-0.6c-2,2-4.5,3.8-5.8,6.2
		c-4.5,8.3-8.8,16.7-12.8,25.2c-5.2,11-9.9,22.3-15.1,33.3c-2.8,6-5.9,11.8-9.4,17.4c-1,1.6-4,2.7-6,2.7c-26.5,0.2-53,0.1-79.5,0.1
		c-3.8,0-5.3-1.7-3.4-5.4c1.5-2.9,3.3-5.8,5-8.6c7.4-12.6,14.6-25.2,22.1-37.7c6.3-10.5,12.9-20.8,19.2-31.3
		c4.7-7.8,9.5-15.6,13.7-23.6c1-1.9,0.4-5.4-0.7-7.4c-6.6-11.7-13.5-23.1-20.5-34.6c-7.8-12.9-15.7-25.7-23.4-38.6
		c-3.4-5.7-6.6-11.5-9.7-17.3c-0.4-0.7,0.7-2.8,1.5-3.2c1.5-0.6,3.3-0.3,4.9-0.3c22.7,0,45.3,0.4,68-0.3c7.7-0.2,11.1,3.5,14,9.2
		c5.7,11,11.3,22,16.8,33.1c4.9,9.9,9.5,20,14.5,29.9c1.5,3,4,5.6,6,8.4c0.6,0,1.1-0.1,1.7-0.1c0.5-2.5,1.4-5,1.4-7.5
		c0.1-20.8,0.1-41.7,0.1-62.5c0-10.2,0-10.2,10.1-10.2c20,0,40,0,60,0c6.9,0,7.3,0.4,7.3,7.4c0.1,20.5,0,41,0.1,61.5
		c0,3.5,0.9,7,1.3,10.5c0.6,0.2,1.2,0.3,1.9,0.5c2.3-3.4,5-6.6,6.9-10.2c5.2-10.1,10.1-20.4,15.1-30.6c5.4-11,10.7-22,16.1-33
		c1.8-3.7,4.2-6.2,8.7-6.2c25,0.1,50,0,75,0.1c1.4,0,2.8,0.4,5.2,0.8c-2.7,4.3-5.1,7.8-7.3,11.5c-7.8,13.4-15.3,27-23.3,40.3
		c-6.4,10.8-13.6,21-19.8,31.9c-2.8,4.9-8,9.6-5.3,16.4c1.5,3.7,3.3,7.2,5.3,10.6c5,8.7,10.2,17.4,15.3,26
		c6.9,11.5,14,22.9,20.8,34.4c6,10.3,11.8,20.7,17.6,31c1.6,2.8,0.7,4.5-2.5,4.8c-2.3,0.2-4.7,0.2-7,0.2c-23.2,0-46.3,0-69.5,0
		c-8.6,0-10.6-2-13.8-9.9c-3.2-7.9-7.5-15.4-11.3-23.1c-2.1-4.3-3.9-8.7-6-13c-2.3-4.7-4.9-9.3-7.2-14.1c-2.2-4.8-4-9.8-6.3-14.5
		c-1.8-3.8-4.1-7.4-6.1-11.1C1683.5,550.6,1682.7,550.7,1681.9,550.8z"/>
	<path class="st0" d="M1045.2,428c29.3,0,58.7,0,88,0c8,0,8.7,0.6,8.7,8.9c0,41.8,0,83.6,0,125.5c0,2.3,0.1,4.7,0,7
		c-0.3,5,2.5,7.7,7,8c4.5,0.3,5.1,2.8,5.1,6.3c0,11.5,0,23,0,34.5c0,11.2,0,22.3,0,33.5c0,6.5-0.8,7.3-7.1,7.3c-20,0-40,0-60,0
		c-6,0-8-1.6-7.7-7.7c0.7-15.8-3.7-15.3-15.8-15.2c-18,0.1-36,0-54,0.1c-6.9,0-8.6,1.7-8.6,8.6c0,15.6,0.8,14.3-14.4,14.3
		c-18.3,0-36.7,0-55,0c-6.1,0-7-0.9-7-6.9c0-23,0-46,0-69c0-4,1.6-6.3,5.9-7.2c8.1-1.7,12.9-8,15.1-15.1c2.1-6.7,2.6-14.1,2.7-21.2
		c0.3-32.8,0.1-65.6,0.1-98.5c0-2,0-4,0-6c0.3-6.2,1.3-7.2,7.5-7.2C985.6,428,1015.4,428,1045.2,428z M1066.9,531.5
		c0-13.3,0-26.7,0-40c0-7.2-2-9.3-9.1-9.4c-10.5-0.1-21-0.1-31.5,0c-6.6,0-7.5,1-7.5,7.6c0,20.3-0.2,40.7,0,61
		c0.1,9-0.5,17.6-6.7,24.9c-0.4,0.5,0.5,3,1.4,3.6c1.3,0.8,3.2,0.9,4.8,0.9c13.7,0.1,27.3,0.1,41,0c5.9-0.1,7.6-2,7.6-8
		C1066.9,558.5,1066.9,545,1066.9,531.5z"/>
	<path class="st0" d="M784.2,636.2c-10.7-0.7-22.3-0.6-33.6-2.2c-11.9-1.7-23.3-5.4-34.5-10.5c-10.1-4.7-18.9-11-26.7-18.5
		c-7.1-6.8-12.6-15.1-17.2-24c-10.5-20.7-10.8-42.7-9.7-65.1c0.5-9.2,1.7-18.1,5.2-26.7c8-19.5,20-35.3,39.6-44.4
		c2.3-1,4.3-2.5,6.5-3.6c11.4-6,23.9-7.5,36.3-9.6c15.2-2.6,30.5-4.3,45.7-2.9c14,1.3,27.8,4.6,41.8,6.2
		c13.4,1.6,24.7,8.1,35.2,15.3c12.8,8.7,22.7,20.4,28.7,35.5c6.9,17.5,9.1,35.2,8.3,53.7c-0.4,10.5-3.9,20.1-6.9,29.9
		c-3.2,10.8-8.3,20.4-15.6,29.1c-6.8,8-14.1,15.2-23.5,20c-7.2,3.6-14.1,8.2-21.7,10.7c-8.4,2.8-17.4,4.4-26.3,5.5
		C805.6,635.6,795.3,635.6,784.2,636.2z M760.8,530.8c0.4,0.1,0.8,0.2,1.2,0.2c0.4,7,0.4,14,1.2,20.9c0.6,5.2,2.1,10.4,3.3,15.6
		c3,12.4,22.1,18,31.3,9.2c5.6-5.4,8.9-12,9-19.8c0.2-16.6,0.4-33.2,0-49.9c-0.2-9.9-4.5-17.1-13.8-22.4
		c-8.2-4.6-25.2,2.3-26.7,11.8C764.7,508,762.7,519.4,760.8,530.8z"/>
	<path class="st0" d="M291.4,428c32.8,0,65.7,0,98.5,0c8,0,9,0.9,9,8.9c0,63.8,0,127.6,0,191.5c0,6.8-1.1,7.8-7.9,7.8
		c-20.7,0-41.3,0-62,0c-9.3,0-9.3,0-9.3-9.6c0-41.8,0.1-83.7,0-125.5c0-17.1-1.2-13.7-14-13.9c-10.7-0.2-21.3,0-32,0
		c-9.1,0-10.9,1.8-10.9,10.7c0,42.8,0,85.7,0,128.5c0,9.5-0.3,9.8-9.9,9.8c-19.7,0-39.3,0-59,0c-9.1,0-9.3-0.3-9.3-9.1
		c0-63.5,0-127,0-190.5c0-8.4,0-8.5,8.6-8.5C226.1,428,258.7,428,291.4,428C291.4,428,291.4,428,291.4,428z"/>
	<path class="st0" d="M1308.7,428c16,0,32,0,48,0c6.2,0,8.3,2.2,10.1,8.1c3.3,10.4,7.1,20.6,10.7,30.9c2.4,7,4.7,14.1,7.1,21.2
		c1,3,2.3,5.8,3.3,8.8c4.7,13.4,9.3,26.9,14.1,40.3c3.7,10.4,7.9,20.7,11.5,31.1c3.8,10.7,7.1,21.6,10.8,32.4c1.5,4.4,3.3,8.7,5,13
		c2.1,5.4,4.4,10.7,6.4,16.1c1.5,4.1,0.2,6.1-4.2,6.1c-23.5,0.1-47,0-70.5,0c-3.6,0-5.3-1.4-6.1-5c-0.8-3.7-2.8-7.1-3.9-10.7
		c-2.7-8.2-5.2-16.4-7.7-24.6c-1-3.2-3.1-4.5-6.3-4.5c-20.3,0-40.7-0.1-61,0.1c-1.6,0-4,1.5-4.5,2.9c-3.2,8.7-6,17.6-8.8,26.4
		c-0.5,1.4-0.4,3-0.7,4.4c-1.8,9.3-3.9,11-13.3,11c-20.2,0-40.3,0-60.5,0c-7,0-7.9-1.6-5.1-7.9c2.6-5.9,4.6-12.1,6.8-18.1
		c5.6-15.2,11.3-30.4,16.7-45.7c2.2-6.2,3.5-12.7,5.7-19c2.2-6.4,4.9-12.5,7.2-18.8c1.9-5.1,3.6-10.3,5.4-15.4
		c2.4-6.8,5-13.6,7.4-20.4c1.6-4.5,3.1-9.1,4.6-13.6c3.4-10.2,6.9-20.4,10.3-30.5c1.5-4.5,3-9.1,4.7-13.5c1.4-3.7,4.3-5.1,8.3-5
		C1276.3,428.1,1292.5,428,1308.7,428C1308.7,428,1308.7,428,1308.7,428z M1314.4,543.7c0-0.2,0-0.3,0-0.5c2,0,4,0,6,0
		c9.9,0.1,11.4-1.3,8.8-11.1c-1.9-7.3-5.5-14.1-7.9-21.3c-3.6-11-6.7-22.1-10.1-33.2c-1.1-3.5-3.5-4.5-6.3-2
		c-1.3,1.2-2.1,3.3-2.6,5.1c-2,6.5-3.6,13.1-5.8,19.6c-3.8,11.1-8.1,22-11.7,33.1c-2.2,6.7,0.1,9.9,7.1,10.2
		C1299.4,544,1306.9,543.7,1314.4,543.7z"/>
	<path class="st0" d="M427.7,532.3c0-32,0-64,0-96c0-8.2,0.2-8.3,8.4-8.3c42.8,0,85.6-0.2,128.4,0.1c14.6,0.1,29,3,42,9.3
		c13.7,6.6,22.9,17.8,29.2,31.9c7.9,17.7,6.3,36.2,3.1,53.9c-3,16.8-12.9,31.3-27.8,40.9c-13.3,8.5-28.6,11.3-44.1,11.9
		c-17.1,0.6-34.3,0.6-51.4,0.8c-9.7,0.1-10.4,0.8-10.4,10.6c0,14.2-0.1,28.3,0.1,42.5c0.1,4.4-1.3,6.4-6,6.4
		c-22.3,0-44.6,0.3-66.9,0.2c-1.5,0-3.5-2.1-4.3-3.7c-0.7-1.5-0.3-3.6-0.3-5.4C427.7,595.6,427.7,563.9,427.7,532.3z M503.9,501.1
		C503.9,501.1,503.9,501.1,503.9,501.1c0,7-0.1,14,0,21c0.1,5.2,2.6,7.6,7.8,7.7c4.7,0.1,9.5,0.7,14-0.2c9-1.7,18.5-0.8,26.9-6.3
		c12.2-8,14.6-30.2,4.7-39.1c-6.7-6-14.4-9.6-23.3-10.1c-7.6-0.4-15.3-0.2-23-0.2c-5.8,0-6.9,1.2-7,7.1
		C503.8,487.8,503.9,494.4,503.9,501.1z"/>
	<path class="st0" d="M913.8,440.9c-10-7.6-19.4-15-29.1-22.2c-2.9-2.1-6.2-3.8-9.6-5c-12.8-4.6-25.3-10.2-38.5-13
		c-20-4.3-40.4-7.2-60.9-5.2c-14.2,1.3-28.5,2.5-42.4,5.4c-10.6,2.2-21.3,4.8-30.8,10.6c-6.4,3.9-14,6.1-20.2,10.2
		c-7.2,4.8-13.7,10.7-20.4,16.3c-3,2.5-4.8,1-6.7-1.1c-5-5.3-9.4-11.4-15-15.8c-8.7-6.7-18.3-12.3-27.7-18.6c0.4-0.2,1-0.6,1.6-0.9
		c13.7-4.8,28.1-8.2,41-14.7c12.4-6.2,23.4-15.4,34.9-23.4c12.6-8.9,22.3-20.7,31.5-32.7c4.3-5.6,8-11.8,11.2-18.1
		c4.8-9.4,9.2-18.9,13.2-28.6c3.1-7.6,3.1-7.5,9.1-2.3c7.7,6.7,15.8,13,24.1,18.9c10.9,7.9,23.8,10.8,36.6,14.3
		c16.9,4.6,33.6,4,50.6,2.7c8.1-0.6,16-2.8,24.1-3.8c6.4-0.8,6.9-0.2,6.9,6.2c0,22.7,0,45.3,0,68c0,9.9,2.1,12,11.9,11.9
		c3.3,0,5.8,0.9,5.8,4.6c0,11.2,0,22.3-0.1,33.5C914.7,439.3,914.1,440.3,913.8,440.9z M893.8,361.2c0-11.5,0.1-23,0-34.5
		c0-5.3-2.6-7-7.6-6.6c-27,2.1-54.1,5.8-80.7-2.5c-9.3-2.9-18.4-6.7-26.9-11.4c-8.6-4.9-16.2-11.4-24.2-17.4c-2.5-1.9-4.1-2-5.3,1.1
		c-6.8,16.7-15.4,32.5-26.5,46.6c-7.1,9.1-15,17.8-23.5,25.7c-7.7,7.2-16.4,13.4-25,19.4c-5.4,3.8-11.3,6.8-17.3,9.6
		c-7.8,3.7-15.8,6.6-23.7,10.1c-4.5,2-4.8,5.7-1.5,8.4c7.6,6.3,15,12.9,22.4,19.4c2.5,2.2,5.4,4.3,8.4,1.7
		c10.8-9.2,22.5-16.9,35.6-22.2c9.6-3.9,19.1-8.2,29-11c9.2-2.6,18.9-4.1,28.5-4.7c27.1-2,54.2-3.2,80.9,3.8
		c5.1,1.3,10.1,2.8,15,4.3c6,1.8,12.4,2.9,17.8,5.8c12.3,6.7,24.1,14.3,36.1,21.5c1.2,0.7,2.5,1.2,3.7,1.9c0.7-1.5,1.8-2.9,1.9-4.4
		c0.3-4.5,0.3-9,0.2-13.5c-0.1-7.3-0.6-7.8-8-8.2c-7.3-0.4-9.5-2.6-9.5-9.8C893.7,383.2,893.7,372.2,893.8,361.2z"/>
	<path class="st0" d="M507.6,395c-3.1,0.3-5.2,0.6-7.3,0.6c-54.7,0-109.3-0.1-164,0c-3.7,0-5.1-1.5-5.1-5.1c0-6.7-0.1-13.3-0.1-20
		c0-56.3,0-112.7,0-169c0-9.2,0.1-9.2,9.1-9.2c15.2,0,30.3,0.1,45.5-0.1c4.8-0.1,6.2,1.5,6.1,6.4c-0.2,18.1-0.5,36.3,0.3,54.4
		c0.4,7.6,3.3,15.2,5.5,22.7c2.2,7.4,4.6,14.8,7.6,22c2.5,5.9,5.8,11.5,9.2,17c10.3,17.1,22.1,33.1,37.6,45.8
		c10.7,8.8,22.5,16.3,34.2,23.7C492.7,388.2,499.8,391,507.6,395z M480,390.8c0.1-0.5,0.1-1.1,0.2-1.6c-2.5-2.3-4.9-4.8-7.6-6.9
		c-5.6-4.3-11.7-8.1-17-12.8c-8.5-7.6-17-15.3-24.7-23.6c-5.7-6.3-10.4-13.6-15.1-20.7c-3.8-5.8-7.1-11.9-10.3-18
		c-2-3.9-3.3-8.2-5.1-12.3c-2.1-4.6-5.1-9-6.4-13.8c-2.4-9.4-4.1-19.1-5.5-28.7c-2.2-15-4.9-29.9-1.5-45.1
		c1.6-7.1-1.3-10.2-8.8-10.2c-11-0.1-22-0.1-33,0c-8.7,0.1-10.2,1.6-10.2,10.3c0,58.2,0,116.3,0,174.5c0,8.2,1.7,9.9,9.9,10.2
		c1.8,0.1,3.7,0,5.5,0c41,0,82,0,123,0C475.6,391.8,477.8,391.2,480,390.8z"/>
	<path class="st0" d="M1456.3,587.2c-1.9-3.1-3.6-5.2-4.5-7.6c-4.3-11.6-8.4-23.3-12.5-35c-1.8-5.3-3.3-10.8-5.2-16
		c-2.4-6.5-5.2-12.8-7.6-19.3c-2-5.6-3.5-11.3-5.4-16.9c-2.4-6.8-5.1-13.5-7.6-20.3c-1.9-5.1-3.4-10.3-5.3-15.4
		c-2.7-7.4-5.8-14.8-8.3-22.3c-2.7-8-5.2-16.1-7.4-24.2c-0.2-0.9,1.7-3.3,2.7-3.4c7.6-0.3,15.3-0.5,22.9-0.1
		c1.7,0.1,3.8,1.9,4.8,3.5c5.1,8.3,9.9,16.8,14.9,25.2c5.1,8.6,10.4,17.2,15.6,25.8c6.7,11,13.4,22,19.9,33.1
		c5.3,8.9,10.3,18,15.7,26.9c3.3,5.5,0.4,10.1-2,14.4c-4.8,8.7-10.2,17-15.3,25.4C1466.8,569.4,1461.9,577.8,1456.3,587.2z
		 M1486.4,526.1c-2.3-4.4-4.2-8.6-6.5-12.5c-4.9-8.4-10.2-16.6-15.1-24.9c-5.2-8.8-9.9-17.8-15.1-26.7
		c-8.3-14.2-16.7-28.4-25.4-42.4c-1.6-2.7-4.2-5.9-7-6.5c-4.7-1.1-9.9-0.8-14.9-0.4c-4.4,0.4-5.4,3.1-3.4,7.1c1.2,2.4,2.1,4.8,3,7.3
		c1.9,5.1,3.6,10.3,5.5,15.4c3.7,9.7,7.6,19.3,11.2,29c3,8.1,5.6,16.3,8.4,24.4c1.5,4.2,3.2,8.4,4.7,12.6c2.4,6.9,4.8,13.7,7.2,20.6
		c2.2,6.3,4.5,12.7,6.7,19c2.9,7.9,5.7,15.9,8.7,23.7c1.1,3,3.1,3.6,5.1,0.8c1.8-2.5,3.5-5.2,5.1-7.9c5.1-8.6,10.2-17.3,15.1-26
		C1482.1,534.7,1484.1,530.4,1486.4,526.1z"/>
	<path class="st0" d="M1176.8,543.9c-0.6-2.2-1.7-4.5-1.7-6.7c-0.1-22-0.1-44-0.1-66c0-18.5,0-37,0-55.5c0-8.6,0.7-9.4,9.4-9.4
		c11.8,0,23.7-0.1,35.5,0.1c5.8,0.1,5.8,0.5,4.3,6c-1.9,6.8-3.6,13.7-5.7,20.5c-1.1,3.6-2.9,7-4.2,10.5
		c-5.3,14.2-10.7,28.4-15.7,42.7c-2.3,6.5-3.8,13.3-5.9,19.9c-1.1,3.6-2.7,7.1-4.1,10.7c-3.3,8.9-6.6,17.8-9.9,26.8
		C1178,543.7,1177.4,543.8,1176.8,543.9z M1181.5,515.2c0.7,0,1.3,0.1,2,0.1c0.7-1.6,1.4-3.1,2-4.8c3.5-9.6,6.9-19.3,10.3-28.9
		c2.3-6.4,4.9-12.7,7-19.1c4.7-13.9,9.2-27.9,13.8-41.8c0.3-0.8,0.7-1.6,1.2-2.1c3.4-3.7,0.8-5.4-2.4-5.5
		c-10.3-0.4-20.6-0.4-30.9-0.4c-3.2,0-4.7,1.9-4.7,5.2c0.1,30.2,0.1,60.3,0.2,90.5C1180,510.5,1181,512.9,1181.5,515.2z"/>
	<path class="st0" d="M1628.9,395.6c-11.7,0-23.3,0.1-35,0c-6.6-0.1-6.7-0.6-4.8-6.7c2.3-7.2,3.9-14.6,6-21.9
		c2.1-7.5,4.4-14.9,6.7-22.3c1-3.2,3.2-4.4,6.4-4.3c14,0.1,28,0,42,0.1c1.3,0,3.4,0.8,3.7,1.8c3.1,8,6.1,16.1,8.7,24.3
		c2.4,7.7,3.8,15.7,6.6,23.3c1.5,4.3,0.6,5.6-3.4,5.6c-12.3,0.1-24.7,0-37,0C1628.9,395.5,1628.9,395.6,1628.9,395.6z M1629,391.9
		C1629,391.9,1629,391.9,1629,391.9c9.2,0,18.3,0.1,27.5-0.1c6.6-0.1,8.7-4.2,6.5-10.5c-2.9-8.4-5.6-16.9-7.9-25.5
		c-1.8-6.8-5-9.9-12-9.9c-9.7,0-19.3,0-29,0c-6.2,0-10.3,3.7-11.7,9.9c-2,8.9-4.1,17.7-6.5,26.5c-2,7.3-0.6,9.5,7.1,9.6
		C1611.7,392,1620.3,391.9,1629,391.9z"/>
</g>
</svg>
