<?xml version="1.0" encoding="utf-8"?>
<svg version="1.1" id="Layer_1" xmlns="http://www.w3.org/2000/svg" xmlns:xlink="http://www.w3.org/1999/xlink" x="0px" y="0px"
     viewBox="0 0 65.8 65.8" style="enable-background:new 0 0 65.8 65.8;" xml:space="preserve">
<g fill="#FFFFFF" stroke="none">
	<circle fill="#888888" cx="32.9" cy="32.9" r="32.6"/>
    <path fill="#888888" d="M53.5,7.6c3.2,5.1,5.1,11.1,5.1,17.5c0,18-14.6,32.6-32.6,32.6c-7.8,0-15-2.8-20.6-7.4
		c5.8,9.1,15.9,15.1,27.5,15.1c18,0,32.6-14.6,32.6-32.6C65.5,22.7,60.8,13.6,53.5,7.6z"/>
</g>
<g>
	<g fill="#FFFFFF" stroke="none">
		<defs>
			<circle id="SVGID_1_" cx="32.9" cy="32.9" r="32.9"/>
		</defs>
        <clipPath id="SVGID_2_">
			<use xlink:href="#SVGID_1_" style="overflow:visible;"/>
		</clipPath>
        <g class="st2" clip-path="url(#SVGID_2_)">
			<path fill="#FFFFFF" d="M14.3,13h11.5c6.7,0,9.2,3.8,8.3,9.4l-1.5,8.2c-0.9,4.6-4.2,6.1-9.2,7.1l0.2-0.2c5,0.9,7.6,2.4,6.5,8.2
				l-1.4,8.2C27.5,60.2,23.5,65,16.5,65H5.1C5.1,65,14.3,13,14.3,13z M16,58.3c2.4-0.1,3.3-0.6,3.9-3.8l1.7-9.8
				c0.5-3.2-0.3-3.8-2.5-3.9h-1L15,58.3H16z M20.3,34.3c2.2-0.1,2.9-0.6,3.4-3.6l1.5-7.8c0.4-3-0.1-3.5-2.2-3.6h-1.2l-2.7,15.1
				L20.3,34.3L20.3,34.3z M30.2,56.5l9.9-56h23.3l-9.9,56h-9.4l8.5-48.4H48l-8.5,48.4H30.2z"/>
		</g>
	</g>
</g>
</svg>
