<?xml version="1.0" encoding="utf-8"?>
<!-- Generator: Adobe Illustrator 24.1.2, SVG Export Plug-In . SVG Version: 6.00 Build 0)  -->
<svg version="1.1" id="Слой_1" xmlns="http://www.w3.org/2000/svg" xmlns:xlink="http://www.w3.org/1999/xlink" x="0px" y="0px"
	 viewBox="0 0 119 79" style="enable-background:new 0 0 119 79;" xml:space="preserve">
<g transform="translate(0, -20)">
<path stroke="none" fill="#888888" d="M119,39.5v40c0,2.2-1.8,4-4,4H4c-2.2,0-4-1.8-4-4v-40c0-2.2,1.8-4,4-4h111C117.2,35.5,119,37.3,119,39.5z"/>
<path stroke="none" fill="#FFFFFF" d="M37.5,58.7h-3.6v-4h-2.8v12h1.3h5.1c3.8-0.1,5-1.7,5-4C42.5,60.3,41.3,58.7,37.5,58.7z M37.3,64.2h-3.4v-3.1
	h3.4c1.8,0,2.4,0.6,2.4,1.5C39.7,63.5,39.1,64.2,37.3,64.2z M55,55.1c-2.6,0-4.4,1.2-5.2,3.2c0.5-4.4,2.3-5,4.8-5.2
	c1-0.1,1.7-0.1,2.6-0.2c1.1-0.1,2-0.3,2.6-0.6v-2.8c-0.9,0.3-1.7,0.4-3,0.6c-1.2,0.1-2.4,0.3-3.7,0.6c-3.9,0.9-5.5,3.4-5.5,8.4
	c0,5.8,2.9,7.9,6.8,7.9c4.2-0.1,6.8-2.4,6.8-6C61.2,57.4,58.7,55.1,55,55.1z M54.4,64.3c-2.5,0-4-1.3-4-3.3s1.5-3.3,4-3.3
	s4,1.3,4,3.3S56.9,64.3,54.4,64.3z M84.2,54.3c-2.1,0-3.8,0.8-4.8,2.7v-2.4h-2.6v16.6h2.8v-6.6c1,1.6,2.7,2.3,4.6,2.3
	c3.4,0,5.8-2.3,5.8-6.3S87.6,54.3,84.2,54.3z M83.4,64.3c-2.4,0-3.9-1.5-3.9-3.7s1.5-3.7,3.9-3.7s3.8,1.5,3.9,3.7
	C87.3,62.8,85.8,64.3,83.4,64.3z M104,54.6h-3l-3.4,10.6l-4.3-10.6h-3.1l5.3,12h1.2l-0.2,0.5c-0.5,1.4-1.2,1.7-2.6,1.7
	c-0.4,0-1,0-1.5-0.1v2.6c0.5,0.2,1.2,0.2,1.6,0.2c2.9,0,4-0.9,5.1-4L104,54.6z M25.9,58.4c2-0.3,3.5-1.4,3.5-3.6
	c0-2.5-1.9-4.2-5-4.2H16v16h8.4c3.7,0,5.5-1.6,5.5-4.3C29.9,60,28.5,58.7,25.9,58.4z M19,53.4h5.2c1.3,0,2.2,0.7,2.2,1.9
	c0,1.2-0.9,1.9-2.1,1.9H19V53.4z M24.1,63.9H19v-4h5.3c1.6,0,2.7,0.4,2.7,2C27,63.4,26,63.9,24.1,63.9z M75.7,61.3L75.7,61.3
	c-0.1-4.8-2.4-6.9-6.6-6.9c-3.9,0-6.8,2-6.8,6.3c0,4.4,2.8,6.3,7,6.3c3.3,0,5.4-1.3,6.1-3.6l-2.7-0.1c-0.6,0.8-1.7,1.4-3.3,1.4
	c-2.2,0-3.7-0.9-4.1-2.9h10.4C75.7,61.8,75.7,61.3,75.7,61.3z M65.3,59.6c0.4-2.1,1.9-2.9,3.9-2.9c2.2,0,3.5,1.1,3.7,2.9H65.3z
	 M46.5,54.6h-2.8v12h2.8V54.6z"/>
</g>
</svg>
