<svg version="1.2" xmlns="http://www.w3.org/2000/svg" width="224" height="67"><path fill-rule="evenodd" d="M67.2 25.5L46.9 40.6 55.6 67l-22-16.4-22 16.4 8.1-24.7h5.5v8.3h8.4v-8.3h-8.4v-8.4h-8.4v-8.4h8.4v8.4h8.4v-8.4h-8.4L33.6-.2 42 25.5zM16.7 40.3h-6.4v-6.4h6.4zM-.1 25.5h6v5.9h-6zm137 .1h7.8l-16.2 41.5-12.2-27.9-12.1 27.9L88 25.6h7.8l9.4 26.3 11.1-28.3 11.4 28.3zm44.2 9.4q2.5 4.4 2.5 10.4 0 5.9-2.5 10.4-2.6 4.4-7.2 6.8-4.5 2.5-10.6 2.5h-12.7V25.6h12.7q6.1 0 10.6 2.5 4.6 2.4 7.2 6.9zm-4.3 10.4q0-3.4-1-5.9-1.1-2.5-2.9-4.2-1.8-1.7-4.3-2.6-2.5-.8-5.4-.8h-5.8v26.9h5.8q2.9 0 5.4-.9 2.5-.8 4.3-2.5 1.8-1.6 2.9-4.2 1-2.5 1-5.8zm35 9.5h-14.5l-4.5 10.2h-7.5l19.3-41.7 19.3 41.7h-7.5zm-7.3-18.2l-5.3 12.5h10.7z" fill="#fefefe"/></svg>