<svg id="Layer_1" data-name="Layer 1" xmlns="http://www.w3.org/2000/svg" viewBox="0 0 517.54 202.53"><defs><style>.cls-1{fill:#fff;}</style></defs><title>britanka_logo_black_ru</title><path class="cls-1" d="M20.86,57.83c13.25,0,20.39-8.8,20.39-20.23C41.25,24,34,18.72,25.15,18.72a13.72,13.72,0,0,0-9,3.17c.4-5.39,4.29-8.4,10.32-8.4h4.2C33.71,13.49,37,13,39,12V0a29,29,0,0,1-8.41,1.11h-4C10.47,1.11.79,9.68.79,33.87c0,15,7.3,24,20.07,24M130.58,18.25v11.1h9.28V57h15.07V29.27h18.64c5.32,0,7.54.48,7.54,2.94v1.35H176c-10.31,0-15.87,4.68-15.87,12.69,0,7.54,5,11.5,11.74,11.5a13.68,13.68,0,0,0,10.32-4.12c.79,2.69,3.41,4.12,7.77,4.12a66.07,66.07,0,0,0,10.16-1V47.6h-.4c-3.25,0-4.36-.16-4.36-2.54V33.4c0-12.22-5.8-15.15-18.09-15.15ZM264,58a23.12,23.12,0,0,0,9.91-1.9V46.33a15.68,15.68,0,0,1-6.11,1.11c-4.84,0-7.85-3.33-7.85-10.31,0-6.27,2.93-9.36,7.85-9.36A13.49,13.49,0,0,1,273.92,29V18.64s-3.09-1.5-9.44-1.5c-12,0-20.23,8.33-20.23,20.46C244.25,50.93,253.14,58,264,58M375.54,28.16h2.54v7.62h-2.54c-2.93,0-4.28-1.51-4.28-3.81,0-2.7,1.66-3.81,4.28-3.81m-310.49,18a5.28,5.28,0,0,1-3.09-1V31.26A5.93,5.93,0,0,1,65.68,30c3.49,0,4.76,3.8,4.76,7.85,0,5.08-2.06,8.33-5.39,8.33m-43.71.63c-3.65,0-4.92-3.33-4.92-8.4,0-5.32,1.27-8.41,4.92-8.41,3.33,0,4.6,3.09,4.6,8.41,0,5.07-1.27,8.4-4.6,8.4M104.71,57l9.13-17.85V57h14.35V18.25H113.68l-9,18.32V18.25H90.2V57Zm233.07-11a4.74,4.74,0,0,1-3.89,2.14c-1.82,0-3-1.19-3-3.57a3.48,3.48,0,0,1,3.73-3.65h3.17Zm-156.67-.08A4.74,4.74,0,0,1,177.22,48c-1.82,0-3-1-3-3.33,0-2.06,1.34-3.49,3.72-3.49h3.18ZM293,42.6H294L300.74,57h16.1L306.76,36.41l10.87-18.16H301.85L294,31.81H293V18.25H278V57H293ZM202.92,57H218V42.76h7.3V57H240.6V18.25H225.29V31.89H218V18.25H202.92ZM378.08,45.22V56.88h15.39V18.17H373.8c-10.08,0-16.9,5.31-16.9,13.8,0,4.44,2.14,8.88,6.74,10.71-1.5,3-3.81,4.84-7,4.84-2.06,0-4.6-.56-4.6-2.7V33.48c0-12.22-5.79-16.34-18.09-16.34a55.68,55.68,0,0,0-14,1.74V29.27a35.46,35.46,0,0,1,10.23-1.74c5.32,0,7.54,2.3,7.54,4.76v1H332.7c-10.31,0-15.86,5.08-15.86,13.09,0,7.53,5,11.58,11.74,11.58,5.31,0,8.65-2.22,11.74-5.63,1.9,3.57,6.66,5.79,14.52,5.79,11.74,0,18.08-4.92,21.34-12.85ZM46.88,72.51H62V55.29A11.61,11.61,0,0,0,69.65,58c10.15,0,16.42-9.44,16.42-21.1C86.07,27,82,17.14,72,17.14c-5.79,0-9,2.61-11.58,5.71-.95-5.32-4.76-5.71-7.54-5.71A66.79,66.79,0,0,0,42,18.25v9.52h1.27c2.54,0,3.65.23,3.65,2.3Zm366.9,52.91c11.82,0,19.35-7.62,19.35-20.15,0-12.38-7.53-20.78-19.35-20.78-12,0-19.52,8.33-19.52,20.7,0,12.53,7.54,20.23,19.52,20.23m-63.78-1V85.75H335.16v27.93h-5.87V85.75H314.22v27.93h-5.87V92.42c0-6-2.3-7.7-8.25-7.7A61.44,61.44,0,0,0,288.68,86V95h1.19c2.69.07,3.65.31,3.65,2.53v26.9Zm157.31,1a62.66,62.66,0,0,0,10.23-1v-9.36h-.4c-3.25,0-4.36-.24-4.36-2.38V100.67c0-12.54-5.71-15.87-18.24-15.87a48.52,48.52,0,0,0-13.89,2V97.65a32.85,32.85,0,0,1,10.24-1.9c5.31,0,7.14,1.51,7.14,3.73v.87h-4.69c-10.39,0-16,5.32-16,13.57,0,7.69,5.16,11.58,11.58,11.58a14.36,14.36,0,0,0,10.63-4.13c.8,2.78,3.25,4.13,7.78,4.13M2.46,124.86H21.74c12.21,0,18.48-4.52,18.48-12.13,0-4.45-2.62-7.62-7.14-9a9.37,9.37,0,0,0,5.08-8.41c0-5.87-4.76-9.91-14.6-9.91H2.46Zm76.08-.39h15V85.75h-15Zm-34.67,0h18.4c10,0,14.84-6.75,14.84-14.84,0-7.53-4.84-13.32-14.84-13.32H58.78V85.75H43.87Zm86.55,0h56.4V85.75h-15v27.93H166V85.75H151v27.93h-5.87V85.75H130.42ZM17.77,100.67V94.16H20c2.86,0,4.21,1.35,4.21,3.1,0,2.06-1.35,3.41-4.21,3.41Zm396,14.52c-2.86,0-4.84-2.78-4.84-10,0-7,2-10.31,4.84-10.31,3,0,4.68,3.33,4.68,10.31,0,7.22-2,10-4.68,10M116.53,125.5a26,26,0,0,0,10-1.75v-9.68a19,19,0,0,1-6.19,1c-4.84,0-7.93-3.49-7.93-10.24,0-6.5,3.09-9.67,7.93-9.67a12.87,12.87,0,0,1,6,1.34V86.39s-3-1.59-9.28-1.59C104.87,84.8,97,93.05,97,105.35c0,13.17,8.57,20.15,19.51,20.15M248.85,95.67h2.54v7.62h-2.54c-2.93,0-4.28-1.51-4.28-3.81,0-2.7,1.67-3.81,4.28-3.81m184.76,29a15.79,15.79,0,0,0,5.24.8c11.34,0,13.72-9.68,14.28-28.64H458v27.61h15.31V85.75H440.19c-.39,23.72-1,28.72-5.87,28.8a6.23,6.23,0,0,1-.71-.08ZM58.78,114.87v-9H60c2.3,0,3.57,1.91,3.57,4.37,0,2.77-1.19,4.6-3.57,4.6Zm152.31-1.43a4.73,4.73,0,0,1-3.88,2.14c-1.83,0-3-1.19-3-3.57a3.48,3.48,0,0,1,3.73-3.65h3.17Zm283.45,1.67c-1.83,0-2.86-1-2.86-3.18,0-1.9,1.11-3.33,3.57-3.33H498v4.52a3.76,3.76,0,0,1-3.49,2m-476.77,1v-7h2.54c3,0,4.76,1,4.76,3.41,0,2.14-1.75,3.57-4.76,3.57ZM371.18,110h.71L379,124.47H394.9l-10.16-20.71,10.95-18H380.06l-8,13.73h-.87V85.75H356v38.72h15.23Zm-119.79,2.7v5.39c0,6.27,4.84,7.38,9.2,7.38a84.2,84.2,0,0,0,11-1v-9.21h-.39c-3.26,0-4.37-.15-4.37-2.53V85.68H247.11c-10.08,0-16.9,5.31-16.9,13.8,0,4.44,2.14,8.88,6.74,10.71-1.5,3-3.8,4.84-7,4.84-2.06,0-4.6-.56-4.6-2.7V101c0-12.22-5.79-16.35-18.08-16.35a55.42,55.42,0,0,0-14,1.75V96.78A35.48,35.48,0,0,1,203.56,95c5.31,0,7.53,2.3,7.53,4.76v1H206c-10.32,0-15.87,5.07-15.87,13.09,0,7.53,5,11.58,11.74,11.58,5.32,0,8.65-2.22,11.66-5.63,1.91,3.57,6.51,5.79,14.2,5.79,12,0,18.49-4.92,21.74-12.85Zm-64.49,28c-4.84,0-4.68-5.24-4.68-5.24H170.79c0,11.11,9.05,14.6,16.11,14.6s16.18-3.49,16.18-14.6H191.74s.24,5.24-4.84,5.24M154.53,193.4a66.07,66.07,0,0,0,10.16-1v-9.2h-.4c-3.25,0-4.36-.16-4.36-2.54V169.05c0-12.22-5.79-16.34-18.09-16.34a55.68,55.68,0,0,0-14,1.74v10.4a35.28,35.28,0,0,1,10.23-1.75c5.32,0,7.54,2.3,7.54,4.76v.95h-5.08c-10.31,0-15.87,5.08-15.87,13.09,0,7.54,5,11.5,11.75,11.5a13.67,13.67,0,0,0,10.31-4.12c.79,2.7,3.41,4.12,7.77,4.12m127.4,0a66.07,66.07,0,0,0,10.16-1v-9.2h-.4c-3.25,0-4.36-.16-4.36-2.54V169.05c0-12.22-5.79-16.34-18.09-16.34a55.68,55.68,0,0,0-14,1.74v10.4a35.28,35.28,0,0,1,10.23-1.75c5.32,0,7.54,2.3,7.54,4.76v.95H268c-10.31,0-15.86,5.08-15.86,13.09,0,7.54,5,11.5,11.74,11.5a13.67,13.67,0,0,0,10.31-4.12c.79,2.7,3.41,4.12,7.77,4.12M20.07,164.69h5.71v17.13H16.9a57.65,57.65,0,0,0,3.17-17.13M63,192.29l9.12-17.85v17.85H86.47V153.58H72l-9,18.33V153.58H48.47v38.71Zm119.15,0,9.12-17.85v17.85h14.36V153.58H191.1l-9,18.33V153.58H167.62v38.71Zm87-8.64c-1.82,0-3-1.19-3-3.57a3.47,3.47,0,0,1,3.73-3.65h3.17v5.07a4.73,4.73,0,0,1-3.89,2.15m-127.4,0c-1.82,0-3-1.19-3-3.57a3.47,3.47,0,0,1,3.73-3.65h3.18v5.07a4.73,4.73,0,0,1-3.89,2.15m69,8.72h15.31V177.46h7.29v14.91h15.08V153.58H233.38v12.93h-7.29V153.58H210.78Zm-109,1.11c12.45,0,20.78-4.44,20.78-12.77,0-4.76-2.38-7.46-6.42-8.65a10.5,10.5,0,0,0,4.91-8.72c0-7-5.31-10.63-16.81-10.63a55.17,55.17,0,0,0-12.62,1.51v10.31a32.27,32.27,0,0,1,9.44-1.59c2.78,0,4.92.56,4.92,2.46,0,1.75-1.5,2.86-3.65,2.86H95.91v9.67h4.36c3.81,0,6.82.56,6.82,2.62s-3.25,2.86-6.82,2.86a28.44,28.44,0,0,1-9.44-1.59v9.84s3.89,1.82,11,1.82m-87.34-1.11H30.62v10.16H45.3V181.82H40.93V153.58H7.38c-.48,13.88-1.83,22.29-4,28.24H0v20.71H14.44Z"/></svg>