<svg width="307" height="28" viewBox="0 0 307 28" fill="none" xmlns="http://www.w3.org/2000/svg">
<path d="M24.7849 23.841C25.8204 23.841 26.661 24.6937 26.661 25.7441C26.661 26.7945 25.8204 27.6472 24.7849 27.6472H13.3335C9.66665 27.6472 6.3287 26.1272 3.9166 23.6742C1.49842 21.2212 0 17.8413 0 14.1216C0 10.4019 1.49842 7.01589 3.9166 4.56905C6.33479 2.11603 9.66665 0.596029 13.3335 0.596029H24.7849C25.8204 0.596029 26.661 1.44871 26.661 2.49912C26.661 3.54953 25.8204 4.40222 24.7849 4.40222H13.3335C10.6961 4.40222 8.30224 5.49588 6.56626 7.25687C4.83028 9.01785 3.75215 11.4523 3.75215 14.1216C3.75215 16.7909 4.83028 19.2254 6.57235 20.9864C8.30832 22.7473 10.7082 23.8472 13.3396 23.8472H24.7849V23.841ZM293.673 4.39604H281.777V23.841H293.673C296.304 23.841 298.704 22.7473 300.44 20.9802C302.176 19.2192 303.26 16.7847 303.26 14.1154C303.26 11.4462 302.182 9.01166 300.446 7.25068C298.698 5.4897 296.304 4.39604 293.673 4.39604ZM279.9 0.596029H293.666C297.333 0.596029 300.671 2.11603 303.083 4.56905C305.502 7.02207 307 10.4019 307 14.1216C307 17.8413 305.502 21.2273 303.083 23.6742C300.665 26.1272 297.333 27.6472 293.666 27.6472H279.9C278.865 27.6472 278.024 26.7945 278.024 25.7441V2.49295C278.024 1.44254 278.865 0.596029 279.9 0.596029ZM38.2341 20.9802C39.9762 22.7473 42.3761 23.841 45.0014 23.841H50.3129C52.9443 23.841 55.3381 22.7411 57.0802 20.9802C58.8161 19.2192 59.9004 16.7847 59.9004 14.1154C59.9004 11.4462 58.8222 9.01166 57.0802 7.25068C55.3442 5.4897 52.9443 4.38987 50.3129 4.38987H45.0014C42.3639 4.38987 39.9701 5.48353 38.2341 7.24452C36.4982 9.0055 35.42 11.44 35.42 14.1092C35.4139 16.7909 36.4982 19.2192 38.2341 20.9802ZM45.0014 27.6472C41.3406 27.6472 38.0027 26.121 35.5845 23.668C33.1724 21.215 31.6679 17.8351 31.6679 14.1154C31.6679 10.3957 33.1663 7.00972 35.5845 4.56288C38.0027 2.10986 41.3345 0.589844 45.0014 0.589844H50.3129C53.9798 0.589844 57.3116 2.11604 59.7298 4.56288C62.148 7.0159 63.6464 10.4019 63.6464 14.1154C63.6464 17.8351 62.1419 21.215 59.7298 23.668C57.3116 26.121 53.9798 27.641 50.3129 27.641H45.0014V27.6472ZM75.1465 25.7441C75.1465 26.7945 74.3059 27.6472 73.2704 27.6472C72.2349 27.6472 71.3943 26.7945 71.3943 25.7441V2.49295C71.3943 1.44254 72.2349 0.589844 73.2704 0.589844C74.2085 0.589844 74.8237 1.36221 75.4693 1.94921L97.0137 21.4992V2.49295C97.0137 1.44254 97.8543 0.589844 98.8898 0.589844C99.9253 0.589844 100.766 1.44254 100.766 2.49295V24.6319V25.7441C100.766 26.1766 100.626 26.5782 100.382 26.8934C100.041 27.3506 99.4989 27.6472 98.8898 27.6472C98.3416 27.6472 97.8726 27.4124 97.5132 27.0664L96.5995 26.2075L75.1465 6.73784V25.7441ZM108.556 4.39604C107.521 4.39604 106.68 3.54336 106.68 2.49295C106.68 1.44254 107.521 0.589844 108.556 0.589844H133.518C134.553 0.589844 135.394 1.44254 135.394 2.49295C135.394 3.54336 134.553 4.39604 133.518 4.39604H122.913V25.7441C122.913 26.7945 122.073 27.6472 121.037 27.6472C120.002 27.6472 119.161 26.7945 119.161 25.7441V4.39604H108.556ZM143.209 27.6472C142.935 27.6472 142.673 27.5854 142.435 27.4804L142.393 27.4618L142.35 27.4433L142.314 27.4248L142.277 27.4062L142.24 27.3815L142.204 27.3568L142.167 27.3321L142.131 27.3074L142.094 27.2826L142.058 27.2579L142.021 27.227L141.985 27.1961L141.954 27.1652L141.924 27.1343L141.893 27.1034L141.863 27.0726L141.832 27.0417L141.802 27.0108L141.771 26.9799L141.741 26.9428L141.717 26.9057L141.692 26.8686L141.668 26.8316L141.644 26.7945L141.619 26.7574L141.595 26.7204L141.57 26.6833L141.552 26.6462L141.534 26.603L141.516 26.5597C141.406 26.3125 141.339 26.0222 141.351 25.7441C141.351 18.0329 141.351 10.2907 141.351 2.57945C141.339 1.86887 141.68 1.22628 142.295 0.867901L142.332 0.84318L142.368 0.81846L142.411 0.799924L142.454 0.781388L142.496 0.762852L142.539 0.744316L142.582 0.72578L142.624 0.707244L142.667 0.694893L142.71 0.682542L142.752 0.670172L142.795 0.657821L142.837 0.645451L142.88 0.639285L142.923 0.6331L142.971 0.626916L143.02 0.620749L143.069 0.614565H143.118H143.166H143.215H164.784C165.819 0.614565 166.66 1.46724 166.66 2.51765C166.66 3.56806 165.819 4.42076 164.784 4.42076H145.091V11.6748H160.136C161.172 11.6748 162.012 12.5275 162.012 13.5779C162.012 14.6283 161.172 15.481 160.136 15.481H145.091V23.8719H164.784C165.819 23.8719 166.66 24.7246 166.66 25.775C166.66 26.8254 165.85 27.6781 164.814 27.6781L143.209 27.6472ZM178.489 25.7441C178.489 26.7945 177.648 27.6472 176.613 27.6472C175.577 27.6472 174.737 26.7945 174.737 25.7441V2.49295C174.737 2.38173 174.749 2.29523 174.761 2.22108C174.81 1.8627 174.962 1.51668 175.218 1.22627C175.906 0.447729 177.088 0.379767 177.855 1.07798L200.356 21.4992V2.49295C200.356 1.44254 201.197 0.589844 202.232 0.589844C203.268 0.589844 204.108 1.44254 204.108 2.49295V25.7441C204.108 26.7945 203.268 27.6472 202.232 27.6472C201.69 27.6472 201.197 27.4124 200.856 27.0355L178.489 6.73784V25.7441ZM211.875 4.39604C210.839 4.39604 209.998 3.54336 209.998 2.49295C209.998 1.44254 210.839 0.589844 211.875 0.589844H236.836C237.872 0.589844 238.712 1.44254 238.712 2.49295C238.712 3.54336 237.872 4.39604 236.836 4.39604H226.231V25.7441C226.231 26.7945 225.391 27.6472 224.355 27.6472C223.32 27.6472 222.479 26.7945 222.479 25.7441V4.39604H211.875ZM246.533 27.6472H246.472C246.198 27.6472 245.936 27.5854 245.699 27.4804L245.656 27.4618L245.613 27.4433L245.577 27.4248L245.54 27.4062L245.504 27.3815L245.467 27.3568L245.431 27.3321L245.394 27.3074L245.358 27.2826L245.321 27.2579L245.284 27.227L245.248 27.1961L245.217 27.1652L245.187 27.1343L245.157 27.1034L245.126 27.0726L245.096 27.0417L245.065 27.0108L245.035 26.9799L245.004 26.9428L244.98 26.9057L244.956 26.8686L244.931 26.8316L244.907 26.7945L244.882 26.7574L244.858 26.7204L244.84 26.6833L244.822 26.6462L244.803 26.603L244.785 26.5597C244.675 26.3187 244.621 26.053 244.621 25.775V25.7132V13.6335V13.5717V13.5099V2.57328V2.51149C244.621 1.80709 244.998 1.1892 245.565 0.861716L245.601 0.837014L245.638 0.812293L245.68 0.793758L245.723 0.775222L245.766 0.756686L245.808 0.73815L245.851 0.719614L245.894 0.701078L245.936 0.688708L245.979 0.676357L246.022 0.663987L246.064 0.651636L246.107 0.639285L246.149 0.6331L246.192 0.626916L246.241 0.620749L246.29 0.614565L246.338 0.60838H246.387H246.436H246.484H268.053C269.089 0.60838 269.929 1.46108 269.929 2.51149C269.929 3.5619 269.089 4.41458 268.053 4.41458H248.361V11.6686H263.406C264.441 11.6686 265.282 12.5213 265.282 13.5717C265.282 14.6221 264.441 15.4748 263.406 15.4748H248.361V23.8657H268.053C269.089 23.8657 269.929 24.7184 269.929 25.7688C269.929 26.8192 269.089 27.6719 268.053 27.6719H246.533V27.6472Z" fill="white"/>
</svg>
