<?xml version="1.0" encoding="UTF-8"?>
<svg width="280px" height="150px" viewBox="0 0 280 150" version="1.1" xmlns="http://www.w3.org/2000/svg" xmlns:xlink="http://www.w3.org/1999/xlink">
    <!-- Generator: Sketch 52.5 (67469) - http://www.bohemiancoding.com/sketch -->
    <title>iPhone 8</title>
    <desc>Created with Sketch.</desc>
    <g id="iPhone-8" stroke="none" stroke-width="1" fill="none" fill-rule="evenodd">
        <g id="designnews_ru_logo" transform="translate(59.000000, 9.000000)">
            <path d="M13.9079169,3.07490775 C25.4882295,3.07490775 31.2591494,11.8583026 31.2591494,20.5937269 C31.2591494,29.3291513 25.4882295,38.0118081 13.9079169,38.0118081 L0,38.0118081 L0,3.07490775 L13.9079169,3.07490775 Z M13.9079169,29.8760148 C19.8134916,29.8760148 22.8143699,25.1845018 22.8143699,20.5937269 C22.8143699,16.002952 19.8134916,11.1627306 13.9079169,11.1627306 L8.50729773,11.1627306 L8.50729773,29.8712177 L13.9079169,29.8760148 Z" id="Shape" fill="#fff" fill-rule="nonzero"></path>
            <path d="M61.0755687,27.5302583 L41.6756597,27.5302583 C42.6374797,30.0247232 45.0756934,31.2719557 47.4802433,31.3247232 C49.1899685,31.3766586 50.8421704,30.705936 52.0296518,29.4778598 L60.5946588,29.4778598 C58.4930821,35.4645756 52.7894896,38.4099631 47.0858971,38.3092251 C40.2329298,38.1605166 33.4280534,33.5697417 33.4280534,24.4361624 C33.4280534,15.1538745 40.483003,10.5630996 47.5379525,10.6110701 C54.491911,10.6638376 61.3977784,15.2546125 61.3977784,24.4361624 C61.3956867,25.4757501 61.2877293,26.512437 61.0755687,27.5302583 Z M52.7702532,21.3900369 C52.0200336,18.698893 49.822275,17.4468635 47.2686429,17.4468635 C44.8051334,17.3885163 42.6205818,19.0168811 41.978633,21.3900369 L52.7702532,21.3900369 Z" id="Shape" fill="#fff" fill-rule="nonzero"></path>
            <path d="M76.1472878,10.3616236 C81.9518714,10.3616236 87.0014263,13.3070111 87.0543264,19.595941 L79.4992305,19.595941 C79.4463304,17.499631 77.3447537,17.3509225 75.6952324,17.3509225 C74.5458576,17.3509225 72.9444273,17.7490775 72.9444273,19.197786 C72.9444273,20.6464945 75.046004,20.6369004 76.1953788,20.6944649 C81.8508803,20.8431734 87.6025638,23.2369004 87.6025638,29.6265683 C87.6025638,36.4143911 82.0480534,38.7073801 76.060724,38.7073801 C69.606912,38.7073801 64.7016301,35.8291513 64.6054481,28.9261993 L72.5067992,28.9261993 C72.5596993,30.7250923 74.4592938,31.4734317 76.2627062,31.4734317 C78.3113828,31.5214022 79.7108309,30.7730627 79.7108309,29.8280443 C79.7108309,27.8804428 76.7099525,28.1298893 75.4114955,28.0291513 C70.3090406,27.5782288 65.0046034,25.6306273 65.0046034,19.696679 C64.9901761,13.1583026 70.0926311,10.3616236 76.1472878,10.3616236 Z" id="Path" fill="#fff"></path>
            <path d="M95.4077329,0.479704797 C97.8122829,0.431734317 100.313015,1.91881919 100.313015,5.0704797 C100.313015,7.94870849 98.057547,9.41660517 95.7587972,9.46457565 C93.3542473,9.51254613 90.8535153,8.06863469 90.8535153,5.0704797 C90.8535153,2.07232472 93.1041741,0.532472325 95.4077329,0.479704797 Z M91.6037349,11.0332103 L91.6037349,38.0118081 L99.6108863,38.0118081 L99.6108863,11.0332103 L91.6037349,11.0332103 Z" id="Shape" fill="#fff" fill-rule="nonzero"></path>
            <path d="M103.761139,24.7335793 C103.761139,16.9479705 108.166275,10.6638376 116.769755,10.7118081 C119.371478,10.7118081 122.026101,11.4121771 123.824704,13.7051661 L123.824704,11.0332103 L131.677964,11.0332103 L131.677964,36.4575646 C131.677964,46.4402214 124.776906,50.4841328 117.91913,50.4841328 C111.215244,50.4841328 104.564259,46.4402214 104.564259,39.901845 L112.816675,39.901845 C112.816675,41.5472325 115.168324,42.895203 117.669056,42.8472325 C120.520853,42.7944649 123.574631,41.2498155 123.824704,36.5103321 L123.824704,35.1143911 C122.074192,37.1627306 119.496514,37.9110701 116.822655,37.9110701 C108.113375,37.896679 103.761139,32.1690037 103.761139,24.7335793 Z M111.6673,24.8343173 C111.715391,28.6287823 114.721078,30.4756458 117.721956,30.4756458 C120.722835,30.4756458 123.824704,28.4800738 123.824704,24.7191882 C123.824704,21.1261993 121.073899,18.1856089 117.721956,18.1856089 C113.619794,18.2 111.619209,21.5867159 111.6673,24.8343173 Z" id="Shape" fill="#fff" fill-rule="nonzero"></path>
            <path d="M144.272997,11.0332103 L144.272997,13.7291513 C146.196637,11.3306273 149.375452,10.6350554 152.275339,10.6350554 C159.969899,10.7357934 162.085903,16.4250923 162.033003,23.1601476 L162.033003,38.0309963 L154.045088,38.0309963 L154.045088,23.1889299 C154.045088,19.5431734 151.991602,17.9121771 149.841935,17.9121771 C146.920027,18.0112947 144.621678,20.436478 144.68658,23.3520295 L144.68658,38.0118081 L136.333173,38.0118081 L136.333173,11.0332103 L144.272997,11.0332103 Z" id="Path" fill="#fff"></path>
            <polygon id="Path" fill="#fff" points="0.048090999 83.5837638 0.048090999 48.6468635 6.65579426 48.6468635 18.7554896 66.1129151 18.7554896 48.6468635 27.2146963 48.6468635 27.2146963 83.5837638 20.5108111 83.5837638 8.55538872 66.5638376 8.55538872 83.5837638"></polygon>
            <path d="M58.1901088,73.102214 L38.7709634,73.102214 C39.7327834,75.596679 42.1758061,76.8439114 44.575547,76.896679 C46.2866021,76.9481736 47.9401145,76.2776278 49.1297646,75.0498155 L57.7091988,75.0498155 C55.6076222,81.0365314 49.9040297,83.9819188 44.2004372,83.8811808 C37.3474698,83.7324723 30.5425935,79.1416974 30.5425935,70.0081181 C30.5425935,60.7258303 37.597543,56.1350554 44.6524926,56.1830258 C51.606451,56.2357934 58.5075094,60.8265683 58.5075094,70.0081181 C58.5069998,71.0475425 58.4006538,72.0842277 58.1901088,73.102214 Z M49.8847933,66.9619926 C49.1345737,64.2708487 46.9320059,63.0188192 44.383183,63.0188192 C41.9191133,62.9587207 39.7335968,64.5878048 39.0931731,66.9619926 L49.8847933,66.9619926 Z" id="Shape" fill="#fff" fill-rule="nonzero"></path>
            <polygon id="Path" fill="#fff" points="77.695818 80.4896679 76.5464431 83.5837638 68.9913472 83.5837638 60.3878675 57.7804428 60.3878675 56.6051661 68.4431098 56.6051661 71.1458239 64.7601476 72.9444273 72.1476015 77.1956716 58.1738007 82.8511731 58.1738007 87.1024174 72.1476015 88.9058299 64.7601476 91.6037349 56.6051661 99.6589773 56.6051661 99.6589773 57.804428 91.0554975 83.6077491 83.5004016 83.6077491 82.2981266 80.4129151 80.0474679 72.9151292"></polygon>
            <path d="M113.667885,55.9335793 C119.472469,55.9335793 124.526833,58.8789668 124.574924,65.1678967 L117.019828,65.1678967 C116.971737,63.0715867 114.87016,62.9228782 113.220639,62.9228782 C112.066455,62.9228782 110.465025,63.3210332 110.465025,64.7697417 C110.465025,66.2184502 112.566601,66.2088561 113.720785,66.2664207 C119.371478,66.4151292 125.12797,68.8088561 125.12797,75.198524 C125.12797,81.9863469 119.57346,84.2793358 113.586131,84.2793358 C107.132318,84.2793358 102.231846,81.401107 102.130855,74.498155 L110.037015,74.498155 C110.085106,76.297048 111.989509,77.0453875 113.788113,77.0453875 C115.841598,77.0933579 117.241046,76.3450185 117.241046,75.4 C117.241046,73.4523985 114.240168,73.701845 112.936902,73.601107 C107.834447,73.1501845 102.53001,71.202583 102.53001,65.2686347 C102.510773,58.7302583 107.613228,55.9335793 113.667885,55.9335793 Z" id="Path" fill="#fff"></path>
            <path d="M9.20461721,124.862362 C9.10378237,127.349349 7.04948075,129.31162 4.55421761,129.304428 C2.11598034,129.233427 0.148057466,127.293481 0.048090999,124.862362 C0.0168760748,123.66444 0.482897652,122.506817 1.33600548,121.663112 C2.18911331,120.819408 3.35359768,120.364497 4.55421761,120.405904 C7.25212265,120.405904 9.20461721,122.219188 9.20461721,124.862362 Z" id="Path" fill="#fff"></path>
            <path d="M24.4638912,117.326199 L24.4638912,129.15572 L15.9614026,129.15572 L15.9614026,93.9214022 L29.5663462,93.9214022 C37.6744886,93.9214022 41.7237507,99.9081181 41.6275687,105.746125 C41.5601859,110.328972 38.9063316,114.481703 34.7697923,116.477122 L42.2767972,127.558303 L42.2767972,129.15572 L33.1827893,129.15572 L25.8633393,117.326199 L24.4638912,117.326199 Z M24.4638912,109.593358 L29.3691731,109.593358 C30.7422134,109.64239 32.0325243,108.939687 32.7336278,107.761077 C33.4347314,106.582467 33.4347314,105.116057 32.7336278,103.937447 C32.0325243,102.758837 30.7422134,102.056134 29.3691731,102.105166 L24.4638912,102.105166 L24.4638912,109.593358 Z" id="Shape" fill="#fff" fill-rule="nonzero"></path>
            <path d="M46.3789594,117.92583 L46.3789594,94.2188192 L54.9343482,94.2188192 L54.9343482,117.87786 C54.9343482,123.116236 64.8362849,123.015498 64.8362849,117.87786 L64.8362849,94.2188192 L73.3916736,94.2188192 L73.3916736,117.92583 C73.3916736,125.812177 66.5916063,129.702583 59.834821,129.654613 C53.0780356,129.606642 46.3789594,125.812177 46.3789594,117.92583 Z" id="Path" fill="#fff"></path>
        </g>
    </g>
</svg>